<svg xmlns="http://www.w3.org/2000/svg" xmlns:xlink="http://www.w3.org/1999/xlink" width="500" zoomAndPan="magnify" viewBox="0 0 375 374.999991" height="500" preserveAspectRatio="xMidYMid meet" version="1.0"><defs><g/><clipPath id="157f553f40"><path d="M 24.328125 163 L 90 163 L 90 187 L 24.328125 187 Z M 24.328125 163 " clip-rule="nonzero"/></clipPath><clipPath id="451f8aca73"><path d="M 24.328125 160 L 90 160 L 90 187 L 24.328125 187 Z M 24.328125 160 " clip-rule="nonzero"/></clipPath><clipPath id="675e37847d"><path d="M 67 122.539062 L 92 122.539062 L 92 183 L 67 183 Z M 67 122.539062 " clip-rule="nonzero"/></clipPath><clipPath id="0248a62ca7"><path d="M 67 122.539062 L 93 122.539062 L 93 183 L 67 183 Z M 67 122.539062 " clip-rule="nonzero"/></clipPath></defs><path fill="#1e2433" d="M 143.972656 185.28125 C 148.851562 185.417969 150.160156 183.019531 149.675781 182.429688 L 113.421875 170.609375 C 112.941406 170.023438 111.3125 169.488281 109.78125 169.414062 L 91.21875 168.53125 C 89.6875 168.457031 87.925781 168.898438 87.28125 169.519531 L 85.316406 184.867188 C 85.960938 187.476562 87.789062 186.515625 91.984375 186.515625 L 143.972656 185.28125 " fill-opacity="1" fill-rule="nonzero"/><path fill="#ffffff" d="M 143.972656 185.28125 L 143.96875 185.394531 C 144.105469 185.398438 144.238281 185.398438 144.367188 185.398438 C 146.367188 185.398438 147.738281 184.960938 148.613281 184.414062 C 149.488281 183.863281 149.878906 183.207031 149.882812 182.734375 C 149.882812 182.589844 149.847656 182.460938 149.765625 182.359375 L 149.742188 182.335938 L 113.457031 170.503906 L 113.421875 170.609375 L 113.507812 170.539062 C 113.238281 170.214844 112.699219 169.933594 112.03125 169.710938 C 111.359375 169.492188 110.5625 169.339844 109.789062 169.300781 L 91.222656 168.417969 C 91.109375 168.414062 90.996094 168.410156 90.878906 168.410156 C 90.148438 168.410156 89.390625 168.515625 88.734375 168.695312 C 88.078125 168.878906 87.527344 169.128906 87.203125 169.4375 L 87.175781 169.464844 L 85.203125 184.875 L 85.207031 184.894531 C 85.398438 185.660156 85.695312 186.148438 86.136719 186.4375 C 86.578125 186.722656 87.136719 186.800781 87.839844 186.800781 C 88.867188 186.800781 90.214844 186.628906 91.984375 186.628906 L 91.988281 186.628906 L 143.972656 185.394531 L 143.972656 185.28125 L 143.96875 185.394531 L 143.972656 185.28125 L 143.96875 185.167969 L 91.984375 186.40625 L 91.984375 186.515625 L 91.984375 186.40625 C 90.203125 186.40625 88.84375 186.578125 87.839844 186.578125 C 87.152344 186.578125 86.636719 186.496094 86.257812 186.25 C 85.882812 186 85.609375 185.578125 85.425781 184.839844 L 85.316406 184.867188 L 85.429688 184.882812 L 87.394531 169.53125 L 87.28125 169.519531 L 87.359375 169.601562 C 87.632812 169.335938 88.160156 169.085938 88.792969 168.914062 C 89.429688 168.738281 90.171875 168.636719 90.878906 168.636719 C 90.992188 168.636719 91.101562 168.636719 91.210938 168.644531 L 109.777344 169.527344 C 110.527344 169.5625 111.3125 169.710938 111.960938 169.925781 C 112.609375 170.136719 113.125 170.417969 113.332031 170.679688 L 113.355469 170.707031 L 149.644531 182.539062 L 149.675781 182.429688 L 149.589844 182.503906 C 149.628906 182.550781 149.65625 182.628906 149.65625 182.734375 C 149.660156 183.082031 149.328125 183.703125 148.496094 184.222656 C 147.664062 184.746094 146.332031 185.171875 144.367188 185.171875 C 144.238281 185.171875 144.109375 185.171875 143.972656 185.167969 L 143.96875 185.167969 L 143.972656 185.28125 " fill-opacity="1" fill-rule="nonzero"/><path fill="#ffffff" d="M 95.636719 185.128906 C 93.5625 185.128906 91.832031 184.964844 90.632812 184.65625 C 89.542969 184.375 88.949219 183.992188 88.910156 183.542969 L 71.082031 165.46875 L 117.570312 167.886719 L 147.390625 180.523438 L 147.320312 180.738281 C 147.265625 180.722656 141.5625 179.375 134.027344 179.375 C 129.0625 179.375 124.417969 179.949219 120.230469 181.082031 C 110.570312 183.691406 101.835938 185.128906 95.636719 185.128906 " fill-opacity="1" fill-rule="nonzero"/><path fill="#1e2433" d="M 70.796875 165.34375 L 71.203125 165.753906 L 88.800781 183.59375 C 88.960938 184.613281 91.546875 185.242188 95.636719 185.242188 C 101.84375 185.242188 110.589844 183.804688 120.257812 181.191406 C 124.4375 180.058594 129.070312 179.488281 134.027344 179.488281 C 141.546875 179.488281 147.238281 180.832031 147.296875 180.847656 L 147.433594 180.421875 L 117.632812 167.792969 L 117.59375 167.777344 L 117.554688 167.773438 L 71.375 165.371094 Z M 71.363281 165.597656 L 117.542969 168 L 147.347656 180.628906 C 147.347656 180.628906 141.664062 179.261719 134.027344 179.261719 C 129.804688 179.261719 124.988281 179.679688 120.199219 180.972656 C 108.882812 184.03125 100.75 185.015625 95.636719 185.015625 C 91.1875 185.015625 89.019531 184.269531 89.019531 183.496094 L 71.363281 165.597656 " fill-opacity="1" fill-rule="nonzero"/><path fill="#ffffff" d="M 93.214844 184.765625 C 90.96875 184.765625 89.488281 184.351562 88.925781 183.558594 L 71.179688 165.570312 L 101.003906 149.015625 L 144.230469 171.507812 L 143.789062 171.515625 C 143.636719 171.515625 128.65625 171.851562 115.976562 178.234375 C 107.011719 182.746094 98.082031 184.765625 93.214844 184.765625 " fill-opacity="1" fill-rule="nonzero"/><path fill="#1e2433" d="M 101.003906 148.886719 L 100.898438 148.945312 L 71.253906 165.398438 L 70.996094 165.542969 L 71.203125 165.753906 L 88.847656 183.640625 C 89.4375 184.453125 90.945312 184.878906 93.214844 184.878906 C 98.097656 184.878906 107.042969 182.855469 116.027344 178.332031 C 128.683594 171.964844 143.640625 171.628906 143.789062 171.628906 L 144.675781 171.613281 L 143.890625 171.203125 L 101.109375 148.945312 Z M 101.007812 149.144531 L 143.785156 171.402344 C 143.785156 171.402344 128.777344 171.664062 115.925781 178.132812 C 107.433594 182.40625 98.421875 184.652344 93.214844 184.652344 C 91.070312 184.652344 89.570312 184.273438 89.019531 183.496094 L 71.363281 165.597656 L 101.007812 149.144531 " fill-opacity="1" fill-rule="nonzero"/><path fill="#ffffff" d="M 92.675781 183.570312 C 91.425781 183.570312 90.234375 183.445312 89.144531 183.207031 L 89.113281 183.199219 L 66.703125 162.097656 L 102.878906 151.339844 L 136.960938 160.480469 L 136.800781 160.617188 C 136.53125 160.847656 109.839844 183.570312 92.675781 183.570312 " fill-opacity="1" fill-rule="nonzero"/><path fill="#1e2433" d="M 102.878906 151.222656 L 102.816406 151.238281 L 66.859375 161.933594 L 66.484375 162.046875 L 66.769531 162.3125 L 89.011719 183.261719 L 89.058594 183.304688 L 89.117188 183.316406 C 90.21875 183.558594 91.414062 183.679688 92.675781 183.679688 C 101.679688 183.679688 113.222656 177.429688 121.320312 172.183594 C 130.078125 166.507812 136.804688 160.761719 136.875 160.703125 L 137.199219 160.425781 L 136.785156 160.316406 L 102.941406 151.238281 Z M 102.882812 151.457031 L 136.726562 160.535156 C 136.726562 160.535156 109.996094 183.457031 92.675781 183.457031 C 91.453125 183.457031 90.28125 183.339844 89.164062 183.097656 L 66.921875 162.152344 L 102.882812 151.457031 " fill-opacity="1" fill-rule="nonzero"/><path fill="#ffffff" d="M 89.59375 182.917969 C 89.449219 182.917969 89.304688 182.917969 89.160156 182.910156 L 89.121094 182.90625 L 66.726562 162.121094 L 102.652344 144.347656 L 131.558594 151.390625 L 131.433594 151.53125 C 131.152344 151.84375 103.152344 182.917969 89.59375 182.917969 " fill-opacity="1" fill-rule="nonzero"/><path fill="#1e2433" d="M 102.636719 144.230469 L 102.5625 144.265625 L 66.820312 161.949219 L 66.53125 162.09375 L 66.769531 162.316406 L 89.011719 182.960938 L 89.074219 183.015625 L 89.15625 183.019531 C 89.300781 183.027344 89.445312 183.03125 89.59375 183.03125 C 95.320312 183.03125 104.117188 177.738281 115.746094 167.300781 C 124.386719 159.542969 131.445312 151.683594 131.515625 151.605469 L 131.765625 151.324219 L 131.402344 151.238281 L 102.71875 144.25 Z M 102.664062 144.46875 L 131.347656 151.457031 C 131.347656 151.457031 103.261719 182.808594 89.59375 182.808594 C 89.449219 182.808594 89.308594 182.804688 89.164062 182.796875 L 66.921875 162.152344 L 102.664062 144.46875 " fill-opacity="1" fill-rule="nonzero"/><path fill="#ffffff" d="M 88.925781 182.539062 L 66.589844 159.316406 L 81.371094 133.382812 L 120.363281 136.0625 L 120.304688 136.207031 C 120.257812 136.320312 115.617188 147.910156 109.476562 159.347656 C 101.210938 174.734375 94.3125 182.539062 88.972656 182.539062 L 88.925781 182.539062 " fill-opacity="1" fill-rule="nonzero"/><path fill="#1e2433" d="M 81.308594 133.265625 L 81.238281 133.386719 L 66.535156 159.1875 L 66.449219 159.332031 L 66.566406 159.453125 L 88.8125 182.582031 L 88.878906 182.652344 L 88.972656 182.652344 C 94.359375 182.652344 101.289062 174.828125 109.574219 159.402344 C 115.71875 147.957031 120.363281 136.363281 120.410156 136.246094 L 120.523438 135.960938 L 120.214844 135.941406 L 81.449219 133.273438 Z M 81.433594 133.5 L 120.199219 136.164062 C 120.199219 136.164062 101.742188 182.425781 88.972656 182.425781 L 66.726562 159.300781 L 81.433594 133.5 " fill-opacity="1" fill-rule="nonzero"/><path fill="#ffffff" d="M 66.800781 159.710938 L 71.0625 131.082031 L 107.699219 129.359375 L 107.6875 129.488281 C 107.644531 129.917969 103.355469 172.636719 89.71875 182.519531 L 89.640625 182.574219 L 66.800781 159.710938 " fill-opacity="1" fill-rule="nonzero"/><path fill="#1e2433" d="M 107.824219 129.242188 L 107.566406 129.253906 L 71.152344 130.96875 L 70.96875 130.976562 L 70.941406 131.160156 L 66.699219 159.636719 L 66.683594 159.746094 L 66.761719 159.828125 L 89.492188 182.585938 L 89.628906 182.722656 L 89.785156 182.609375 C 95.535156 178.441406 100.3125 168.234375 103.988281 152.265625 C 106.722656 140.398438 107.789062 129.609375 107.800781 129.5 Z M 107.574219 129.476562 C 107.574219 129.476562 103.40625 172.460938 89.652344 182.425781 L 66.921875 159.667969 L 71.164062 131.191406 L 107.574219 129.476562 " fill-opacity="1" fill-rule="nonzero"/><g clip-path="url(#157f553f40)"><path fill="#1e2433" d="M 30.511719 185.28125 C 25.632812 185.417969 24.328125 183.019531 24.808594 182.429688 L 41.023438 165.640625 C 41.503906 165.054688 43.132812 164.519531 44.664062 164.445312 L 63.226562 163.5625 C 64.757812 163.492188 66.519531 163.933594 67.164062 164.550781 L 89.164062 184.867188 C 88.519531 187.476562 86.695312 186.515625 82.496094 186.515625 L 30.511719 185.28125 " fill-opacity="1" fill-rule="nonzero"/><path fill="#ffffff" d="M 30.511719 185.28125 L 30.507812 185.167969 C 30.375 185.171875 30.242188 185.171875 30.113281 185.171875 C 28.148438 185.171875 26.820312 184.746094 25.988281 184.222656 C 25.152344 183.703125 24.824219 183.082031 24.828125 182.734375 C 24.828125 182.628906 24.855469 182.550781 24.894531 182.503906 L 24.808594 182.429688 L 24.886719 182.511719 L 41.109375 165.714844 L 41.109375 165.710938 C 41.320312 165.449219 41.839844 165.167969 42.484375 164.957031 C 43.132812 164.742188 43.914062 164.59375 44.667969 164.558594 L 63.234375 163.675781 C 63.34375 163.671875 63.453125 163.667969 63.566406 163.667969 C 64.273438 163.667969 65.019531 163.773438 65.652344 163.945312 C 66.285156 164.121094 66.8125 164.367188 67.085938 164.632812 L 89.089844 184.953125 L 89.164062 184.867188 L 89.058594 184.839844 C 88.875 185.578125 88.605469 186 88.222656 186.25 C 87.84375 186.496094 87.332031 186.578125 86.648438 186.578125 C 85.640625 186.578125 84.28125 186.40625 82.496094 186.40625 L 82.496094 186.515625 L 82.5 186.40625 L 30.511719 185.167969 L 30.507812 185.167969 L 30.511719 185.28125 L 30.511719 185.394531 L 82.496094 186.628906 C 84.269531 186.628906 85.617188 186.800781 86.648438 186.800781 C 87.34375 186.800781 87.90625 186.722656 88.347656 186.4375 C 88.789062 186.148438 89.085938 185.660156 89.277344 184.894531 L 89.292969 184.832031 L 67.242188 164.46875 L 67.164062 164.550781 L 67.242188 164.46875 C 66.917969 164.160156 66.367188 163.910156 65.710938 163.730469 C 65.054688 163.550781 64.296875 163.445312 63.566406 163.445312 C 63.449219 163.445312 63.335938 163.445312 63.222656 163.453125 L 44.660156 164.332031 C 43.882812 164.371094 43.085938 164.523438 42.414062 164.742188 C 41.746094 164.964844 41.207031 165.242188 40.9375 165.570312 L 41.023438 165.640625 L 40.941406 165.5625 L 24.722656 182.355469 L 24.71875 182.359375 C 24.636719 182.460938 24.601562 182.589844 24.601562 182.734375 C 24.605469 183.207031 24.992188 183.863281 25.871094 184.414062 C 26.746094 184.960938 28.117188 185.398438 30.113281 185.398438 C 30.246094 185.398438 30.378906 185.398438 30.515625 185.394531 L 30.511719 185.28125 L 30.511719 185.394531 L 30.511719 185.28125 " fill-opacity="1" fill-rule="nonzero"/></g><g clip-path="url(#451f8aca73)"><path fill="#1e2433" d="M 88.996094 182.621094 C 89.03125 182.542969 89.015625 182.460938 88.929688 182.375 L 88.792969 182.246094 C 88.5625 181.894531 88.230469 181.550781 87.757812 181.253906 L 67.164062 161.527344 C 66.519531 160.910156 64.757812 160.46875 63.226562 160.539062 L 44.664062 161.421875 C 43.132812 161.496094 41.503906 162.03125 41.023438 162.621094 L 24.808594 182.429688 C 24.328125 183.019531 27.339844 183.496094 31.539062 183.496094 L 81.433594 183.496094 C 85.6875 184.046875 84.523438 186.472656 87.042969 186.5 C 88.132812 186.511719 88.964844 185.941406 89.164062 184.867188 C 89.234375 184.507812 89.421875 183.566406 88.996094 182.621094 " fill-opacity="1" fill-rule="nonzero"/><path fill="#ffffff" d="M 88.996094 182.621094 L 89.097656 182.667969 C 89.117188 182.628906 89.128906 182.585938 89.128906 182.542969 C 89.128906 182.449219 89.078125 182.363281 89.007812 182.292969 L 88.871094 182.164062 L 88.792969 182.246094 L 88.886719 182.183594 C 88.648438 181.816406 88.304688 181.464844 87.816406 181.160156 L 87.757812 181.253906 L 87.835938 181.171875 L 67.242188 161.449219 C 66.917969 161.140625 66.363281 160.890625 65.707031 160.707031 C 65.050781 160.527344 64.292969 160.421875 63.558594 160.421875 C 63.445312 160.421875 63.332031 160.421875 63.222656 160.425781 L 44.660156 161.3125 C 43.882812 161.347656 43.085938 161.503906 42.414062 161.722656 C 41.746094 161.945312 41.207031 162.222656 40.9375 162.546875 L 24.71875 182.359375 C 24.675781 182.414062 24.644531 182.480469 24.644531 182.554688 C 24.644531 182.675781 24.722656 182.765625 24.824219 182.839844 C 25 182.960938 25.285156 183.0625 25.675781 183.15625 C 26.847656 183.429688 28.96875 183.605469 31.539062 183.605469 L 81.433594 183.605469 L 81.433594 183.496094 L 81.417969 183.605469 C 83.523438 183.882812 84.25 184.597656 84.800781 185.265625 C 85.078125 185.601562 85.304688 185.929688 85.632812 186.1875 C 85.964844 186.441406 86.394531 186.609375 87.042969 186.613281 L 87.070312 186.613281 C 87.628906 186.613281 88.128906 186.464844 88.515625 186.175781 C 88.902344 185.882812 89.175781 185.445312 89.277344 184.890625 C 89.3125 184.707031 89.378906 184.363281 89.378906 183.941406 C 89.378906 183.535156 89.316406 183.058594 89.097656 182.574219 L 88.996094 182.621094 L 89.097656 182.667969 L 88.996094 182.621094 L 88.894531 182.667969 C 89.09375 183.113281 89.152344 183.558594 89.152344 183.941406 C 89.152344 184.339844 89.089844 184.664062 89.054688 184.847656 C 88.960938 185.355469 88.722656 185.734375 88.378906 185.996094 C 88.039062 186.25 87.589844 186.390625 87.070312 186.390625 L 87.046875 186.390625 C 86.433594 186.382812 86.066406 186.234375 85.769531 186.007812 C 85.328125 185.671875 85.058594 185.125 84.488281 184.597656 C 83.921875 184.074219 83.058594 183.589844 81.449219 183.382812 L 31.539062 183.382812 C 29.589844 183.382812 27.898438 183.28125 26.699219 183.109375 C 26.101562 183.027344 25.621094 182.925781 25.304688 182.816406 C 25.144531 182.765625 25.023438 182.707031 24.953125 182.65625 C 24.878906 182.601562 24.867188 182.5625 24.871094 182.554688 L 24.894531 182.503906 L 41.109375 162.691406 C 41.320312 162.429688 41.839844 162.144531 42.484375 161.933594 C 43.132812 161.722656 43.914062 161.570312 44.667969 161.535156 L 63.234375 160.652344 C 63.339844 160.648438 63.449219 160.644531 63.558594 160.644531 C 64.269531 160.644531 65.011719 160.75 65.648438 160.925781 C 66.285156 161.097656 66.8125 161.347656 67.085938 161.609375 L 87.6875 181.34375 L 87.695312 181.347656 C 88.160156 181.640625 88.476562 181.96875 88.699219 182.308594 L 88.707031 182.316406 L 88.851562 182.457031 C 88.894531 182.5 88.902344 182.527344 88.902344 182.542969 L 88.894531 182.574219 L 88.871094 182.621094 L 88.894531 182.667969 L 88.996094 182.621094 " fill-opacity="1" fill-rule="nonzero"/></g><path fill="#1e2433" d="M 38.742188 185.363281 L 30.511719 185.167969 L 30.507812 185.167969 C 30.375 185.171875 30.242188 185.171875 30.113281 185.171875 C 29.46875 185.171875 28.890625 185.128906 28.378906 185.046875 L 28.378906 184.628906 L 37.011719 184.84375 L 38.742188 185.363281 " fill-opacity="1" fill-rule="nonzero"/><path fill="#000000" d="M 39.152344 185.488281 L 30.511719 185.28125 C 30.378906 185.285156 30.246094 185.285156 30.121094 185.285156 C 29.472656 185.285156 28.894531 185.238281 28.378906 185.160156 L 28.378906 185.046875 C 28.890625 185.128906 29.46875 185.171875 30.113281 185.171875 C 30.242188 185.171875 30.375 185.171875 30.507812 185.167969 L 30.511719 185.167969 L 38.742188 185.363281 L 39.152344 185.488281 " fill-opacity="1" fill-rule="nonzero"/><g clip-path="url(#675e37847d)"><path fill="#1e2433" d="M 89.609375 182.652344 C 89.382812 182.652344 89.136719 182.59375 88.882812 182.476562 L 88.863281 182.46875 L 68.503906 160.246094 C 67.898438 159.75 67.355469 158.117188 67.28125 156.539062 L 69.496094 133.339844 C 69.460938 132.640625 69.132812 132.140625 68.867188 131.738281 C 68.578125 131.292969 68.328125 130.914062 68.707031 130.519531 L 68.726562 130.5 L 90.640625 122.65625 C 90.695312 122.648438 90.71875 122.648438 90.742188 122.648438 C 91.46875 122.648438 91.679688 123.59375 91.777344 124.417969 C 91.910156 125.519531 91.910156 127.140625 91.910156 129.191406 L 91.910156 174.460938 C 91.910156 177.976562 91.671875 182.652344 89.609375 182.652344 " fill-opacity="1" fill-rule="nonzero"/></g><g clip-path="url(#0248a62ca7)"><path fill="#ffffff" d="M 90.742188 122.535156 L 90.660156 122.539062 L 90.632812 122.542969 L 90.601562 122.550781 L 68.710938 130.386719 L 68.664062 130.402344 L 68.625 130.441406 C 68.183594 130.902344 68.484375 131.359375 68.773438 131.796875 C 69.027344 132.1875 69.34375 132.667969 69.382812 133.34375 L 67.167969 156.511719 L 67.167969 156.542969 C 67.242188 158.140625 67.796875 159.800781 68.433594 160.332031 L 88.761719 182.527344 L 88.792969 182.5625 L 88.835938 182.582031 C 89.105469 182.703125 89.367188 182.765625 89.609375 182.765625 C 91.773438 182.765625 92.023438 178.027344 92.023438 174.460938 L 92.023438 129.195312 C 92.023438 127.136719 92.023438 125.511719 91.890625 124.40625 C 91.785156 123.535156 91.558594 122.535156 90.742188 122.535156 Z M 90.742188 122.761719 C 91.796875 122.761719 91.796875 125.074219 91.796875 129.195312 L 91.796875 174.460938 C 91.796875 178.242188 91.488281 182.539062 89.609375 182.539062 C 89.402344 182.539062 89.175781 182.488281 88.929688 182.375 L 68.589844 160.171875 C 68 159.691406 67.464844 158.0625 67.390625 156.53125 L 69.605469 133.347656 C 69.535156 131.816406 68.167969 131.242188 68.789062 130.597656 L 90.679688 122.765625 L 90.742188 122.761719 " fill-opacity="1" fill-rule="nonzero"/></g><path fill="#1e2433" d="M 89.992188 175.644531 C 89.992188 179.84375 89.515625 182.855469 88.929688 182.375 L 66.78125 161.355469 C 66.195312 160.875 65.660156 159.246094 65.585938 157.71875 L 67.800781 134.535156 C 67.726562 133.003906 68.167969 131.242188 68.789062 130.597656 L 88.871094 123.949219 C 89.992188 123.859375 89.992188 126.179688 89.992188 130.378906 L 89.992188 175.644531 " fill-opacity="1" fill-rule="nonzero"/><path fill="#ffffff" d="M 89.992188 175.644531 L 89.878906 175.644531 C 89.878906 177.59375 89.777344 179.285156 89.609375 180.484375 C 89.523438 181.082031 89.425781 181.5625 89.3125 181.878906 C 89.261719 182.039062 89.203125 182.160156 89.152344 182.230469 C 89.097656 182.304688 89.0625 182.316406 89.050781 182.3125 L 89 182.289062 L 88.929688 182.375 L 89.003906 182.292969 L 66.855469 161.269531 L 66.851562 161.269531 C 66.589844 161.058594 66.308594 160.542969 66.097656 159.894531 C 65.886719 159.246094 65.734375 158.464844 65.699219 157.710938 L 65.585938 157.71875 L 65.699219 157.726562 L 67.914062 134.535156 L 67.914062 134.527344 C 67.90625 134.417969 67.90625 134.308594 67.90625 134.199219 C 67.90625 133.488281 68.007812 132.746094 68.183594 132.109375 C 68.355469 131.476562 68.605469 130.949219 68.867188 130.675781 L 68.789062 130.597656 L 68.824219 130.703125 L 88.90625 124.054688 L 88.871094 123.949219 L 88.882812 124.058594 L 88.933594 124.058594 C 89.046875 124.058594 89.136719 124.085938 89.21875 124.144531 C 89.363281 124.246094 89.488281 124.453125 89.585938 124.777344 C 89.878906 125.75 89.882812 127.675781 89.878906 130.378906 L 89.878906 175.644531 L 90.105469 175.644531 L 90.105469 130.378906 C 90.105469 128.320312 90.105469 126.710938 89.972656 125.605469 C 89.90625 125.050781 89.804688 124.621094 89.644531 124.320312 C 89.5625 124.167969 89.46875 124.046875 89.347656 123.960938 C 89.230469 123.878906 89.085938 123.832031 88.933594 123.832031 L 88.863281 123.835938 L 88.851562 123.835938 L 68.726562 130.5 L 68.707031 130.519531 C 68.398438 130.84375 68.148438 131.394531 67.964844 132.050781 C 67.785156 132.707031 67.679688 133.464844 67.679688 134.199219 C 67.679688 134.3125 67.683594 134.425781 67.6875 134.539062 L 67.800781 134.535156 L 67.6875 134.523438 L 65.472656 157.714844 L 65.476562 157.722656 C 65.511719 158.496094 65.664062 159.296875 65.882812 159.964844 C 66.105469 160.632812 66.386719 161.171875 66.710938 161.441406 L 66.78125 161.355469 L 66.703125 161.4375 L 88.855469 182.460938 C 88.910156 182.507812 88.980469 182.539062 89.050781 182.539062 C 89.171875 182.535156 89.265625 182.460938 89.335938 182.359375 C 89.460938 182.183594 89.558594 181.898438 89.652344 181.507812 C 89.929688 180.335938 90.105469 178.214844 90.105469 175.644531 L 89.992188 175.644531 " fill-opacity="1" fill-rule="nonzero"/><path fill="#ffffff" d="M 88.519531 173.84375 C 88.519531 177.742188 88.089844 180.542969 87.558594 180.097656 L 67.484375 160.570312 C 66.953125 160.121094 66.46875 158.609375 66.402344 157.191406 L 68.699219 135.324219 C 68.632812 133.902344 69.035156 132.265625 69.59375 131.667969 L 87.507812 126.222656 C 88.257812 126.4375 88.519531 128.300781 88.519531 132.199219 L 88.519531 173.84375 " fill-opacity="1" fill-rule="nonzero"/><path fill="#ffffff" d="M 61.859375 162.703125 C 61.714844 162.710938 61.566406 162.675781 61.535156 162.625 L 60.96875 161.714844 C 60.9375 161.664062 61.023438 161.613281 61.160156 161.613281 L 62.628906 161.550781 C 62.765625 161.542969 62.910156 161.582031 62.949219 161.628906 L 63.640625 162.542969 C 63.679688 162.59375 63.59375 162.640625 63.445312 162.644531 L 61.859375 162.703125 " fill-opacity="1" fill-rule="nonzero"/><path fill="#ffffff" d="M 62.707031 164.03125 C 62.546875 164.035156 62.390625 163.996094 62.359375 163.945312 L 61.792969 163.035156 C 61.761719 162.988281 61.855469 162.9375 62.007812 162.933594 L 63.613281 162.875 C 63.765625 162.871094 63.917969 162.90625 63.957031 162.957031 L 64.652344 163.871094 C 64.691406 163.921875 64.59375 163.96875 64.429688 163.972656 L 62.707031 164.03125 " fill-opacity="1" fill-rule="nonzero"/><path fill="#ffffff" d="M 63.554688 165.351562 C 63.378906 165.359375 63.214844 165.320312 63.183594 165.269531 L 62.617188 164.359375 C 62.585938 164.308594 62.691406 164.261719 62.851562 164.257812 L 64.601562 164.203125 C 64.761719 164.195312 64.925781 164.234375 64.96875 164.285156 L 65.660156 165.199219 C 65.699219 165.25 65.589844 165.296875 65.417969 165.300781 L 63.554688 165.351562 " fill-opacity="1" fill-rule="nonzero"/><path fill="#ffffff" d="M 64.402344 166.675781 C 64.214844 166.679688 64.039062 166.640625 64.003906 166.589844 L 63.4375 165.679688 C 63.40625 165.628906 63.527344 165.585938 63.699219 165.578125 L 65.585938 165.53125 C 65.761719 165.523438 65.9375 165.5625 65.976562 165.613281 L 66.667969 166.527344 C 66.707031 166.578125 66.589844 166.621094 66.402344 166.628906 L 64.402344 166.675781 " fill-opacity="1" fill-rule="nonzero"/><path fill="#ffffff" d="M 65.246094 168 C 65.050781 168.003906 64.859375 167.964844 64.828125 167.910156 L 64.261719 167.003906 C 64.230469 166.949219 64.359375 166.90625 64.546875 166.902344 L 66.570312 166.855469 C 66.761719 166.851562 66.945312 166.890625 66.984375 166.941406 L 67.679688 167.855469 C 67.714844 167.90625 67.585938 167.949219 67.386719 167.953125 L 65.246094 168 " fill-opacity="1" fill-rule="nonzero"/><path fill="#ffffff" d="M 66.09375 169.320312 C 65.882812 169.328125 65.683594 169.285156 65.652344 169.234375 L 65.085938 168.328125 C 65.054688 168.277344 65.195312 168.230469 65.394531 168.226562 L 67.554688 168.183594 C 67.757812 168.179688 67.953125 168.21875 67.992188 168.269531 L 68.6875 169.179688 C 68.726562 169.230469 68.585938 169.277344 68.371094 169.28125 L 66.09375 169.320312 " fill-opacity="1" fill-rule="nonzero"/><path fill="#ffffff" d="M 66.941406 170.644531 C 66.714844 170.648438 66.507812 170.609375 66.476562 170.558594 L 65.910156 169.648438 C 65.878906 169.597656 66.027344 169.554688 66.242188 169.550781 L 68.542969 169.511719 C 68.757812 169.507812 68.964844 169.542969 69.003906 169.597656 L 69.695312 170.507812 C 69.734375 170.558594 69.585938 170.605469 69.359375 170.605469 L 66.941406 170.644531 " fill-opacity="1" fill-rule="nonzero"/><path fill="#ffffff" d="M 67.789062 171.96875 C 67.550781 171.96875 67.332031 171.929688 67.296875 171.878906 L 66.730469 170.972656 C 66.699219 170.921875 66.863281 170.875 67.089844 170.871094 L 69.527344 170.835938 C 69.757812 170.835938 69.972656 170.871094 70.011719 170.925781 L 70.707031 171.835938 C 70.742188 171.886719 70.582031 171.929688 70.34375 171.9375 L 67.789062 171.96875 " fill-opacity="1" fill-rule="nonzero"/><path fill="#ffffff" d="M 68.636719 173.289062 C 68.386719 173.292969 68.152344 173.253906 68.121094 173.203125 L 67.554688 172.292969 C 67.523438 172.242188 67.695312 172.199219 67.933594 172.195312 L 70.511719 172.164062 C 70.753906 172.160156 70.980469 172.199219 71.019531 172.25 L 71.714844 173.164062 C 71.75 173.214844 71.582031 173.257812 71.328125 173.261719 L 68.636719 173.289062 " fill-opacity="1" fill-rule="nonzero"/><path fill="#ffffff" d="M 69.480469 174.613281 C 69.21875 174.617188 68.976562 174.578125 68.945312 174.527344 L 68.378906 173.617188 C 68.347656 173.566406 68.53125 173.523438 68.78125 173.519531 L 71.5 173.492188 C 71.75 173.488281 71.988281 173.527344 72.027344 173.578125 L 72.722656 174.492188 C 72.761719 174.542969 72.578125 174.585938 72.3125 174.585938 L 69.480469 174.613281 " fill-opacity="1" fill-rule="nonzero"/><path fill="#ffffff" d="M 70.328125 175.9375 C 70.054688 175.9375 69.800781 175.898438 69.769531 175.847656 L 69.203125 174.9375 C 69.171875 174.886719 69.363281 174.84375 69.628906 174.839844 L 72.484375 174.816406 C 72.75 174.816406 73 174.855469 73.035156 174.90625 L 73.730469 175.820312 C 73.769531 175.871094 73.578125 175.910156 73.300781 175.914062 L 70.328125 175.9375 " fill-opacity="1" fill-rule="nonzero"/><path fill="#ffffff" d="M 71.175781 177.257812 C 70.886719 177.261719 70.625 177.222656 70.59375 177.167969 L 70.027344 176.261719 C 69.992188 176.210938 70.195312 176.167969 70.476562 176.164062 L 73.46875 176.144531 C 73.75 176.140625 74.007812 176.183594 74.046875 176.234375 L 74.738281 177.144531 C 74.777344 177.199219 74.574219 177.242188 74.285156 177.242188 L 71.175781 177.257812 " fill-opacity="1" fill-rule="nonzero"/><path fill="#ffffff" d="M 72.023438 178.582031 C 71.722656 178.582031 71.445312 178.546875 71.414062 178.492188 L 70.851562 177.582031 C 70.816406 177.535156 71.03125 177.488281 71.320312 177.488281 L 74.457031 177.472656 C 74.75 177.46875 75.015625 177.507812 75.058594 177.5625 L 75.75 178.472656 C 75.789062 178.523438 75.574219 178.566406 75.273438 178.570312 L 72.023438 178.582031 " fill-opacity="1" fill-rule="nonzero"/><path fill="#ffffff" d="M 72.867188 179.90625 C 72.554688 179.90625 72.269531 179.867188 72.238281 179.8125 L 71.671875 178.90625 C 71.640625 178.855469 71.867188 178.8125 72.167969 178.808594 L 75.441406 178.796875 C 75.746094 178.796875 76.027344 178.835938 76.066406 178.886719 L 76.757812 179.800781 C 76.796875 179.851562 76.574219 179.894531 76.257812 179.894531 L 72.867188 179.90625 " fill-opacity="1" fill-rule="nonzero"/><path fill="#ffffff" d="M 73.714844 181.230469 C 73.390625 181.230469 73.09375 181.191406 73.0625 181.136719 L 72.496094 180.230469 C 72.464844 180.175781 72.699219 180.136719 73.015625 180.132812 L 76.425781 180.125 C 76.746094 180.125 77.035156 180.164062 77.074219 180.214844 L 77.765625 181.125 C 77.804688 181.179688 77.570312 181.222656 77.242188 181.222656 L 73.714844 181.230469 " fill-opacity="1" fill-rule="nonzero"/><path fill="#ffffff" d="M 74.5625 182.550781 C 74.222656 182.550781 73.917969 182.511719 73.886719 182.460938 L 73.320312 181.550781 C 73.289062 181.5 73.53125 181.457031 73.863281 181.457031 L 77.410156 181.449219 C 77.742188 181.449219 78.042969 181.492188 78.082031 181.542969 L 78.777344 182.457031 C 78.816406 182.507812 78.570312 182.550781 78.226562 182.550781 L 74.5625 182.550781 " fill-opacity="1" fill-rule="nonzero"/><path fill="#ffffff" d="M 64.84375 162.59375 C 64.695312 162.597656 64.539062 162.5625 64.496094 162.511719 L 63.753906 161.597656 C 63.710938 161.546875 63.789062 161.5 63.925781 161.492188 L 64.425781 161.472656 C 64.558594 161.464844 64.710938 161.503906 64.757812 161.554688 L 65.566406 162.46875 C 65.609375 162.523438 65.527344 162.566406 65.378906 162.574219 L 64.84375 162.59375 " fill-opacity="1" fill-rule="nonzero"/><path fill="#ffffff" d="M 65.949219 163.925781 C 65.789062 163.929688 65.625 163.890625 65.582031 163.839844 L 64.835938 162.925781 C 64.792969 162.875 64.882812 162.828125 65.035156 162.824219 L 65.578125 162.804688 C 65.730469 162.796875 65.886719 162.835938 65.933594 162.886719 L 66.742188 163.800781 C 66.789062 163.855469 66.695312 163.902344 66.535156 163.90625 L 65.949219 163.925781 " fill-opacity="1" fill-rule="nonzero"/><path fill="#ffffff" d="M 67.058594 165.253906 C 66.882812 165.257812 66.710938 165.222656 66.667969 165.167969 L 65.921875 164.257812 C 65.878906 164.207031 65.976562 164.160156 66.140625 164.152344 L 66.734375 164.132812 C 66.894531 164.128906 67.066406 164.167969 67.113281 164.21875 L 67.921875 165.136719 C 67.96875 165.1875 67.863281 165.234375 67.6875 165.238281 L 67.058594 165.253906 " fill-opacity="1" fill-rule="nonzero"/><path fill="#ffffff" d="M 68.164062 166.585938 C 67.980469 166.589844 67.792969 166.550781 67.75 166.5 L 67.007812 165.585938 C 66.964844 165.535156 67.070312 165.488281 67.25 165.484375 L 67.890625 165.464844 C 68.0625 165.460938 68.246094 165.5 68.289062 165.550781 L 69.097656 166.46875 C 69.144531 166.519531 69.03125 166.5625 68.84375 166.566406 L 68.164062 166.585938 " fill-opacity="1" fill-rule="nonzero"/><path fill="#ffffff" d="M 69.273438 167.914062 C 69.074219 167.917969 68.875 167.882812 68.832031 167.828125 L 68.089844 166.914062 C 68.046875 166.863281 68.167969 166.816406 68.355469 166.8125 L 69.042969 166.796875 C 69.230469 166.792969 69.425781 166.832031 69.46875 166.882812 L 70.277344 167.800781 C 70.324219 167.851562 70.199219 167.894531 70 167.898438 L 69.273438 167.914062 " fill-opacity="1" fill-rule="nonzero"/><path fill="#ffffff" d="M 70.382812 169.246094 C 70.167969 169.25 69.960938 169.210938 69.917969 169.160156 L 69.171875 168.246094 C 69.132812 168.195312 69.261719 168.148438 69.464844 168.144531 L 70.199219 168.128906 C 70.398438 168.125 70.601562 168.164062 70.648438 168.214844 L 71.457031 169.132812 C 71.503906 169.183594 71.367188 169.230469 71.152344 169.230469 L 70.382812 169.246094 " fill-opacity="1" fill-rule="nonzero"/><path fill="#ffffff" d="M 71.488281 170.574219 C 71.261719 170.578125 71.046875 170.539062 71.003906 170.488281 L 70.257812 169.574219 C 70.214844 169.523438 70.355469 169.480469 70.570312 169.476562 L 71.351562 169.460938 C 71.566406 169.457031 71.78125 169.496094 71.824219 169.546875 L 72.632812 170.464844 C 72.679688 170.515625 72.535156 170.558594 72.308594 170.5625 L 71.488281 170.574219 " fill-opacity="1" fill-rule="nonzero"/><path fill="#ffffff" d="M 72.59375 171.90625 C 72.355469 171.910156 72.132812 171.871094 72.089844 171.816406 L 71.34375 170.90625 C 71.300781 170.851562 71.449219 170.808594 71.679688 170.804688 L 72.507812 170.792969 C 72.734375 170.789062 72.957031 170.832031 73.003906 170.878906 L 73.8125 171.796875 C 73.859375 171.847656 73.703125 171.890625 73.460938 171.894531 L 72.59375 171.90625 " fill-opacity="1" fill-rule="nonzero"/><path fill="#ffffff" d="M 73.703125 173.234375 C 73.453125 173.238281 73.214844 173.199219 73.171875 173.148438 L 72.425781 172.234375 C 72.382812 172.183594 72.546875 172.140625 72.785156 172.132812 L 73.664062 172.125 C 73.902344 172.121094 74.136719 172.160156 74.179688 172.210938 L 74.992188 173.125 C 75.039062 173.179688 74.871094 173.222656 74.617188 173.226562 L 73.703125 173.234375 " fill-opacity="1" fill-rule="nonzero"/><path fill="#ffffff" d="M 74.8125 174.566406 C 74.546875 174.570312 74.296875 174.527344 74.257812 174.476562 L 73.511719 173.5625 C 73.46875 173.511719 73.640625 173.46875 73.894531 173.464844 L 74.820312 173.457031 C 75.070312 173.453125 75.3125 173.492188 75.359375 173.542969 L 76.171875 174.460938 C 76.214844 174.511719 76.039062 174.554688 75.773438 174.558594 L 74.8125 174.566406 " fill-opacity="1" fill-rule="nonzero"/><path fill="#ffffff" d="M 75.921875 175.894531 C 75.640625 175.898438 75.382812 175.859375 75.339844 175.804688 L 74.597656 174.890625 C 74.554688 174.839844 74.734375 174.800781 75.003906 174.792969 L 75.972656 174.789062 C 76.238281 174.785156 76.492188 174.824219 76.539062 174.875 L 77.347656 175.792969 C 77.394531 175.84375 77.203125 175.886719 76.925781 175.890625 L 75.921875 175.894531 " fill-opacity="1" fill-rule="nonzero"/><path fill="#ffffff" d="M 77.027344 177.226562 C 76.734375 177.226562 76.464844 177.1875 76.425781 177.136719 L 75.679688 176.222656 C 75.640625 176.171875 75.832031 176.128906 76.109375 176.125 L 77.128906 176.121094 C 77.40625 176.117188 77.671875 176.15625 77.714844 176.210938 L 78.527344 177.125 C 78.570312 177.175781 78.375 177.21875 78.082031 177.222656 L 77.027344 177.226562 " fill-opacity="1" fill-rule="nonzero"/><path fill="#ffffff" d="M 78.132812 178.554688 C 77.832031 178.558594 77.550781 178.515625 77.507812 178.464844 L 76.765625 177.554688 C 76.722656 177.5 76.925781 177.457031 77.21875 177.457031 L 78.285156 177.449219 C 78.574219 177.449219 78.847656 177.488281 78.894531 177.539062 L 79.703125 178.457031 C 79.75 178.507812 79.539062 178.550781 79.238281 178.550781 L 78.132812 178.554688 " fill-opacity="1" fill-rule="nonzero"/><path fill="#ffffff" d="M 79.242188 179.886719 C 78.925781 179.886719 78.636719 179.847656 78.59375 179.796875 L 77.847656 178.882812 C 77.804688 178.828125 78.019531 178.789062 78.324219 178.785156 L 79.4375 178.78125 C 79.742188 178.78125 80.027344 178.820312 80.074219 178.871094 L 80.882812 179.789062 C 80.929688 179.839844 80.707031 179.882812 80.394531 179.882812 L 79.242188 179.886719 " fill-opacity="1" fill-rule="nonzero"/><path fill="#ffffff" d="M 80.351562 181.21875 C 80.019531 181.21875 79.71875 181.175781 79.675781 181.125 L 78.933594 180.210938 C 78.890625 180.160156 79.113281 180.117188 79.433594 180.117188 L 80.589844 180.113281 C 80.910156 180.109375 81.203125 180.152344 81.25 180.207031 L 82.0625 181.121094 C 82.105469 181.171875 81.875 181.214844 81.546875 181.214844 L 80.351562 181.21875 " fill-opacity="1" fill-rule="nonzero"/><path fill="#ffffff" d="M 81.457031 182.546875 C 81.113281 182.546875 80.804688 182.503906 80.761719 182.453125 L 80.019531 181.539062 C 79.976562 181.488281 80.207031 181.445312 80.539062 181.445312 L 81.746094 181.445312 C 82.078125 181.445312 82.382812 181.484375 82.429688 181.535156 L 83.238281 182.453125 C 83.285156 182.503906 83.042969 182.546875 82.703125 182.546875 L 81.457031 182.546875 " fill-opacity="1" fill-rule="nonzero"/><path fill="#ffffff" d="M 57.902344 163.03125 C 57.753906 163.035156 57.617188 162.996094 57.597656 162.945312 L 57.210938 161.875 C 57.195312 161.820312 57.292969 161.773438 57.429688 161.769531 L 59.867188 161.667969 C 60.003906 161.660156 60.140625 161.695312 60.167969 161.75 L 60.78125 162.828125 C 60.808594 162.878906 60.710938 162.925781 60.5625 162.929688 L 57.902344 163.03125 " fill-opacity="1" fill-rule="nonzero"/><path fill="#ffffff" d="M 58.332031 164.171875 C 58.171875 164.175781 58.027344 164.136719 58.007812 164.089844 L 57.746094 163.355469 C 57.726562 163.304688 57.835938 163.257812 57.988281 163.253906 L 60.6875 163.15625 C 60.839844 163.152344 60.984375 163.1875 61.015625 163.242188 L 61.433594 163.976562 C 61.460938 164.027344 61.351562 164.074219 61.191406 164.078125 L 58.332031 164.171875 " fill-opacity="1" fill-rule="nonzero"/><path fill="#ffffff" d="M 58.828125 165.484375 C 58.652344 165.488281 58.496094 165.449219 58.480469 165.402344 L 58.15625 164.5 C 58.136719 164.449219 58.253906 164.402344 58.417969 164.398438 L 61.316406 164.304688 C 61.480469 164.300781 61.636719 164.339844 61.664062 164.386719 L 62.179688 165.296875 C 62.210938 165.347656 62.089844 165.390625 61.917969 165.398438 L 58.828125 165.484375 " fill-opacity="1" fill-rule="nonzero"/><path fill="#ffffff" d="M 59.320312 166.796875 C 59.136719 166.800781 58.96875 166.765625 58.949219 166.714844 L 58.628906 165.8125 C 58.609375 165.757812 58.734375 165.714844 58.914062 165.710938 L 62.042969 165.625 C 62.21875 165.621094 62.382812 165.65625 62.414062 165.710938 L 62.925781 166.617188 C 62.957031 166.667969 62.828125 166.710938 62.644531 166.71875 L 59.320312 166.796875 " fill-opacity="1" fill-rule="nonzero"/><path fill="#ffffff" d="M 59.816406 168.109375 C 59.617188 168.117188 59.441406 168.078125 59.421875 168.027344 L 59.097656 167.125 C 59.078125 167.074219 59.21875 167.027344 59.40625 167.023438 L 62.765625 166.945312 C 62.953125 166.941406 63.132812 166.976562 63.164062 167.027344 L 63.675781 167.9375 C 63.707031 167.988281 63.566406 168.035156 63.367188 168.035156 L 59.816406 168.109375 " fill-opacity="1" fill-rule="nonzero"/><path fill="#ffffff" d="M 60.3125 169.425781 C 60.097656 169.429688 59.910156 169.390625 59.894531 169.339844 L 59.570312 168.4375 C 59.550781 168.386719 59.699219 168.339844 59.902344 168.335938 L 63.492188 168.265625 C 63.695312 168.261719 63.882812 168.300781 63.910156 168.351562 L 64.425781 169.257812 C 64.453125 169.308594 64.304688 169.351562 64.09375 169.355469 L 60.3125 169.425781 " fill-opacity="1" fill-rule="nonzero"/><path fill="#ffffff" d="M 60.804688 170.738281 C 60.582031 170.738281 60.382812 170.703125 60.363281 170.652344 L 60.039062 169.75 C 60.023438 169.699219 60.179688 169.652344 60.398438 169.652344 L 64.21875 169.585938 C 64.429688 169.582031 64.628906 169.621094 64.660156 169.671875 L 65.171875 170.578125 C 65.203125 170.628906 65.042969 170.671875 64.816406 170.675781 L 60.804688 170.738281 " fill-opacity="1" fill-rule="nonzero"/><path fill="#ffffff" d="M 61.300781 172.050781 C 61.0625 172.054688 60.851562 172.015625 60.835938 171.964844 L 60.511719 171.0625 C 60.496094 171.011719 60.664062 170.96875 60.890625 170.964844 L 64.945312 170.90625 C 65.167969 170.902344 65.378906 170.9375 65.40625 170.988281 L 65.921875 171.898438 C 65.949219 171.949219 65.78125 171.992188 65.542969 171.996094 L 61.300781 172.050781 " fill-opacity="1" fill-rule="nonzero"/><path fill="#ffffff" d="M 61.796875 173.363281 C 61.542969 173.367188 61.324219 173.328125 61.308594 173.277344 L 60.984375 172.375 C 60.964844 172.324219 61.144531 172.28125 61.386719 172.277344 L 65.667969 172.222656 C 65.90625 172.21875 66.125 172.257812 66.15625 172.3125 L 66.671875 173.21875 C 66.699219 173.269531 66.519531 173.3125 66.269531 173.316406 L 61.796875 173.363281 " fill-opacity="1" fill-rule="nonzero"/><path fill="#ffffff" d="M 62.289062 174.679688 C 62.027344 174.679688 61.796875 174.640625 61.777344 174.589844 L 61.453125 173.6875 C 61.4375 173.636719 61.628906 173.59375 61.882812 173.589844 L 66.390625 173.542969 C 66.644531 173.542969 66.875 173.582031 66.90625 173.632812 L 67.417969 174.539062 C 67.449219 174.589844 67.253906 174.632812 66.992188 174.636719 L 62.289062 174.679688 " fill-opacity="1" fill-rule="nonzero"/><path fill="#ffffff" d="M 62.785156 175.992188 C 62.507812 175.992188 62.265625 175.953125 62.25 175.902344 L 61.925781 175 C 61.90625 174.949219 62.109375 174.90625 62.375 174.90625 L 67.117188 174.863281 C 67.382812 174.863281 67.625 174.902344 67.652344 174.953125 L 68.167969 175.859375 C 68.195312 175.910156 67.992188 175.953125 67.714844 175.953125 L 62.785156 175.992188 " fill-opacity="1" fill-rule="nonzero"/><path fill="#ffffff" d="M 63.28125 177.304688 C 62.992188 177.308594 62.738281 177.265625 62.722656 177.214844 L 62.398438 176.3125 C 62.378906 176.261719 62.589844 176.21875 62.871094 176.21875 L 67.84375 176.183594 C 68.121094 176.183594 68.371094 176.21875 68.402344 176.273438 L 68.914062 177.179688 C 68.945312 177.230469 68.730469 177.273438 68.441406 177.273438 L 63.28125 177.304688 " fill-opacity="1" fill-rule="nonzero"/><path fill="#ffffff" d="M 63.773438 178.621094 C 63.472656 178.621094 63.210938 178.578125 63.191406 178.527344 L 62.867188 177.625 C 62.851562 177.578125 63.074219 177.535156 63.363281 177.53125 L 68.566406 177.503906 C 68.859375 177.503906 69.121094 177.539062 69.152344 177.59375 L 69.664062 178.5 C 69.695312 178.550781 69.46875 178.59375 69.167969 178.59375 L 63.773438 178.621094 " fill-opacity="1" fill-rule="nonzero"/><path fill="#ffffff" d="M 64.269531 179.933594 C 63.953125 179.933594 63.683594 179.894531 63.664062 179.839844 L 63.339844 178.9375 C 63.320312 178.886719 63.554688 178.847656 63.859375 178.84375 L 69.292969 178.820312 C 69.597656 178.820312 69.867188 178.863281 69.898438 178.914062 L 70.414062 179.820312 C 70.441406 179.871094 70.207031 179.914062 69.890625 179.914062 L 64.269531 179.933594 " fill-opacity="1" fill-rule="nonzero"/><path fill="#ffffff" d="M 64.761719 181.246094 C 64.433594 181.246094 64.152344 181.207031 64.132812 181.152344 L 63.808594 180.253906 C 63.792969 180.199219 64.035156 180.15625 64.351562 180.15625 L 70.015625 180.140625 C 70.332031 180.140625 70.617188 180.183594 70.644531 180.234375 L 71.160156 181.140625 C 71.191406 181.191406 70.945312 181.234375 70.617188 181.234375 L 64.761719 181.246094 " fill-opacity="1" fill-rule="nonzero"/><path fill="#ffffff" d="M 65.257812 182.558594 C 64.917969 182.558594 64.625 182.519531 64.609375 182.46875 L 64.28125 181.5625 C 64.261719 181.515625 64.519531 181.472656 64.847656 181.472656 L 70.742188 181.464844 C 71.070312 181.460938 71.367188 181.503906 71.394531 181.550781 L 71.910156 182.460938 C 71.9375 182.515625 71.683594 182.554688 71.339844 182.554688 L 65.257812 182.558594 " fill-opacity="1" fill-rule="nonzero"/><path fill="#ffffff" d="M 54.164062 163.164062 C 54.015625 163.171875 53.886719 163.136719 53.882812 163.082031 L 53.761719 162.015625 C 53.757812 161.964844 53.863281 161.921875 54 161.917969 L 56.441406 161.8125 C 56.578125 161.804688 56.703125 161.84375 56.71875 161.894531 L 57.066406 162.964844 C 57.085938 163.015625 56.976562 163.0625 56.824219 163.066406 L 54.164062 163.164062 " fill-opacity="1" fill-rule="nonzero"/><path fill="#ffffff" d="M 54.3125 164.300781 C 54.152344 164.304688 54.019531 164.269531 54.011719 164.21875 L 53.929688 163.492188 C 53.921875 163.4375 54.042969 163.394531 54.195312 163.390625 L 56.894531 163.292969 C 57.046875 163.285156 57.183594 163.324219 57.199219 163.375 L 57.4375 164.105469 C 57.453125 164.15625 57.335938 164.203125 57.175781 164.207031 L 54.3125 164.300781 " fill-opacity="1" fill-rule="nonzero"/><path fill="#ffffff" d="M 54.484375 165.605469 C 54.3125 165.609375 54.164062 165.574219 54.160156 165.523438 L 54.058594 164.625 C 54.054688 164.574219 54.179688 164.53125 54.34375 164.523438 L 57.242188 164.433594 C 57.40625 164.429688 57.550781 164.464844 57.570312 164.515625 L 57.863281 165.417969 C 57.878906 165.46875 57.75 165.511719 57.574219 165.519531 L 54.484375 165.605469 " fill-opacity="1" fill-rule="nonzero"/><path fill="#ffffff" d="M 54.65625 166.910156 C 54.472656 166.914062 54.3125 166.875 54.308594 166.824219 L 54.207031 165.929688 C 54.199219 165.878906 54.339844 165.832031 54.515625 165.828125 L 57.644531 165.742188 C 57.820312 165.742188 57.976562 165.777344 57.996094 165.828125 L 58.289062 166.726562 C 58.304688 166.78125 58.164062 166.824219 57.976562 166.828125 L 54.65625 166.910156 " fill-opacity="1" fill-rule="nonzero"/><path fill="#ffffff" d="M 54.828125 168.214844 C 54.628906 168.21875 54.460938 168.179688 54.457031 168.128906 L 54.355469 167.234375 C 54.347656 167.183594 54.5 167.136719 54.6875 167.132812 L 58.046875 167.054688 C 58.234375 167.050781 58.402344 167.089844 58.421875 167.140625 L 58.710938 168.042969 C 58.730469 168.09375 58.578125 168.136719 58.378906 168.140625 L 54.828125 168.214844 " fill-opacity="1" fill-rule="nonzero"/><path fill="#ffffff" d="M 55 169.519531 C 54.789062 169.523438 54.609375 169.484375 54.605469 169.433594 L 54.503906 168.539062 C 54.496094 168.488281 54.65625 168.441406 54.859375 168.4375 L 58.445312 168.367188 C 58.648438 168.363281 58.828125 168.398438 58.84375 168.453125 L 59.136719 169.351562 C 59.152344 169.402344 58.996094 169.445312 58.78125 169.453125 L 55 169.519531 " fill-opacity="1" fill-rule="nonzero"/><path fill="#ffffff" d="M 55.171875 170.824219 C 54.945312 170.828125 54.757812 170.789062 54.75 170.738281 L 54.648438 169.84375 C 54.644531 169.792969 54.816406 169.746094 55.03125 169.746094 L 58.847656 169.675781 C 59.066406 169.675781 59.253906 169.710938 59.269531 169.761719 L 59.5625 170.664062 C 59.578125 170.714844 59.410156 170.757812 59.179688 170.761719 L 55.171875 170.824219 " fill-opacity="1" fill-rule="nonzero"/><path fill="#ffffff" d="M 55.34375 172.128906 C 55.105469 172.128906 54.90625 172.09375 54.898438 172.042969 L 54.796875 171.144531 C 54.792969 171.09375 54.972656 171.050781 55.199219 171.046875 L 59.25 170.988281 C 59.480469 170.984375 59.679688 171.023438 59.695312 171.074219 L 59.988281 171.976562 C 60.003906 172.027344 59.820312 172.070312 59.582031 172.074219 L 55.34375 172.128906 " fill-opacity="1" fill-rule="nonzero"/><path fill="#ffffff" d="M 55.515625 173.433594 C 55.261719 173.433594 55.050781 173.398438 55.046875 173.347656 L 54.945312 172.449219 C 54.941406 172.398438 55.132812 172.355469 55.371094 172.351562 L 59.652344 172.296875 C 59.894531 172.296875 60.105469 172.335938 60.121094 172.386719 L 60.414062 173.289062 C 60.429688 173.335938 60.238281 173.382812 59.984375 173.382812 L 55.515625 173.433594 " fill-opacity="1" fill-rule="nonzero"/><path fill="#ffffff" d="M 55.683594 174.738281 C 55.421875 174.738281 55.199219 174.699219 55.195312 174.652344 L 55.09375 173.753906 C 55.089844 173.703125 55.289062 173.660156 55.542969 173.65625 L 60.054688 173.609375 C 60.308594 173.605469 60.527344 173.644531 60.546875 173.699219 L 60.835938 174.597656 C 60.851562 174.648438 60.652344 174.691406 60.386719 174.695312 L 55.683594 174.738281 " fill-opacity="1" fill-rule="nonzero"/><path fill="#ffffff" d="M 55.855469 176.042969 C 55.578125 176.042969 55.347656 176.003906 55.34375 175.953125 L 55.242188 175.058594 C 55.234375 175.007812 55.449219 174.964844 55.714844 174.960938 L 60.457031 174.921875 C 60.722656 174.917969 60.953125 174.960938 60.972656 175.007812 L 61.261719 175.910156 C 61.277344 175.960938 61.066406 176.003906 60.789062 176.007812 L 55.855469 176.042969 " fill-opacity="1" fill-rule="nonzero"/><path fill="#ffffff" d="M 56.027344 177.347656 C 55.738281 177.347656 55.496094 177.308594 55.492188 177.257812 L 55.390625 176.363281 C 55.382812 176.3125 55.605469 176.269531 55.886719 176.265625 L 60.855469 176.230469 C 61.136719 176.230469 61.378906 176.269531 61.394531 176.320312 L 61.6875 177.222656 C 61.703125 177.273438 61.480469 177.316406 61.1875 177.316406 L 56.027344 177.347656 " fill-opacity="1" fill-rule="nonzero"/><path fill="#ffffff" d="M 56.199219 178.652344 C 55.894531 178.652344 55.644531 178.609375 55.636719 178.5625 L 55.539062 177.667969 C 55.53125 177.613281 55.765625 177.570312 56.058594 177.570312 L 61.257812 177.542969 C 61.550781 177.539062 61.804688 177.582031 61.820312 177.632812 L 62.113281 178.535156 C 62.128906 178.582031 61.894531 178.625 61.589844 178.628906 L 56.199219 178.652344 " fill-opacity="1" fill-rule="nonzero"/><path fill="#ffffff" d="M 56.371094 179.957031 C 56.054688 179.957031 55.792969 179.917969 55.785156 179.867188 L 55.683594 178.96875 C 55.679688 178.917969 55.925781 178.875 56.230469 178.875 L 61.660156 178.855469 C 61.964844 178.851562 62.230469 178.890625 62.246094 178.945312 L 62.539062 179.847656 C 62.554688 179.894531 62.308594 179.9375 61.992188 179.941406 L 56.371094 179.957031 " fill-opacity="1" fill-rule="nonzero"/><path fill="#ffffff" d="M 56.519531 181.089844 C 56.195312 181.089844 55.921875 181.050781 55.914062 181 L 55.832031 180.273438 C 55.828125 180.222656 56.082031 180.183594 56.398438 180.179688 L 62.0625 180.164062 C 62.382812 180.164062 62.65625 180.207031 62.671875 180.253906 L 62.90625 180.988281 C 62.921875 181.035156 62.667969 181.078125 62.339844 181.078125 L 56.519531 181.089844 " fill-opacity="1" fill-rule="nonzero"/><path fill="#ffffff" d="M 54.40625 182.566406 C 54.066406 182.566406 53.78125 182.527344 53.78125 182.476562 L 53.730469 181.414062 C 53.730469 181.359375 53.996094 181.320312 54.328125 181.320312 L 62.410156 181.304688 C 62.742188 181.304688 63.023438 181.34375 63.039062 181.394531 L 63.386719 182.46875 C 63.402344 182.519531 63.136719 182.5625 62.796875 182.5625 L 54.40625 182.566406 " fill-opacity="1" fill-rule="nonzero"/><path fill="#ffffff" d="M 50.429688 163.300781 C 50.277344 163.308594 50.160156 163.273438 50.167969 163.222656 L 50.3125 162.164062 C 50.320312 162.113281 50.4375 162.066406 50.574219 162.0625 L 53.015625 161.957031 C 53.152344 161.953125 53.265625 161.988281 53.269531 162.039062 L 53.351562 163.105469 C 53.355469 163.15625 53.238281 163.199219 53.089844 163.203125 L 50.429688 163.300781 " fill-opacity="1" fill-rule="nonzero"/><path fill="#ffffff" d="M 50.296875 164.429688 C 50.136719 164.433594 50.007812 164.398438 50.015625 164.347656 L 50.113281 163.625 C 50.121094 163.578125 50.25 163.53125 50.402344 163.523438 L 53.101562 163.429688 C 53.253906 163.421875 53.382812 163.460938 53.386719 163.507812 L 53.441406 164.238281 C 53.445312 164.285156 53.316406 164.332031 53.15625 164.335938 L 50.296875 164.429688 " fill-opacity="1" fill-rule="nonzero"/><path fill="#ffffff" d="M 50.144531 165.726562 C 49.96875 165.730469 49.835938 165.695312 49.84375 165.644531 L 49.960938 164.753906 C 49.96875 164.703125 50.105469 164.65625 50.269531 164.652344 L 53.171875 164.5625 C 53.332031 164.554688 53.46875 164.59375 53.472656 164.644531 L 53.542969 165.539062 C 53.546875 165.589844 53.410156 165.632812 53.234375 165.640625 L 50.144531 165.726562 " fill-opacity="1" fill-rule="nonzero"/><path fill="#ffffff" d="M 49.992188 167.019531 C 49.804688 167.027344 49.660156 166.988281 49.667969 166.9375 L 49.785156 166.046875 C 49.792969 166 49.941406 165.953125 50.117188 165.949219 L 53.246094 165.863281 C 53.421875 165.859375 53.570312 165.898438 53.574219 165.945312 L 53.644531 166.84375 C 53.648438 166.894531 53.5 166.9375 53.3125 166.941406 L 49.992188 167.019531 " fill-opacity="1" fill-rule="nonzero"/><path fill="#ffffff" d="M 49.839844 168.316406 C 49.640625 168.320312 49.480469 168.285156 49.492188 168.234375 L 49.609375 167.34375 C 49.617188 167.292969 49.777344 167.25 49.964844 167.246094 L 53.328125 167.167969 C 53.515625 167.160156 53.671875 167.199219 53.675781 167.25 L 53.746094 168.144531 C 53.75 168.195312 53.59375 168.238281 53.390625 168.242188 L 49.839844 168.316406 " fill-opacity="1" fill-rule="nonzero"/><path fill="#ffffff" d="M 49.6875 169.613281 C 49.476562 169.617188 49.308594 169.578125 49.316406 169.53125 L 49.433594 168.640625 C 49.441406 168.589844 49.613281 168.546875 49.816406 168.542969 L 53.40625 168.46875 C 53.605469 168.464844 53.773438 168.503906 53.777344 168.550781 L 53.847656 169.445312 C 53.851562 169.5 53.683594 169.542969 53.46875 169.546875 L 49.6875 169.613281 " fill-opacity="1" fill-rule="nonzero"/><path fill="#ffffff" d="M 49.535156 170.910156 C 49.308594 170.914062 49.132812 170.875 49.140625 170.824219 L 49.261719 169.933594 C 49.269531 169.882812 49.449219 169.839844 49.660156 169.835938 L 53.484375 169.769531 C 53.699219 169.765625 53.875 169.804688 53.878906 169.855469 L 53.949219 170.75 C 53.953125 170.800781 53.773438 170.847656 53.546875 170.847656 L 49.535156 170.910156 " fill-opacity="1" fill-rule="nonzero"/><path fill="#ffffff" d="M 49.382812 172.203125 C 49.144531 172.207031 48.957031 172.171875 48.964844 172.117188 L 49.082031 171.230469 C 49.089844 171.179688 49.28125 171.136719 49.511719 171.132812 L 53.5625 171.070312 C 53.789062 171.070312 53.976562 171.105469 53.980469 171.15625 L 54.050781 172.054688 C 54.058594 172.101562 53.863281 172.144531 53.625 172.148438 L 49.382812 172.203125 " fill-opacity="1" fill-rule="nonzero"/><path fill="#ffffff" d="M 49.230469 173.5 C 48.980469 173.503906 48.78125 173.464844 48.789062 173.414062 L 48.910156 172.523438 C 48.917969 172.472656 49.117188 172.433594 49.359375 172.429688 L 53.640625 172.375 C 53.878906 172.371094 54.078125 172.410156 54.082031 172.460938 L 54.152344 173.355469 C 54.15625 173.40625 53.957031 173.449219 53.703125 173.453125 L 49.230469 173.5 " fill-opacity="1" fill-rule="nonzero"/><path fill="#ffffff" d="M 49.082031 174.796875 C 48.816406 174.800781 48.605469 174.761719 48.613281 174.710938 L 48.734375 173.820312 C 48.738281 173.769531 48.953125 173.726562 49.207031 173.722656 L 53.71875 173.675781 C 53.972656 173.675781 54.179688 173.710938 54.183594 173.761719 L 54.253906 174.660156 C 54.257812 174.707031 54.046875 174.75 53.78125 174.753906 L 49.082031 174.796875 " fill-opacity="1" fill-rule="nonzero"/><path fill="#ffffff" d="M 48.925781 176.09375 C 48.652344 176.09375 48.429688 176.054688 48.4375 176.003906 L 48.558594 175.113281 C 48.566406 175.066406 48.789062 175.023438 49.054688 175.019531 L 53.796875 174.980469 C 54.0625 174.976562 54.285156 175.015625 54.285156 175.066406 L 54.355469 175.960938 C 54.359375 176.011719 54.136719 176.054688 53.859375 176.054688 L 48.925781 176.09375 " fill-opacity="1" fill-rule="nonzero"/><path fill="#ffffff" d="M 48.777344 177.386719 C 48.484375 177.390625 48.253906 177.351562 48.261719 177.300781 L 48.382812 176.410156 C 48.390625 176.359375 48.625 176.316406 48.902344 176.316406 L 53.875 176.28125 C 54.152344 176.277344 54.386719 176.320312 54.386719 176.367188 L 54.460938 177.265625 C 54.460938 177.3125 54.230469 177.355469 53.941406 177.359375 L 48.777344 177.386719 " fill-opacity="1" fill-rule="nonzero"/><path fill="#ffffff" d="M 48.625 178.683594 C 48.320312 178.683594 48.078125 178.648438 48.085938 178.59375 L 48.207031 177.703125 C 48.214844 177.65625 48.457031 177.613281 48.75 177.613281 L 53.953125 177.582031 C 54.242188 177.582031 54.488281 177.621094 54.492188 177.671875 L 54.558594 178.566406 C 54.566406 178.617188 54.320312 178.660156 54.019531 178.660156 L 48.625 178.683594 " fill-opacity="1" fill-rule="nonzero"/><path fill="#ffffff" d="M 48.472656 179.980469 C 48.15625 179.980469 47.90625 179.941406 47.910156 179.890625 L 48.03125 179 C 48.039062 178.949219 48.292969 178.90625 48.597656 178.90625 L 54.03125 178.886719 C 54.335938 178.882812 54.589844 178.921875 54.59375 178.972656 L 54.664062 179.871094 C 54.667969 179.917969 54.414062 179.960938 54.09375 179.960938 L 48.472656 179.980469 " fill-opacity="1" fill-rule="nonzero"/><path fill="#ffffff" d="M 48.320312 181.277344 C 47.992188 181.277344 47.726562 181.238281 47.734375 181.183594 L 47.855469 180.296875 C 47.863281 180.246094 48.128906 180.207031 48.445312 180.203125 L 54.109375 180.1875 C 54.425781 180.1875 54.691406 180.226562 54.695312 180.277344 L 54.765625 181.171875 C 54.769531 181.222656 54.503906 181.265625 54.171875 181.265625 L 48.320312 181.277344 " fill-opacity="1" fill-rule="nonzero"/><path fill="#ffffff" d="M 48.167969 182.570312 C 47.828125 182.574219 47.554688 182.53125 47.558594 182.480469 L 47.75 181.085938 C 47.757812 181.035156 48.027344 180.992188 48.351562 180.992188 L 54.15625 180.980469 C 54.480469 180.980469 54.753906 181.019531 54.753906 181.070312 L 54.867188 182.476562 C 54.871094 182.527344 54.59375 182.566406 54.253906 182.566406 L 48.167969 182.570312 " fill-opacity="1" fill-rule="nonzero"/><path fill="#ffffff" d="M 46.691406 163.4375 C 46.542969 163.445312 46.4375 163.410156 46.453125 163.359375 L 46.863281 162.308594 C 46.882812 162.257812 47.011719 162.210938 47.148438 162.207031 L 49.585938 162.101562 C 49.722656 162.097656 49.828125 162.132812 49.820312 162.183594 L 49.636719 163.242188 C 49.628906 163.289062 49.5 163.335938 49.351562 163.34375 L 46.691406 163.4375 " fill-opacity="1" fill-rule="nonzero"/><path fill="#ffffff" d="M 46.277344 164.558594 C 46.117188 164.566406 46 164.527344 46.023438 164.480469 L 46.296875 163.761719 C 46.316406 163.710938 46.457031 163.667969 46.609375 163.660156 L 49.308594 163.5625 C 49.460938 163.558594 49.578125 163.59375 49.570312 163.648438 L 49.445312 164.363281 C 49.4375 164.417969 49.300781 164.460938 49.140625 164.46875 L 46.277344 164.558594 " fill-opacity="1" fill-rule="nonzero"/><path fill="#ffffff" d="M 45.804688 165.84375 C 45.628906 165.851562 45.5 165.816406 45.523438 165.765625 L 45.863281 164.882812 C 45.882812 164.832031 46.03125 164.785156 46.195312 164.78125 L 49.097656 164.691406 C 49.257812 164.683594 49.386719 164.722656 49.378906 164.773438 L 49.226562 165.660156 C 49.214844 165.710938 49.066406 165.753906 48.894531 165.757812 L 45.804688 165.84375 " fill-opacity="1" fill-rule="nonzero"/><path fill="#ffffff" d="M 45.328125 167.132812 C 45.140625 167.136719 45.003906 167.101562 45.023438 167.050781 L 45.367188 166.167969 C 45.382812 166.117188 45.542969 166.074219 45.722656 166.066406 L 48.851562 165.984375 C 49.027344 165.976562 49.164062 166.015625 49.15625 166.066406 L 49.003906 166.957031 C 48.996094 167.003906 48.835938 167.046875 48.648438 167.054688 L 45.328125 167.132812 " fill-opacity="1" fill-rule="nonzero"/><path fill="#ffffff" d="M 44.851562 168.417969 C 44.652344 168.425781 44.503906 168.386719 44.523438 168.339844 L 44.867188 167.453125 C 44.886719 167.402344 45.058594 167.359375 45.246094 167.355469 L 48.605469 167.277344 C 48.792969 167.269531 48.941406 167.308594 48.933594 167.359375 L 48.78125 168.25 C 48.773438 168.300781 48.601562 168.34375 48.402344 168.347656 L 44.851562 168.417969 " fill-opacity="1" fill-rule="nonzero"/><path fill="#ffffff" d="M 44.378906 169.707031 C 44.164062 169.710938 44.007812 169.675781 44.027344 169.625 L 44.367188 168.738281 C 44.386719 168.691406 44.570312 168.648438 44.773438 168.644531 L 48.363281 168.570312 C 48.5625 168.566406 48.71875 168.605469 48.710938 168.652344 L 48.558594 169.542969 C 48.550781 169.589844 48.371094 169.636719 48.160156 169.640625 L 44.378906 169.707031 " fill-opacity="1" fill-rule="nonzero"/><path fill="#ffffff" d="M 43.902344 170.996094 C 43.675781 171 43.507812 170.960938 43.527344 170.910156 L 43.871094 170.027344 C 43.886719 169.976562 44.078125 169.933594 44.296875 169.929688 L 48.117188 169.863281 C 48.332031 169.859375 48.5 169.898438 48.492188 169.945312 L 48.335938 170.835938 C 48.328125 170.886719 48.140625 170.929688 47.910156 170.933594 L 43.902344 170.996094 " fill-opacity="1" fill-rule="nonzero"/><path fill="#ffffff" d="M 43.425781 172.28125 C 43.1875 172.285156 43.007812 172.246094 43.027344 172.195312 L 43.371094 171.3125 C 43.390625 171.261719 43.59375 171.21875 43.820312 171.214844 L 47.871094 171.15625 C 48.097656 171.15625 48.277344 171.191406 48.269531 171.242188 L 48.117188 172.128906 C 48.109375 172.183594 47.90625 172.222656 47.667969 172.226562 L 43.425781 172.28125 " fill-opacity="1" fill-rule="nonzero"/><path fill="#ffffff" d="M 42.953125 173.570312 C 42.699219 173.570312 42.511719 173.535156 42.53125 173.480469 L 42.871094 172.597656 C 42.890625 172.550781 43.105469 172.507812 43.34375 172.503906 L 47.625 172.449219 C 47.867188 172.449219 48.054688 172.484375 48.046875 172.535156 L 47.894531 173.421875 C 47.886719 173.476562 47.671875 173.515625 47.421875 173.519531 L 42.953125 173.570312 " fill-opacity="1" fill-rule="nonzero"/><path fill="#ffffff" d="M 42.476562 174.855469 C 42.210938 174.859375 42.011719 174.820312 42.03125 174.769531 L 42.371094 173.886719 C 42.394531 173.835938 42.617188 173.792969 42.871094 173.789062 L 47.378906 173.742188 C 47.632812 173.742188 47.835938 173.777344 47.824219 173.828125 L 47.671875 174.71875 C 47.664062 174.769531 47.441406 174.8125 47.175781 174.8125 L 42.476562 174.855469 " fill-opacity="1" fill-rule="nonzero"/><path fill="#ffffff" d="M 42 176.140625 C 41.722656 176.144531 41.511719 176.105469 41.53125 176.054688 L 41.875 175.171875 C 41.894531 175.125 42.125 175.082031 42.394531 175.078125 L 47.132812 175.035156 C 47.402344 175.035156 47.613281 175.070312 47.605469 175.125 L 47.449219 176.011719 C 47.441406 176.0625 47.207031 176.105469 46.933594 176.105469 L 42 176.140625 " fill-opacity="1" fill-rule="nonzero"/><path fill="#ffffff" d="M 41.527344 177.429688 C 41.234375 177.433594 41.015625 177.390625 41.03125 177.34375 L 41.375 176.460938 C 41.394531 176.410156 41.636719 176.367188 41.917969 176.363281 L 46.890625 176.328125 C 47.167969 176.328125 47.390625 176.367188 47.382812 176.417969 L 47.230469 177.304688 C 47.222656 177.355469 46.976562 177.398438 46.6875 177.402344 L 41.527344 177.429688 " fill-opacity="1" fill-rule="nonzero"/><path fill="#ffffff" d="M 41.050781 178.714844 C 40.746094 178.71875 40.515625 178.679688 40.535156 178.628906 L 40.875 177.746094 C 40.894531 177.695312 41.148438 177.652344 41.445312 177.652344 L 46.644531 177.625 C 46.9375 177.621094 47.167969 177.660156 47.160156 177.710938 L 47.007812 178.601562 C 47 178.648438 46.746094 178.691406 46.441406 178.695312 L 41.050781 178.714844 " fill-opacity="1" fill-rule="nonzero"/><path fill="#ffffff" d="M 39.625 182.578125 C 39.28125 182.578125 39.019531 182.539062 39.035156 182.488281 L 40.324219 179.171875 C 40.339844 179.125 40.609375 179.082031 40.917969 179.082031 L 46.375 179.058594 C 46.679688 179.058594 46.921875 179.097656 46.914062 179.148438 L 46.34375 182.484375 C 46.335938 182.53125 46.046875 182.574219 45.707031 182.574219 L 39.625 182.578125 " fill-opacity="1" fill-rule="nonzero"/><path fill="#ffffff" d="M 35.179688 176.023438 C 34.902344 176.027344 34.703125 175.984375 34.734375 175.9375 L 40.121094 167.566406 C 40.15625 167.515625 40.332031 167.472656 40.523438 167.46875 L 43.882812 167.390625 C 44.074219 167.386719 44.210938 167.421875 44.1875 167.472656 L 40.617188 175.894531 C 40.59375 175.941406 40.355469 175.984375 40.078125 175.984375 L 35.179688 176.023438 " fill-opacity="1" fill-rule="nonzero"/><path fill="#ffffff" d="M 42.851562 163.742188 C 42.699219 163.75 42.601562 163.714844 42.632812 163.664062 L 43.414062 162.453125 C 43.445312 162.40625 43.582031 162.359375 43.71875 162.355469 L 46.160156 162.246094 C 46.296875 162.242188 46.390625 162.277344 46.371094 162.328125 L 45.851562 163.546875 C 45.832031 163.59375 45.691406 163.640625 45.539062 163.648438 L 42.851562 163.742188 " fill-opacity="1" fill-rule="nonzero"/><path fill="#ffffff" d="M 41.84375 165.355469 C 41.675781 165.359375 41.566406 165.324219 41.597656 165.273438 L 42.378906 164.066406 C 42.410156 164.015625 42.558594 163.96875 42.714844 163.964844 L 45.441406 163.867188 C 45.597656 163.863281 45.703125 163.898438 45.683594 163.949219 L 45.167969 165.167969 C 45.144531 165.214844 44.992188 165.261719 44.824219 165.265625 L 41.84375 165.355469 " fill-opacity="1" fill-rule="nonzero"/><path fill="#ffffff" d="M 40.839844 166.96875 C 40.652344 166.972656 40.53125 166.933594 40.5625 166.882812 L 41.339844 165.675781 C 41.371094 165.625 41.535156 165.578125 41.707031 165.574219 L 44.726562 165.488281 C 44.894531 165.484375 45.015625 165.519531 44.996094 165.566406 L 44.480469 166.789062 C 44.457031 166.835938 44.292969 166.882812 44.105469 166.886719 L 40.839844 166.96875 " fill-opacity="1" fill-rule="nonzero"/><path fill="#ffffff" d="M 34.101562 177.75 C 33.804688 177.753906 33.59375 177.710938 33.625 177.664062 L 34.40625 176.453125 C 34.4375 176.402344 34.6875 176.359375 34.96875 176.359375 L 39.929688 176.324219 C 40.210938 176.320312 40.417969 176.359375 40.398438 176.410156 L 39.882812 177.628906 C 39.859375 177.679688 39.605469 177.722656 39.3125 177.722656 L 34.101562 177.75 " fill-opacity="1" fill-rule="nonzero"/><path fill="#ffffff" d="M 33.09375 179.359375 C 32.78125 179.363281 32.558594 179.324219 32.589844 179.273438 L 33.367188 178.0625 C 33.402344 178.011719 33.667969 177.972656 33.960938 177.972656 L 39.214844 177.941406 C 39.507812 177.941406 39.730469 177.980469 39.710938 178.03125 L 39.195312 179.25 C 39.171875 179.296875 38.90625 179.339844 38.59375 179.339844 L 33.09375 179.359375 " fill-opacity="1" fill-rule="nonzero"/><path fill="#ffffff" d="M 32.085938 180.972656 C 31.757812 180.972656 31.523438 180.933594 31.554688 180.886719 L 32.332031 179.671875 C 32.363281 179.625 32.640625 179.582031 32.957031 179.582031 L 38.496094 179.5625 C 38.808594 179.5625 39.042969 179.601562 39.023438 179.652344 L 38.507812 180.871094 C 38.488281 180.917969 38.203125 180.957031 37.878906 180.960938 L 32.085938 180.972656 " fill-opacity="1" fill-rule="nonzero"/><path fill="#ffffff" d="M 31.078125 182.585938 C 30.734375 182.585938 30.484375 182.546875 30.515625 182.496094 L 31.296875 181.285156 C 31.328125 181.234375 31.617188 181.191406 31.949219 181.191406 L 37.78125 181.179688 C 38.109375 181.179688 38.359375 181.222656 38.335938 181.269531 L 37.820312 182.488281 C 37.796875 182.539062 37.503906 182.578125 37.160156 182.578125 L 31.078125 182.585938 " fill-opacity="1" fill-rule="nonzero"/><path fill="#ffffff" d="M 88.253906 184.222656 C 88.253906 184.898438 87.707031 185.445312 87.03125 185.445312 C 86.359375 185.445312 85.808594 184.898438 85.808594 184.222656 C 85.808594 183.546875 86.359375 183 87.03125 183 C 87.707031 183 88.253906 183.546875 88.253906 184.222656 " fill-opacity="1" fill-rule="nonzero"/><path fill="#ffffff" d="M 80.628906 185.585938 L 77.460938 185.503906 L 77.460938 184.511719 L 80.628906 184.59375 L 80.628906 185.585938 " fill-opacity="1" fill-rule="nonzero"/><path fill="#ffffff" d="M 75.007812 185.503906 L 71.839844 185.417969 L 71.839844 184.425781 L 75.007812 184.511719 L 75.007812 185.503906 " fill-opacity="1" fill-rule="nonzero"/><path fill="#ffffff" d="M 70.203125 185.339844 L 69.128906 185.253906 L 69.128906 184.261719 L 70.203125 184.34375 L 70.203125 185.339844 " fill-opacity="1" fill-rule="nonzero"/><path fill="#ffffff" d="M 63.675781 184.59375 C 63.675781 184.898438 63.429688 185.148438 63.121094 185.148438 C 62.816406 185.148438 62.566406 184.898438 62.566406 184.59375 C 62.566406 184.289062 62.816406 184.039062 63.121094 184.039062 C 63.429688 184.039062 63.675781 184.289062 63.675781 184.59375 " fill-opacity="1" fill-rule="nonzero"/><path fill="#ffffff" d="M 43.363281 184.554688 C 43.363281 184.859375 43.113281 185.105469 42.804688 185.105469 C 42.5 185.105469 42.25 184.859375 42.25 184.554688 C 42.25 184.246094 42.5 183.996094 42.804688 183.996094 C 43.113281 183.996094 43.363281 184.246094 43.363281 184.554688 " fill-opacity="1" fill-rule="nonzero"/><path fill="#ffffff" d="M 44.773438 184.769531 C 44.773438 184.980469 44.601562 185.148438 44.394531 185.148438 C 44.179688 185.148438 44.011719 184.980469 44.011719 184.769531 C 44.011719 184.558594 44.179688 184.386719 44.394531 184.386719 C 44.601562 184.386719 44.773438 184.558594 44.773438 184.769531 " fill-opacity="1" fill-rule="nonzero"/><g fill="#ffffff" fill-opacity="1"><g transform="translate(168.887137, 179.646411)"><g><path d="M 7.140625 -2.578125 C 7.140625 -2.003906 7.316406 -1.601562 7.671875 -1.375 C 8.023438 -1.144531 8.640625 -0.992188 9.515625 -0.921875 L 9.515625 0 C 6.628906 -0.113281 3.734375 -0.113281 0.828125 0 L 0.828125 -0.921875 C 1.734375 -0.992188 2.359375 -1.144531 2.703125 -1.375 C 3.054688 -1.601562 3.234375 -2.003906 3.234375 -2.578125 L 3.234375 -17.953125 C 3.234375 -18.523438 3.054688 -18.925781 2.703125 -19.15625 C 2.359375 -19.382812 1.734375 -19.535156 0.828125 -19.609375 L 0.828125 -20.53125 C 3.734375 -20.414062 6.628906 -20.414062 9.515625 -20.53125 L 9.515625 -19.609375 C 8.640625 -19.535156 8.023438 -19.382812 7.671875 -19.15625 C 7.316406 -18.925781 7.140625 -18.523438 7.140625 -17.953125 Z M 7.140625 -2.578125 "/></g></g></g><g fill="#ffffff" fill-opacity="1"><g transform="translate(179.2363, 179.646411)"><g><path d="M 16.5 -2.15625 C 16.5 -1.726562 16.695312 -1.429688 17.09375 -1.265625 C 17.488281 -1.109375 17.960938 -0.992188 18.515625 -0.921875 L 18.515625 0 C 15.929688 -0.0820312 13.34375 -0.0820312 10.75 0 L 10.75 -0.921875 C 11.320312 -0.960938 11.800781 -1.070312 12.1875 -1.25 C 12.570312 -1.425781 12.765625 -1.726562 12.765625 -2.15625 L 12.765625 -11.171875 C 12.765625 -12.390625 12.550781 -13.351562 12.125 -14.0625 C 11.707031 -14.78125 11.035156 -15.140625 10.109375 -15.140625 C 9.410156 -15.140625 8.789062 -14.941406 8.25 -14.546875 C 7.707031 -14.148438 7.265625 -13.6875 6.921875 -13.15625 C 6.585938 -12.625 6.363281 -12.140625 6.25 -11.703125 L 6.25 -2.15625 C 6.25 -1.726562 6.445312 -1.425781 6.84375 -1.25 C 7.238281 -1.070312 7.710938 -0.960938 8.265625 -0.921875 L 8.265625 0 C 5.679688 -0.113281 3.101562 -0.113281 0.53125 0 L 0.53125 -0.921875 C 1.082031 -0.992188 1.550781 -1.109375 1.9375 -1.265625 C 2.320312 -1.429688 2.515625 -1.726562 2.515625 -2.15625 L 2.515625 -12.734375 C 2.515625 -13.367188 2.335938 -13.78125 1.984375 -13.96875 C 1.628906 -14.15625 1.132812 -14.207031 0.5 -14.125 L 0.5 -15.046875 C 2.457031 -15.398438 4.128906 -16.023438 5.515625 -16.921875 C 5.847656 -16.816406 6.101562 -16.566406 6.28125 -16.171875 L 5.75 -13 L 5.921875 -13 C 6.046875 -13.28125 6.265625 -13.632812 6.578125 -14.0625 C 6.890625 -14.5 7.28125 -14.9375 7.75 -15.375 C 8.226562 -15.8125 8.800781 -16.175781 9.46875 -16.46875 C 10.144531 -16.769531 10.921875 -16.921875 11.796875 -16.921875 C 12.566406 -16.921875 13.3125 -16.757812 14.03125 -16.4375 C 14.75 -16.125 15.335938 -15.550781 15.796875 -14.71875 C 16.265625 -13.894531 16.5 -12.722656 16.5 -11.203125 Z M 16.5 -2.15625 "/></g></g></g><g fill="#ffffff" fill-opacity="1"><g transform="translate(198.248336, 179.646411)"><g><path d="M 12.921875 -4.4375 C 12.921875 -3.507812 12.664062 -2.679688 12.15625 -1.953125 C 11.65625 -1.222656 10.992188 -0.648438 10.171875 -0.234375 C 9.359375 0.179688 8.503906 0.390625 7.609375 0.390625 C 6.921875 0.390625 6.304688 0.289062 5.765625 0.09375 C 5.222656 -0.101562 4.742188 -0.296875 4.328125 -0.484375 C 3.910156 -0.671875 3.535156 -0.765625 3.203125 -0.765625 C 2.765625 -0.765625 2.515625 -0.507812 2.453125 0 L 1.390625 0 L 1.03125 -4.53125 L 1.953125 -4.53125 C 2.171875 -3.757812 2.582031 -3.082031 3.1875 -2.5 C 3.789062 -1.914062 4.460938 -1.460938 5.203125 -1.140625 C 5.941406 -0.816406 6.617188 -0.65625 7.234375 -0.65625 C 8.003906 -0.65625 8.601562 -0.875 9.03125 -1.3125 C 9.46875 -1.757812 9.6875 -2.347656 9.6875 -3.078125 C 9.6875 -3.984375 9.335938 -4.691406 8.640625 -5.203125 C 7.953125 -5.722656 7.035156 -6.269531 5.890625 -6.84375 C 5.117188 -7.238281 4.351562 -7.671875 3.59375 -8.140625 C 2.832031 -8.617188 2.207031 -9.191406 1.71875 -9.859375 C 1.226562 -10.535156 0.984375 -11.347656 0.984375 -12.296875 C 0.984375 -13.160156 1.203125 -13.929688 1.640625 -14.609375 C 2.085938 -15.296875 2.695312 -15.835938 3.46875 -16.234375 C 4.238281 -16.628906 5.109375 -16.828125 6.078125 -16.828125 C 6.785156 -16.828125 7.351562 -16.75 7.78125 -16.59375 C 8.21875 -16.4375 8.585938 -16.28125 8.890625 -16.125 C 9.203125 -15.976562 9.5 -15.90625 9.78125 -15.90625 C 10.226562 -15.90625 10.515625 -16.125 10.640625 -16.5625 L 11.609375 -16.5625 L 11.90625 -12.234375 L 11.046875 -12.234375 C 10.554688 -13.460938 9.875 -14.367188 9 -14.953125 C 8.132812 -15.546875 7.296875 -15.84375 6.484375 -15.84375 C 5.734375 -15.84375 5.140625 -15.625 4.703125 -15.1875 C 4.273438 -14.757812 4.0625 -14.203125 4.0625 -13.515625 C 4.0625 -12.765625 4.332031 -12.144531 4.875 -11.65625 C 5.414062 -11.175781 6.160156 -10.695312 7.109375 -10.21875 C 7.640625 -9.945312 8.234375 -9.648438 8.890625 -9.328125 C 9.554688 -9.015625 10.195312 -8.628906 10.8125 -8.171875 C 11.425781 -7.722656 11.929688 -7.195312 12.328125 -6.59375 C 12.722656 -5.988281 12.921875 -5.269531 12.921875 -4.4375 Z M 12.921875 -4.4375 "/></g></g></g><g fill="#ffffff" fill-opacity="1"><g transform="translate(212.003131, 179.646411)"><g><path d="M 4.4375 -19.5 C 3.882812 -19.5 3.414062 -19.691406 3.03125 -20.078125 C 2.644531 -20.460938 2.453125 -20.929688 2.453125 -21.484375 C 2.453125 -22.035156 2.644531 -22.503906 3.03125 -22.890625 C 3.414062 -23.273438 3.882812 -23.46875 4.4375 -23.46875 C 4.976562 -23.46875 5.441406 -23.273438 5.828125 -22.890625 C 6.222656 -22.503906 6.421875 -22.035156 6.421875 -21.484375 C 6.421875 -20.929688 6.222656 -20.460938 5.828125 -20.078125 C 5.441406 -19.691406 4.976562 -19.5 4.4375 -19.5 Z M 6.421875 -2.15625 C 6.421875 -1.726562 6.617188 -1.429688 7.015625 -1.265625 C 7.410156 -1.109375 7.882812 -0.992188 8.4375 -0.921875 L 8.4375 0 C 5.851562 -0.132812 3.257812 -0.132812 0.65625 0 L 0.65625 -0.921875 C 1.207031 -0.992188 1.675781 -1.109375 2.0625 -1.265625 C 2.445312 -1.429688 2.640625 -1.726562 2.640625 -2.15625 L 2.640625 -12.734375 C 2.640625 -13.367188 2.472656 -13.78125 2.140625 -13.96875 C 1.816406 -14.15625 1.347656 -14.207031 0.734375 -14.125 L 0.734375 -15.046875 C 1.648438 -15.222656 2.546875 -15.460938 3.421875 -15.765625 C 4.296875 -16.078125 5.109375 -16.460938 5.859375 -16.921875 C 6.179688 -16.796875 6.429688 -16.546875 6.609375 -16.171875 C 6.523438 -15.617188 6.472656 -14.992188 6.453125 -14.296875 C 6.429688 -13.609375 6.421875 -12.742188 6.421875 -11.703125 Z M 6.421875 -2.15625 "/></g></g></g><g fill="#ffffff" fill-opacity="1"><g transform="translate(221.095842, 179.646411)"><g><path d="M 15.609375 -16.796875 C 16.660156 -16.796875 17.1875 -16.289062 17.1875 -15.28125 C 17.1875 -14.90625 17.101562 -14.570312 16.9375 -14.28125 C 16.78125 -14 16.5 -13.859375 16.09375 -13.859375 C 15.8125 -13.859375 15.578125 -13.90625 15.390625 -14 C 15.203125 -14.101562 15 -14.15625 14.78125 -14.15625 C 14.507812 -14.15625 14.34375 -14.066406 14.28125 -13.890625 C 14.21875 -13.710938 14.226562 -13.523438 14.3125 -13.328125 C 14.425781 -12.992188 14.523438 -12.628906 14.609375 -12.234375 C 14.703125 -11.835938 14.75 -11.382812 14.75 -10.875 C 14.75 -9.726562 14.472656 -8.71875 13.921875 -7.84375 C 13.367188 -6.976562 12.609375 -6.300781 11.640625 -5.8125 C 10.671875 -5.332031 9.535156 -5.09375 8.234375 -5.09375 C 7.347656 -5.09375 6.644531 -5.175781 6.125 -5.34375 C 5.613281 -5.507812 5.132812 -5.59375 4.6875 -5.59375 C 4.269531 -5.59375 3.96875 -5.503906 3.78125 -5.328125 C 3.59375 -5.148438 3.5 -4.925781 3.5 -4.65625 C 3.5 -4.257812 3.695312 -3.957031 4.09375 -3.75 C 4.488281 -3.539062 5.140625 -3.367188 6.046875 -3.234375 L 10.1875 -2.609375 C 12.207031 -2.328125 13.722656 -1.878906 14.734375 -1.265625 C 15.753906 -0.660156 16.265625 0.253906 16.265625 1.484375 C 16.265625 2.648438 15.867188 3.65625 15.078125 4.5 C 14.285156 5.351562 13.242188 6.003906 11.953125 6.453125 C 10.660156 6.910156 9.242188 7.140625 7.703125 7.140625 C 6.378906 7.140625 5.1875 6.96875 4.125 6.625 C 3.070312 6.28125 2.226562 5.769531 1.59375 5.09375 C 0.96875 4.425781 0.65625 3.597656 0.65625 2.609375 C 0.65625 1.878906 0.835938 1.269531 1.203125 0.78125 C 1.566406 0.300781 2.101562 0.0625 2.8125 0.0625 C 3.269531 0.0625 3.65625 0.175781 3.96875 0.40625 C 4.28125 0.644531 4.4375 1.015625 4.4375 1.515625 C 4.4375 1.890625 4.378906 2.195312 4.265625 2.4375 C 4.148438 2.6875 4.09375 3.066406 4.09375 3.578125 C 4.09375 4.253906 4.425781 4.859375 5.09375 5.390625 C 5.769531 5.921875 6.785156 6.1875 8.140625 6.1875 C 9.546875 6.1875 10.726562 5.851562 11.6875 5.1875 C 12.644531 4.53125 13.125 3.628906 13.125 2.484375 C 13.125 1.773438 12.910156 1.253906 12.484375 0.921875 C 12.054688 0.597656 11.351562 0.359375 10.375 0.203125 L 4.6875 -0.796875 C 3.28125 -1.035156 2.300781 -1.425781 1.75 -1.96875 C 1.195312 -2.507812 0.921875 -3.097656 0.921875 -3.734375 C 0.921875 -4.503906 1.222656 -5.117188 1.828125 -5.578125 C 2.441406 -6.046875 3.273438 -6.269531 4.328125 -6.25 C 3.554688 -6.582031 2.882812 -7.160156 2.3125 -7.984375 C 1.738281 -8.804688 1.453125 -9.804688 1.453125 -10.984375 C 1.453125 -12.035156 1.71875 -13.003906 2.25 -13.890625 C 2.78125 -14.785156 3.535156 -15.503906 4.515625 -16.046875 C 5.492188 -16.585938 6.675781 -16.859375 8.0625 -16.859375 C 9.40625 -16.859375 10.460938 -16.625 11.234375 -16.15625 C 12.003906 -15.695312 12.632812 -15.21875 13.125 -14.71875 C 13.320312 -15.332031 13.609375 -15.832031 13.984375 -16.21875 C 14.359375 -16.601562 14.898438 -16.796875 15.609375 -16.796875 Z M 8.09375 -6.078125 C 8.863281 -6.078125 9.460938 -6.316406 9.890625 -6.796875 C 10.328125 -7.285156 10.632812 -7.910156 10.8125 -8.671875 C 10.988281 -9.429688 11.078125 -10.203125 11.078125 -10.984375 C 11.078125 -11.773438 10.988281 -12.535156 10.8125 -13.265625 C 10.632812 -14.003906 10.328125 -14.617188 9.890625 -15.109375 C 9.460938 -15.597656 8.863281 -15.84375 8.09375 -15.84375 C 7.34375 -15.84375 6.753906 -15.597656 6.328125 -15.109375 C 5.898438 -14.617188 5.59375 -14.003906 5.40625 -13.265625 C 5.21875 -12.535156 5.125 -11.773438 5.125 -10.984375 C 5.125 -10.203125 5.21875 -9.429688 5.40625 -8.671875 C 5.59375 -7.910156 5.898438 -7.285156 6.328125 -6.796875 C 6.753906 -6.316406 7.34375 -6.078125 8.09375 -6.078125 Z M 8.09375 -6.078125 "/></g></g></g><g fill="#ffffff" fill-opacity="1"><g transform="translate(238.95062, 179.646411)"><g><path d="M 16.65625 -2.15625 C 16.65625 -1.726562 16.851562 -1.429688 17.25 -1.265625 C 17.65625 -1.109375 18.132812 -0.992188 18.6875 -0.921875 L 18.6875 0 C 16.101562 -0.0820312 13.507812 -0.0820312 10.90625 0 L 10.90625 -0.921875 C 11.476562 -0.960938 11.957031 -1.070312 12.34375 -1.25 C 12.726562 -1.425781 12.921875 -1.726562 12.921875 -2.15625 L 12.921875 -11.171875 C 12.921875 -12.390625 12.707031 -13.351562 12.28125 -14.0625 C 11.851562 -14.78125 11.1875 -15.140625 10.28125 -15.140625 C 9.570312 -15.140625 8.941406 -14.941406 8.390625 -14.546875 C 7.847656 -14.148438 7.410156 -13.6875 7.078125 -13.15625 C 6.742188 -12.625 6.523438 -12.140625 6.421875 -11.703125 L 6.421875 -2.15625 C 6.421875 -1.726562 6.617188 -1.429688 7.015625 -1.265625 C 7.410156 -1.109375 7.882812 -0.992188 8.4375 -0.921875 L 8.4375 0 C 5.851562 -0.132812 3.257812 -0.132812 0.65625 0 L 0.65625 -0.921875 C 1.207031 -0.992188 1.675781 -1.109375 2.0625 -1.265625 C 2.445312 -1.429688 2.640625 -1.726562 2.640625 -2.15625 L 2.640625 -19.109375 C 2.640625 -19.722656 2.472656 -20.125 2.140625 -20.3125 C 1.816406 -20.5 1.347656 -20.550781 0.734375 -20.46875 L 0.734375 -21.390625 C 1.648438 -21.566406 2.546875 -21.804688 3.421875 -22.109375 C 4.296875 -22.421875 5.109375 -22.8125 5.859375 -23.28125 C 6.179688 -23.144531 6.429688 -22.890625 6.609375 -22.515625 C 6.523438 -21.960938 6.472656 -21.34375 6.453125 -20.65625 C 6.429688 -19.976562 6.421875 -19.117188 6.421875 -18.078125 L 6.421875 -15.046875 L 6.109375 -13 C 6.242188 -13.28125 6.457031 -13.632812 6.75 -14.0625 C 7.050781 -14.5 7.4375 -14.9375 7.90625 -15.375 C 8.382812 -15.8125 8.957031 -16.175781 9.625 -16.46875 C 10.300781 -16.769531 11.082031 -16.921875 11.96875 -16.921875 C 12.738281 -16.921875 13.484375 -16.757812 14.203125 -16.4375 C 14.921875 -16.125 15.507812 -15.550781 15.96875 -14.71875 C 16.425781 -13.894531 16.65625 -12.722656 16.65625 -11.203125 Z M 16.65625 -2.15625 "/></g></g></g><g fill="#ffffff" fill-opacity="1"><g transform="translate(258.127981, 179.646411)"><g><path d="M 9.953125 -0.953125 C 9.597656 -0.609375 9.128906 -0.320312 8.546875 -0.09375 C 7.960938 0.125 7.316406 0.234375 6.609375 0.234375 C 5.441406 0.234375 4.457031 -0.117188 3.65625 -0.828125 C 2.851562 -1.535156 2.453125 -2.703125 2.453125 -4.328125 L 2.453125 -15.4375 L 0.65625 -15.4375 L 0.65625 -16.5625 C 1.976562 -16.5625 2.960938 -16.925781 3.609375 -17.65625 C 4.265625 -18.382812 4.726562 -19.519531 5 -21.0625 L 6.1875 -21.0625 L 6.1875 -16.5625 L 9.953125 -16.5625 L 9.953125 -15.4375 L 6.1875 -15.4375 L 6.1875 -3.703125 C 6.1875 -3.015625 6.296875 -2.421875 6.515625 -1.921875 C 6.734375 -1.429688 7.1875 -1.1875 7.875 -1.1875 C 8.332031 -1.1875 8.742188 -1.289062 9.109375 -1.5 C 9.472656 -1.707031 9.753906 -1.898438 9.953125 -2.078125 Z M 9.953125 -0.953125 "/></g></g></g><g fill="#ffffff" fill-opacity="1"><g transform="translate(269.072302, 179.646411)"><g><path d="M 18.484375 -3.578125 C 18.703125 -3.023438 18.910156 -2.5625 19.109375 -2.1875 C 19.304688 -1.8125 19.597656 -1.523438 19.984375 -1.328125 C 20.367188 -1.128906 20.945312 -0.992188 21.71875 -0.921875 L 21.71875 0 C 18.71875 -0.113281 15.710938 -0.113281 12.703125 0 L 12.703125 -0.921875 C 13.796875 -1.015625 14.457031 -1.203125 14.6875 -1.484375 C 14.925781 -1.773438 14.925781 -2.25 14.6875 -2.90625 L 13.296875 -6.71875 L 6.34375 -6.71875 L 5.03125 -2.78125 C 4.800781 -2.15625 4.972656 -1.710938 5.546875 -1.453125 C 6.128906 -1.191406 6.957031 -1.015625 8.03125 -0.921875 L 8.03125 0 C 6.820312 -0.0390625 5.539062 -0.0625 4.1875 -0.0625 C 2.832031 -0.0625 1.546875 -0.0390625 0.328125 0 L 0.328125 -0.921875 C 1.429688 -1.015625 2.226562 -1.242188 2.71875 -1.609375 C 3.21875 -1.972656 3.601562 -2.523438 3.875 -3.265625 L 9.890625 -20.703125 L 12.171875 -20.703125 Z M 6.71875 -7.796875 L 12.890625 -7.796875 L 9.65625 -16.65625 Z M 6.71875 -7.796875 "/></g></g></g><g fill="#ffffff" fill-opacity="1"><g transform="translate(291.12626, 179.646411)"><g><path d="M 7.140625 -2.578125 C 7.140625 -2.003906 7.316406 -1.601562 7.671875 -1.375 C 8.023438 -1.144531 8.640625 -0.992188 9.515625 -0.921875 L 9.515625 0 C 6.628906 -0.113281 3.734375 -0.113281 0.828125 0 L 0.828125 -0.921875 C 1.734375 -0.992188 2.359375 -1.144531 2.703125 -1.375 C 3.054688 -1.601562 3.234375 -2.003906 3.234375 -2.578125 L 3.234375 -17.953125 C 3.234375 -18.523438 3.054688 -18.925781 2.703125 -19.15625 C 2.359375 -19.382812 1.734375 -19.535156 0.828125 -19.609375 L 0.828125 -20.53125 C 3.734375 -20.414062 6.628906 -20.414062 9.515625 -20.53125 L 9.515625 -19.609375 C 8.640625 -19.535156 8.023438 -19.382812 7.671875 -19.15625 C 7.316406 -18.925781 7.140625 -18.523438 7.140625 -17.953125 Z M 7.140625 -2.578125 "/></g></g></g></svg>