<svg version="1.1" id="Layer_1" xmlns="http://www.w3.org/2000/svg" xmlns:xlink="http://www.w3.org/1999/xlink" x="0px" y="0px"
	 width="100%" viewBox="0 0 496 496" enable-background="new 0 0 496 496" xml:space="preserve">
<path fill="#000000" opacity="1.000000" stroke="none" 
	d="
M296.655212,147.915344 
	C299.289185,150.068207 297.937286,152.331436 297.550232,154.542755 
	C296.929230,158.090225 297.276215,160.660614 301.955688,160.910583 
	C309.888458,161.334366 317.795532,162.238846 326.630615,163.022629 
	C325.069702,171.933960 319.622162,179.179489 317.309387,188.054565 
	C328.353424,193.138535 340.778168,193.388351 352.167664,198.090851 
	C349.823456,203.395386 344.424255,205.892715 342.034027,211.349854 
	C349.166473,214.870102 357.018341,215.159714 364.211700,218.382965 
	C362.513702,223.305695 357.048218,224.425629 354.435974,229.144928 
	C363.215820,233.812576 371.888794,238.423416 380.561768,243.034256 
	C380.468842,243.503601 380.375916,243.972961 380.282959,244.442322 
	C372.160126,246.062439 363.599243,245.341232 355.655823,248.203812 
	C355.645569,250.075516 357.138489,250.253754 358.263123,250.735565 
	C366.369507,254.208405 374.369781,257.980225 382.651276,260.971985 
	C386.966522,262.530914 388.165314,267.267822 392.348877,268.813416 
	C393.561371,269.261383 392.369324,271.261505 391.368744,272.143829 
	C388.903168,274.318115 385.984161,275.257660 382.669891,275.332764 
	C354.703125,275.966248 326.726440,276.360443 298.774902,277.413971 
	C270.133759,278.493530 241.493973,278.511566 212.860123,278.008240 
	C181.424377,277.455750 150.000290,276.242096 118.570839,275.326599 
	C116.523537,275.266968 114.622849,274.722870 112.861305,273.721527 
	C108.807281,271.417053 108.309654,269.473450 111.225899,265.882965 
	C122.454414,252.058411 133.759018,238.295609 145.055832,224.526688 
	C147.344498,221.737183 150.604370,220.823914 153.965866,220.638474 
	C168.089691,219.859375 182.216751,219.043930 196.353973,218.660416 
	C200.497452,218.548019 201.501907,217.372971 201.810104,213.259766 
	C203.239685,194.181213 205.110626,175.134872 206.935883,156.087753 
	C207.231522,153.002563 208.529373,150.624054 211.989716,149.426117 
	C225.989410,144.579391 239.874451,139.402664 253.833710,134.437439 
	C260.141449,132.193802 261.370850,133.069809 262.021973,139.769531 
	C262.894073,148.743088 262.902039,148.478348 271.798462,148.745621 
	C279.976685,148.991302 288.029358,146.936691 296.655212,147.915344 
M220.114197,151.711761 
	C210.123611,154.835922 210.128372,155.318970 209.267700,166.031479 
	C208.123993,180.266602 206.566467,194.477356 204.775482,208.646606 
	C204.169662,213.439590 205.290939,217.179459 208.593765,220.389603 
	C220.887299,232.338074 233.210495,244.256165 245.563110,256.143524 
	C247.076645,257.600067 248.545364,259.354431 251.521149,259.066437 
	C253.575531,254.726105 253.539886,249.890808 253.554428,245.157089 
	C253.642929,216.354919 253.643570,187.552338 253.588440,158.750061 
	C253.581772,155.268463 253.026779,151.790329 252.792068,148.306152 
	C252.498413,143.946777 250.523361,142.469238 246.186813,143.845840 
	C237.788086,146.511917 229.314041,148.940735 220.114197,151.711761 
M280.101044,226.701920 
	C285.938629,209.695892 289.704071,192.186798 292.653107,174.490601 
	C293.796082,167.631989 294.705475,160.732300 295.601868,153.835815 
	C295.946136,151.186996 295.136078,148.791641 291.895660,149.489365 
	C284.147919,151.157562 276.294495,150.005020 268.504822,150.695221 
	C263.558441,151.133469 262.043030,152.994034 262.065430,157.798737 
	C262.212982,189.433716 262.121704,221.069794 262.162384,252.705429 
	C262.164795,254.577026 261.517731,256.757690 264.396271,258.706604 
	C271.756958,249.330948 276.016541,238.505905 280.101044,226.701920 
M305.456329,210.892670 
	C295.961670,229.543900 285.368195,247.483246 271.480011,263.465607 
	C301.625580,248.079941 324.762604,224.549133 347.532349,200.734756 
	C345.898865,198.123901 344.147491,197.724701 342.344208,197.293167 
	C335.072937,195.553162 327.763367,193.936462 320.578857,191.885620 
	C316.703949,190.779526 314.664551,192.021301 313.094025,195.448761 
	C310.805603,200.442917 308.246796,205.313202 305.456329,210.892670 
M288.140411,236.680618 
	C302.349091,214.029907 313.930115,190.108841 324.302673,164.630768 
	C316.092957,164.141281 309.288879,163.978683 302.546143,163.249039 
	C297.968719,162.753738 296.074066,164.826447 295.563171,168.867584 
	C294.335510,178.578506 292.429626,188.169479 290.264008,197.697861 
	C285.537964,218.491974 280.201935,239.087402 268.405579,257.303284 
	C267.900726,258.082825 267.049835,258.884521 268.314362,260.720398 
	C276.508545,254.217056 282.146820,245.765854 288.140411,236.680618 
M321.835724,250.412552 
	C310.904663,257.122955 299.433624,262.788208 287.712555,267.745178 
	C287.757568,269.371765 290.211151,268.211700 289.812683,269.882843 
	C288.978394,271.714600 286.535309,270.557068 285.077515,272.438324 
	C300.503845,271.002228 314.735138,267.152405 329.101227,263.880981 
	C343.643005,260.569611 358.480652,259.861115 373.534668,260.846741 
	C365.453583,256.034302 357.109772,252.484924 348.522186,249.530609 
	C347.425232,249.153214 345.935455,249.817581 344.650574,250.102493 
	C335.834717,252.057419 327.484619,255.362381 319.229950,258.936188 
	C317.333374,259.757324 315.481781,260.757263 313.243011,260.053528 
	C331.925659,249.658768 352.431396,245.549561 373.521149,242.584137 
	C367.360626,238.766129 361.037628,235.577316 354.873138,232.106873 
	C352.287262,230.651077 350.435638,231.042892 348.099396,232.676651 
	C339.641541,238.591324 331.025085,244.279221 321.835724,250.412552 
M335.368988,238.852158 
	C343.713470,232.968292 352.057343,227.083664 360.207184,219.864044 
	C354.717560,216.943832 349.315094,216.606003 344.413300,214.801270 
	C340.273682,213.277130 337.495819,214.351273 334.338623,217.474503 
	C315.138306,236.468475 295.571289,255.060318 271.033447,267.304291 
	C270.434601,267.603119 269.334686,267.810028 269.719940,268.999878 
	C280.267883,269.514343 307.066559,258.623749 335.368988,238.852158 
M141.791565,240.237915 
	C139.558701,244.349319 135.967316,247.760895 134.786209,252.942581 
	C138.827652,253.571869 142.814590,255.384720 145.245682,251.589890 
	C147.543015,248.003830 148.780533,243.730118 150.404846,239.726654 
	C150.927338,238.438904 150.990509,237.042068 149.623672,236.150452 
	C148.109192,235.162537 146.381195,234.969559 144.976852,236.156677 
	C143.863739,237.097580 143.110428,238.464142 141.791565,240.237915 
M138.373337,262.860443 
	C137.525955,262.442017 136.678589,262.023621 135.757187,261.568634 
	C137.139557,260.259033 139.179489,261.536102 140.547668,259.692230 
	C135.119431,258.754639 130.218887,258.236115 127.225014,265.100311 
	C131.269531,264.059601 135.235901,266.394653 138.373337,262.860443 
M146.166840,267.753571 
	C147.311584,267.843597 148.458359,267.913452 149.600693,268.027740 
	C152.412460,268.308990 154.644379,266.829102 154.184799,264.291443 
	C153.528656,260.668274 149.975555,261.801727 147.643814,262.169891 
	C144.657715,262.641418 143.460861,264.590363 146.166840,267.753571 
z"/>
<path fill="#000000" opacity="1.000000" stroke="none" 
	d="
M344.787689,303.647644 
	C343.906250,302.442963 342.570435,302.006226 342.719513,300.089661 
	C347.381195,299.250305 352.065063,298.560059 357.095764,300.118988 
	C351.992004,307.203949 351.815399,325.520172 356.437500,332.293152 
	C352.980011,333.622314 332.101379,333.922577 326.186798,332.637543 
	C327.656219,329.425812 329.995728,325.489441 325.222992,323.640045 
	C322.270782,322.496094 318.242432,321.497437 315.773651,325.294342 
	C313.552307,328.710693 316.144928,330.336426 320.158142,332.337616 
	C314.903259,334.009888 310.819946,333.382355 306.932037,333.389404 
	C304.959930,333.393005 303.092865,333.268738 301.113556,333.730408 
	C295.349518,335.074860 291.898254,332.227020 291.623444,326.202118 
	C291.324554,319.649414 292.922516,312.840179 288.409515,306.676086 
	C292.569305,305.135498 294.537781,301.907440 297.045593,297.355042 
	C298.237885,302.563202 299.597107,305.989929 304.599518,306.814941 
	C296.070496,310.537384 298.563873,317.616638 298.402771,323.775848 
	C298.340302,326.163971 297.809662,329.319733 301.345734,329.679108 
	C305.255371,330.076477 309.804779,331.683380 311.748566,325.932800 
	C314.251434,318.528351 316.949036,311.188812 319.633911,303.847351 
	C320.391418,301.776001 320.468140,298.876221 323.708130,299.007446 
	C326.511566,299.121002 326.784943,301.658997 327.516937,303.633423 
	C330.177063,310.808594 332.794678,317.999451 335.457123,325.173737 
	C336.281647,327.395599 337.290283,329.651489 339.773163,330.343781 
	C342.785583,331.183716 345.490997,330.240509 345.541748,326.819946 
	C345.654724,319.202789 346.508423,311.543671 344.787689,303.647644 
M318.700562,318.840332 
	C320.569000,320.075775 322.850159,320.299927 323.740448,318.259705 
	C324.737793,315.974121 323.668884,313.573181 321.490356,311.694580 
	C319.302643,313.492645 318.612732,315.724518 318.700562,318.840332 
z"/>
<path fill="#000000" opacity="1.000000" stroke="none" 
	d="
M253.351608,340.167389 
	C247.834335,345.321777 239.383545,346.647095 233.206360,343.598969 
	C228.281143,341.168701 227.604614,337.126617 231.334122,331.517029 
	C229.410385,328.810486 228.698822,325.957153 231.108871,322.967804 
	C232.257843,321.542633 231.097031,320.121002 230.702225,318.731140 
	C228.603653,311.343323 232.660233,305.895599 240.348480,305.592834 
	C244.597229,305.425507 248.774460,307.476898 253.091324,305.813660 
	C254.168732,305.398560 255.414810,306.070282 255.914001,307.326569 
	C256.461487,308.704407 256.214264,310.089264 254.990814,310.892395 
	C252.737701,312.371368 252.318115,314.486847 252.287521,316.928558 
	C252.251312,319.818146 250.666061,321.878265 248.439301,323.570740 
	C247.181046,324.527130 245.505264,325.107117 244.819305,327.107544 
	C249.457367,330.225952 258.790222,330.269653 253.351608,340.167389 
M236.736694,333.994171 
	C236.033371,336.270325 234.222229,338.719208 237.033310,340.689117 
	C239.698502,342.556854 242.664871,342.395782 245.518677,340.980072 
	C246.922897,340.283417 247.870758,339.120087 247.842545,337.444061 
	C247.812531,335.660156 246.571579,334.894073 245.094772,334.333221 
	C242.572235,333.375244 240.004303,332.942902 236.736694,333.994171 
M244.759415,311.972168 
	C243.731628,310.232269 242.717621,308.201569 240.217636,309.153442 
	C238.152710,309.939667 237.376938,311.859406 237.349426,314.001373 
	C237.308990,317.150879 236.836807,321.256226 240.998795,321.523346 
	C245.158020,321.790375 245.173904,317.637817 245.533371,314.535126 
	C245.604141,313.924377 245.231110,313.262177 244.759415,311.972168 
z"/>
<path fill="#000000" opacity="1.000000" stroke="none" 
	d="
M260.681763,317.960205 
	C259.955444,311.353699 262.599731,304.779541 258.049561,299.323456 
	C258.884827,297.314606 260.714264,297.226898 262.190491,296.658142 
	C267.618683,294.566895 268.155396,294.857880 268.116150,300.756622 
	C268.089050,304.831146 268.770050,306.878540 273.771484,305.769531 
	C280.711456,304.230743 284.116791,307.377869 284.306335,314.491608 
	C284.390442,317.648590 284.314240,320.809631 284.328613,323.968781 
	C284.342163,326.945801 283.724304,330.143646 287.738312,331.609009 
	C283.967194,333.778107 279.320953,333.961304 274.176605,332.384796 
	C277.888794,326.777496 277.854675,320.609222 276.890533,314.343262 
	C276.568542,312.250763 275.703339,310.398956 273.222168,310.312836 
	C270.692261,310.225006 268.732452,311.851288 268.602417,314.039307 
	C268.238647,320.160828 266.421600,326.530090 270.780640,332.575897 
	C266.401733,333.951263 262.318237,333.490204 257.328552,332.897552 
	C261.669434,328.361908 260.571289,323.301025 260.681763,317.960205 
z"/>
<path fill="#000000" opacity="1.000000" stroke="none" 
	d="
M182.156799,305.649078 
	C187.866394,307.668091 187.862823,312.335938 188.215561,316.827881 
	C188.619858,321.976227 186.694977,327.520172 191.448578,332.352631 
	C186.727448,334.324982 182.451248,333.188477 176.901047,333.541290 
	C182.082214,327.540283 180.493225,321.476044 180.627670,315.671936 
	C180.690323,312.966888 179.898392,310.542755 176.682037,310.336639 
	C173.317154,310.121002 171.588150,312.609589 171.570297,315.322632 
	C171.532349,321.100403 169.501862,327.243927 174.373260,332.748505 
	C169.659988,333.914673 165.569168,333.715607 161.188614,333.084503 
	C165.540543,324.730591 165.162918,316.898163 161.544815,308.769928 
	C167.779572,304.577606 174.989227,306.314911 182.156799,305.649078 
z"/>
<path fill="#000000" opacity="1.000000" stroke="none" 
	d="
M204.487183,316.509827 
	C206.242798,317.515289 207.777298,318.224854 209.085983,319.228760 
	C211.914932,321.398926 213.643906,324.236237 212.535583,327.885284 
	C211.353836,331.776154 208.376938,333.851501 204.414703,334.242584 
	C200.950821,334.584473 197.456085,333.476654 194.229141,332.777771 
	C190.615952,331.995300 192.657791,328.316498 193.318558,325.669525 
	C196.080582,325.938293 196.811569,328.442047 198.643173,329.494720 
	C200.947189,330.818939 203.257675,331.144714 204.944748,328.995728 
	C206.969009,326.417236 204.396622,325.101440 202.762192,323.907593 
	C200.757187,322.442932 198.410034,321.448792 196.393265,319.997620 
	C193.273178,317.752563 191.802933,314.589142 193.011429,310.837494 
	C194.232391,307.047211 197.214432,305.627075 201.166199,305.599213 
	C203.811752,305.580566 206.684448,305.688416 208.968033,306.267273 
	C212.588715,307.185089 211.976654,310.499847 210.283005,313.563690 
	C206.759460,312.438934 204.336166,305.796326 200.301743,310.705566 
	C198.025879,313.474945 202.143280,314.877167 204.487183,316.509827 
z"/>
<path fill="#000000" opacity="1.000000" stroke="none" 
	d="
M158.772507,299.696381 
	C154.749603,307.002350 156.626953,314.913757 156.256180,322.542542 
	C156.080353,326.160217 155.967010,329.766144 160.653732,332.730225 
	C154.710266,333.644104 150.164398,333.695160 145.322586,332.855072 
	C150.176010,325.308899 149.989487,306.143463 144.682648,300.168823 
	C149.573944,299.327515 153.959091,298.911377 158.772507,299.696381 
z"/>
<path fill="#000000" opacity="1.000000" stroke="none" 
	d="
M224.320084,324.617584 
	C223.838837,327.939606 225.122223,330.133911 228.114532,332.615570 
	C222.911316,333.793152 218.761368,333.485779 214.341232,332.900513 
	C217.934799,324.619049 218.253204,316.955292 214.481308,308.870270 
	C217.034576,307.072906 220.058777,305.773407 224.321136,305.737549 
	C224.321136,312.014587 224.321136,318.091949 224.320084,324.617584 
z"/>
<path fill="#000000" opacity="1.000000" stroke="none" 
	d="
M218.771942,301.389160 
	C216.713165,299.378357 216.215271,297.479401 218.218292,295.638611 
	C219.576935,294.390045 221.223068,294.428558 222.708603,295.492279 
	C224.021637,296.432495 224.592361,297.837128 224.039276,299.368958 
	C223.197586,301.700104 221.633224,302.816345 218.771942,301.389160 
z"/>
</svg>