<svg xmlns="http://www.w3.org/2000/svg" xmlns:xlink="http://www.w3.org/1999/xlink" width="448" zoomAndPan="magnify" viewBox="0 0 336 74.999997" height="100" preserveAspectRatio="xMidYMid meet" version="1.0"><defs><g/></defs><path fill="#1e2433" d="M 119.640625 62.742188 C 124.523438 62.878906 125.828125 60.480469 125.347656 59.890625 L 89.089844 48.070312 C 88.609375 47.484375 86.980469 46.949219 85.453125 46.875 L 66.886719 45.992188 C 65.359375 45.917969 63.597656 46.359375 62.953125 46.980469 L 60.988281 62.328125 C 61.632812 64.9375 63.460938 63.976562 67.65625 63.976562 L 119.640625 62.742188 " fill-opacity="1" fill-rule="nonzero"/><path fill="#ffffff" d="M 119.640625 62.742188 L 119.636719 62.855469 C 119.773438 62.859375 119.90625 62.859375 120.039062 62.859375 C 122.035156 62.859375 123.40625 62.421875 124.285156 61.875 C 125.160156 61.324219 125.546875 60.667969 125.554688 60.195312 C 125.554688 60.050781 125.515625 59.921875 125.433594 59.820312 L 125.414062 59.796875 L 89.125 47.964844 L 89.089844 48.070312 L 89.179688 48 C 88.910156 47.671875 88.371094 47.394531 87.699219 47.171875 C 87.03125 46.953125 86.234375 46.800781 85.457031 46.761719 L 66.894531 45.878906 C 66.78125 45.875 66.664062 45.871094 66.550781 45.871094 C 65.820312 45.871094 65.058594 45.976562 64.402344 46.15625 C 63.75 46.339844 63.199219 46.585938 62.875 46.898438 L 62.84375 46.925781 L 60.875 62.335938 L 60.878906 62.355469 C 61.066406 63.121094 61.363281 63.609375 61.808594 63.898438 C 62.25 64.183594 62.808594 64.261719 63.507812 64.261719 C 64.539062 64.261719 65.882812 64.089844 67.65625 64.089844 L 119.644531 62.855469 L 119.640625 62.742188 L 119.636719 62.855469 L 119.640625 62.742188 L 119.636719 62.628906 L 67.652344 63.863281 L 67.65625 63.976562 L 67.65625 63.863281 C 65.871094 63.867188 64.511719 64.039062 63.507812 64.039062 C 62.824219 64.039062 62.308594 63.957031 61.929688 63.710938 C 61.550781 63.460938 61.28125 63.039062 61.097656 62.300781 L 60.988281 62.328125 L 61.101562 62.34375 L 63.0625 46.992188 L 62.953125 46.980469 L 63.03125 47.0625 C 63.304688 46.796875 63.828125 46.546875 64.464844 46.375 C 65.097656 46.199219 65.839844 46.097656 66.550781 46.097656 C 66.660156 46.097656 66.773438 46.097656 66.882812 46.105469 L 85.445312 46.988281 C 86.199219 47.023438 86.980469 47.171875 87.628906 47.386719 C 88.277344 47.597656 88.792969 47.878906 89.003906 48.140625 L 89.023438 48.167969 L 125.3125 60 L 125.347656 59.890625 L 125.261719 59.964844 C 125.300781 60.011719 125.328125 60.089844 125.328125 60.195312 C 125.332031 60.542969 125 61.164062 124.164062 61.683594 C 123.332031 62.203125 122.003906 62.632812 120.039062 62.632812 C 119.910156 62.632812 119.777344 62.632812 119.644531 62.628906 L 119.636719 62.628906 L 119.640625 62.742188 " fill-opacity="1" fill-rule="nonzero"/><path fill="#ffffff" d="M 71.304688 62.589844 C 69.230469 62.589844 67.5 62.425781 66.300781 62.117188 C 65.210938 61.835938 64.617188 61.453125 64.578125 61.003906 L 46.75 42.929688 L 93.238281 45.347656 L 123.0625 57.984375 L 122.992188 58.199219 C 122.933594 58.183594 117.230469 56.835938 109.695312 56.835938 C 104.730469 56.835938 100.089844 57.410156 95.898438 58.542969 C 86.242188 61.152344 77.503906 62.589844 71.304688 62.589844 " fill-opacity="1" fill-rule="nonzero"/><path fill="#1e2433" d="M 46.46875 42.804688 L 46.875 43.214844 L 64.472656 61.054688 C 64.628906 62.074219 67.21875 62.703125 71.304688 62.703125 C 77.515625 62.703125 86.261719 61.261719 95.929688 58.652344 C 100.109375 57.519531 104.742188 56.949219 109.695312 56.949219 C 117.214844 56.949219 122.910156 58.292969 122.964844 58.308594 L 123.105469 57.882812 L 93.300781 45.253906 L 93.265625 45.234375 L 93.226562 45.234375 L 47.046875 42.832031 Z M 47.035156 43.058594 L 93.210938 45.460938 L 123.015625 58.089844 C 123.015625 58.089844 117.335938 56.722656 109.695312 56.722656 C 105.472656 56.722656 100.65625 57.140625 95.871094 58.433594 C 84.554688 61.492188 76.421875 62.476562 71.304688 62.476562 C 66.855469 62.476562 64.6875 61.730469 64.6875 60.957031 L 47.035156 43.058594 " fill-opacity="1" fill-rule="nonzero"/><path fill="#ffffff" d="M 68.882812 62.226562 C 66.640625 62.226562 65.15625 61.8125 64.597656 61.019531 L 46.851562 43.03125 L 76.675781 26.476562 L 119.902344 48.96875 L 119.457031 48.976562 C 119.308594 48.976562 104.324219 49.3125 91.644531 55.695312 C 82.679688 60.207031 73.753906 62.226562 68.882812 62.226562 " fill-opacity="1" fill-rule="nonzero"/><path fill="#1e2433" d="M 76.671875 26.347656 L 76.566406 26.40625 L 46.925781 42.859375 L 46.667969 43.003906 L 46.875 43.214844 L 64.515625 61.101562 C 65.105469 61.914062 66.617188 62.339844 68.882812 62.339844 C 73.769531 62.339844 82.714844 60.316406 91.695312 55.792969 C 104.355469 49.425781 119.3125 49.089844 119.460938 49.089844 L 120.347656 49.074219 L 119.558594 48.664062 L 76.78125 26.40625 Z M 76.675781 26.605469 L 119.457031 48.863281 C 119.457031 48.863281 104.445312 49.125 91.59375 55.59375 C 83.105469 59.867188 74.09375 62.113281 68.882812 62.113281 C 66.738281 62.113281 65.242188 61.734375 64.6875 60.957031 L 47.035156 43.058594 L 76.675781 26.605469 " fill-opacity="1" fill-rule="nonzero"/><path fill="#ffffff" d="M 68.347656 61.027344 C 67.09375 61.027344 65.90625 60.90625 64.8125 60.667969 L 64.78125 60.660156 L 42.371094 39.558594 L 78.550781 28.800781 L 112.632812 37.941406 L 112.46875 38.078125 C 112.203125 38.308594 85.507812 61.027344 68.347656 61.027344 " fill-opacity="1" fill-rule="nonzero"/><path fill="#1e2433" d="M 78.546875 28.683594 L 78.488281 28.699219 L 42.527344 39.394531 L 42.152344 39.507812 L 42.4375 39.773438 L 64.679688 60.722656 L 64.726562 60.765625 L 64.789062 60.777344 C 65.890625 61.019531 67.085938 61.140625 68.347656 61.140625 C 77.347656 61.140625 88.890625 54.886719 96.988281 49.644531 C 105.75 43.96875 112.476562 38.222656 112.542969 38.164062 L 112.867188 37.886719 L 112.457031 37.777344 L 78.609375 28.699219 Z M 78.550781 28.917969 L 112.398438 37.996094 C 112.398438 37.996094 85.667969 60.917969 68.347656 60.917969 C 67.125 60.917969 65.953125 60.800781 64.835938 60.558594 L 42.59375 39.613281 L 78.550781 28.917969 " fill-opacity="1" fill-rule="nonzero"/><path fill="#ffffff" d="M 65.265625 60.378906 C 65.117188 60.378906 64.972656 60.378906 64.832031 60.371094 L 64.789062 60.367188 L 42.394531 39.582031 L 78.320312 21.808594 L 107.226562 28.851562 L 107.101562 28.992188 C 106.820312 29.304688 78.824219 60.378906 65.265625 60.378906 " fill-opacity="1" fill-rule="nonzero"/><path fill="#1e2433" d="M 78.308594 21.691406 L 78.234375 21.726562 L 42.492188 39.410156 L 42.199219 39.554688 L 42.4375 39.777344 L 64.683594 60.421875 L 64.742188 60.476562 L 64.824219 60.480469 C 64.96875 60.488281 65.117188 60.492188 65.265625 60.492188 C 70.992188 60.492188 79.789062 55.199219 91.417969 44.761719 C 100.054688 37.003906 107.117188 29.144531 107.1875 29.066406 L 107.4375 28.785156 L 107.074219 28.699219 L 78.386719 21.710938 Z M 78.335938 21.929688 L 107.019531 28.917969 C 107.019531 28.917969 78.929688 60.269531 65.265625 60.269531 C 65.121094 60.269531 64.980469 60.265625 64.835938 60.257812 L 42.59375 39.613281 L 78.335938 21.929688 " fill-opacity="1" fill-rule="nonzero"/><path fill="#ffffff" d="M 64.59375 60 L 42.257812 36.777344 L 57.042969 10.84375 L 96.03125 13.523438 L 95.972656 13.667969 C 95.925781 13.78125 91.285156 25.371094 85.144531 36.808594 C 76.882812 52.195312 69.984375 60 64.644531 60 L 64.59375 60 " fill-opacity="1" fill-rule="nonzero"/><path fill="#1e2433" d="M 56.980469 10.726562 L 56.910156 10.847656 L 42.203125 36.648438 L 42.121094 36.792969 L 42.238281 36.914062 L 64.480469 60.042969 L 64.546875 60.113281 L 64.644531 60.113281 C 70.027344 60.113281 76.960938 52.289062 85.242188 36.863281 C 91.390625 25.417969 96.03125 13.824219 96.078125 13.707031 L 96.191406 13.421875 L 95.882812 13.402344 L 57.121094 10.734375 Z M 57.105469 10.960938 L 95.871094 13.625 C 95.871094 13.625 77.414062 59.886719 64.644531 59.886719 L 42.398438 36.761719 L 57.105469 10.960938 " fill-opacity="1" fill-rule="nonzero"/><path fill="#ffffff" d="M 42.472656 37.167969 L 46.734375 8.542969 L 83.367188 6.820312 L 83.355469 6.949219 C 83.316406 7.378906 79.027344 50.097656 65.386719 59.980469 L 65.3125 60.035156 L 42.472656 37.167969 " fill-opacity="1" fill-rule="nonzero"/><path fill="#1e2433" d="M 83.492188 6.703125 L 83.234375 6.714844 L 46.820312 8.429688 L 46.636719 8.4375 L 46.609375 8.621094 L 42.371094 37.097656 L 42.355469 37.207031 L 42.433594 37.289062 L 65.164062 60.046875 L 65.300781 60.183594 L 65.453125 60.070312 C 71.203125 55.902344 75.984375 45.695312 79.660156 29.726562 C 82.394531 17.859375 83.457031 7.070312 83.46875 6.960938 Z M 83.246094 6.9375 C 83.246094 6.9375 79.074219 49.921875 65.324219 59.886719 L 42.59375 37.128906 L 46.832031 8.652344 L 83.246094 6.9375 " fill-opacity="1" fill-rule="nonzero"/><path fill="#1e2433" d="M 6.183594 62.742188 C 1.300781 62.878906 -0.00390625 60.480469 0.476562 59.890625 L 16.695312 43.101562 C 17.175781 42.515625 18.804688 41.980469 20.332031 41.90625 L 38.898438 41.023438 C 40.425781 40.953125 42.1875 41.394531 42.832031 42.011719 L 64.835938 62.328125 C 64.191406 64.9375 62.367188 63.976562 58.167969 63.976562 L 6.183594 62.742188 " fill-opacity="1" fill-rule="nonzero"/><path fill="#ffffff" d="M 6.183594 62.742188 L 6.179688 62.628906 C 6.042969 62.632812 5.914062 62.632812 5.785156 62.632812 C 3.820312 62.632812 2.492188 62.203125 1.660156 61.683594 C 0.824219 61.164062 0.492188 60.542969 0.496094 60.195312 C 0.496094 60.089844 0.523438 60.011719 0.5625 59.964844 L 0.476562 59.890625 L 0.558594 59.96875 L 16.777344 43.175781 L 16.78125 43.171875 C 16.992188 42.910156 17.507812 42.628906 18.15625 42.417969 C 18.804688 42.203125 19.585938 42.054688 20.339844 42.019531 L 38.902344 41.136719 C 39.011719 41.132812 39.125 41.128906 39.234375 41.128906 C 39.945312 41.128906 40.6875 41.234375 41.320312 41.40625 C 41.953125 41.582031 42.480469 41.828125 42.757812 42.09375 L 64.761719 62.414062 L 64.835938 62.328125 L 64.726562 62.300781 C 64.542969 63.039062 64.273438 63.460938 63.894531 63.710938 C 63.515625 63.957031 63 64.039062 62.316406 64.039062 C 61.3125 64.039062 59.953125 63.867188 58.167969 63.863281 L 58.167969 63.976562 L 58.167969 63.863281 L 6.179688 62.628906 L 6.183594 62.742188 L 6.179688 62.855469 L 58.164062 64.089844 L 58.167969 64.089844 C 59.941406 64.089844 61.285156 64.261719 62.316406 64.261719 C 63.015625 64.261719 63.574219 64.183594 64.015625 63.898438 C 64.460938 63.609375 64.757812 63.121094 64.945312 62.355469 L 64.960938 62.292969 L 42.910156 41.929688 L 42.832031 42.011719 L 42.914062 41.929688 C 42.589844 41.621094 42.035156 41.371094 41.378906 41.191406 C 40.726562 41.011719 39.964844 40.90625 39.234375 40.90625 C 39.117188 40.90625 39.003906 40.90625 38.890625 40.914062 L 20.328125 41.792969 C 19.554688 41.832031 18.753906 41.984375 18.085938 42.203125 C 17.414062 42.425781 16.875 42.703125 16.605469 43.03125 L 16.695312 43.101562 L 16.613281 43.023438 L 0.390625 59.816406 L 0.390625 59.820312 C 0.308594 59.921875 0.269531 60.050781 0.269531 60.195312 C 0.273438 60.667969 0.664062 61.324219 1.539062 61.875 C 2.417969 62.421875 3.789062 62.859375 5.785156 62.859375 C 5.914062 62.859375 6.046875 62.859375 6.1875 62.855469 L 6.183594 62.742188 L 6.179688 62.855469 L 6.183594 62.742188 " fill-opacity="1" fill-rule="nonzero"/><path fill="#1e2433" d="M 64.664062 60.082031 C 64.703125 60.003906 64.6875 59.921875 64.597656 59.835938 L 64.460938 59.707031 C 64.234375 59.355469 63.902344 59.011719 63.425781 58.714844 L 42.832031 38.988281 C 42.1875 38.371094 40.425781 37.929688 38.898438 38 L 20.332031 38.882812 C 18.804688 38.957031 17.175781 39.492188 16.695312 40.082031 L 0.476562 59.890625 C -0.00390625 60.480469 3.011719 60.957031 7.207031 60.957031 L 57.105469 60.957031 C 61.355469 61.507812 60.195312 63.933594 62.714844 63.960938 C 63.804688 63.972656 64.636719 63.402344 64.835938 62.328125 C 64.902344 61.96875 65.09375 61.027344 64.664062 60.082031 " fill-opacity="1" fill-rule="nonzero"/><path fill="#ffffff" d="M 64.664062 60.082031 L 64.769531 60.128906 C 64.785156 60.089844 64.796875 60.046875 64.796875 60.003906 C 64.796875 59.910156 64.75 59.824219 64.675781 59.753906 L 64.539062 59.625 L 64.460938 59.707031 L 64.558594 59.644531 C 64.320312 59.277344 63.972656 58.925781 63.488281 58.617188 L 63.425781 58.714844 L 63.503906 58.632812 L 42.914062 38.910156 C 42.585938 38.601562 42.035156 38.351562 41.378906 38.167969 C 40.722656 37.988281 39.960938 37.882812 39.230469 37.882812 C 39.117188 37.882812 39.003906 37.882812 38.890625 37.886719 L 20.328125 38.773438 C 19.554688 38.808594 18.753906 38.960938 18.085938 39.183594 C 17.414062 39.40625 16.875 39.683594 16.605469 40.007812 L 0.390625 59.820312 C 0.34375 59.875 0.3125 59.941406 0.3125 60.015625 C 0.316406 60.136719 0.394531 60.226562 0.492188 60.300781 C 0.667969 60.421875 0.953125 60.523438 1.347656 60.617188 C 2.519531 60.890625 4.640625 61.066406 7.207031 61.066406 L 57.105469 61.066406 L 57.105469 60.957031 L 57.085938 61.066406 C 59.195312 61.34375 59.921875 62.058594 60.472656 62.726562 C 60.746094 63.0625 60.972656 63.390625 61.304688 63.648438 C 61.632812 63.902344 62.066406 64.070312 62.710938 64.074219 L 62.738281 64.074219 C 63.296875 64.074219 63.796875 63.925781 64.1875 63.636719 C 64.574219 63.34375 64.84375 62.90625 64.945312 62.351562 C 64.980469 62.167969 65.046875 61.820312 65.046875 61.402344 C 65.046875 60.996094 64.984375 60.519531 64.769531 60.035156 L 64.664062 60.082031 L 64.769531 60.128906 L 64.664062 60.082031 L 64.5625 60.128906 C 64.765625 60.574219 64.824219 61.019531 64.824219 61.402344 C 64.824219 61.800781 64.761719 62.125 64.726562 62.308594 C 64.628906 62.816406 64.390625 63.195312 64.050781 63.457031 C 63.707031 63.710938 63.261719 63.847656 62.738281 63.847656 L 62.714844 63.847656 C 62.101562 63.84375 61.734375 63.695312 61.441406 63.46875 C 61 63.132812 60.726562 62.585938 60.160156 62.058594 C 59.589844 61.535156 58.726562 61.050781 57.117188 60.84375 L 7.207031 60.84375 C 5.261719 60.84375 3.570312 60.742188 2.371094 60.570312 C 1.769531 60.488281 1.292969 60.386719 0.972656 60.277344 C 0.816406 60.226562 0.695312 60.167969 0.625 60.117188 C 0.550781 60.0625 0.539062 60.023438 0.539062 60.015625 L 0.5625 59.964844 L 16.78125 40.152344 C 16.992188 39.886719 17.507812 39.605469 18.15625 39.394531 C 18.804688 39.183594 19.585938 39.03125 20.339844 38.996094 L 38.902344 38.113281 C 39.011719 38.109375 39.117188 38.105469 39.230469 38.105469 C 39.941406 38.105469 40.683594 38.210938 41.320312 38.386719 C 41.953125 38.558594 42.480469 38.808594 42.757812 39.070312 L 63.355469 58.804688 L 63.367188 58.808594 C 63.828125 59.101562 64.148438 59.429688 64.367188 59.769531 L 64.375 59.777344 L 64.519531 59.917969 C 64.566406 59.960938 64.570312 59.988281 64.574219 60.003906 L 64.5625 60.035156 L 64.542969 60.082031 L 64.5625 60.128906 L 64.664062 60.082031 " fill-opacity="1" fill-rule="nonzero"/><path fill="#1e2433" d="M 14.414062 62.824219 L 6.179688 62.628906 C 6.042969 62.632812 5.914062 62.632812 5.785156 62.632812 C 5.136719 62.632812 4.558594 62.589844 4.046875 62.507812 L 4.046875 62.089844 L 12.679688 62.304688 L 14.414062 62.824219 " fill-opacity="1" fill-rule="nonzero"/><path fill="#000000" d="M 14.824219 62.949219 L 6.183594 62.742188 C 6.046875 62.746094 5.917969 62.746094 5.789062 62.746094 C 5.144531 62.746094 4.5625 62.699219 4.046875 62.621094 L 4.046875 62.507812 C 4.558594 62.589844 5.136719 62.632812 5.785156 62.632812 C 5.914062 62.632812 6.042969 62.632812 6.179688 62.628906 L 14.414062 62.824219 L 14.824219 62.949219 " fill-opacity="1" fill-rule="nonzero"/><path fill="#1e2433" d="M 65.28125 60.113281 C 65.054688 60.113281 64.808594 60.054688 64.554688 59.9375 L 64.53125 59.929688 L 44.171875 37.707031 C 43.566406 37.210938 43.023438 35.578125 42.949219 34 L 45.164062 10.796875 C 45.128906 10.101562 44.800781 9.601562 44.535156 9.195312 C 44.246094 8.753906 43.996094 8.375 44.375 7.980469 L 44.394531 7.960938 L 66.3125 0.117188 C 66.363281 0.109375 66.390625 0.109375 66.410156 0.109375 C 67.140625 0.109375 67.347656 1.054688 67.449219 1.878906 C 67.582031 2.980469 67.582031 4.601562 67.582031 6.652344 L 67.582031 51.921875 C 67.582031 55.4375 67.34375 60.113281 65.28125 60.113281 " fill-opacity="1" fill-rule="nonzero"/><path fill="#ffffff" d="M 66.410156 -0.00390625 L 66.332031 0 L 66.300781 0.00390625 L 66.273438 0.0117188 L 44.382812 7.84375 L 44.332031 7.863281 L 44.296875 7.902344 C 43.855469 8.363281 44.152344 8.820312 44.441406 9.257812 C 44.699219 9.648438 45.015625 10.128906 45.050781 10.804688 L 42.839844 33.972656 L 42.839844 34.003906 C 42.914062 35.601562 43.46875 37.261719 44.101562 37.792969 L 64.433594 59.988281 L 64.464844 60.023438 L 64.507812 60.042969 C 64.777344 60.164062 65.039062 60.226562 65.28125 60.226562 C 67.441406 60.226562 67.691406 55.488281 67.691406 51.921875 L 67.691406 6.65625 C 67.691406 4.597656 67.691406 2.972656 67.558594 1.867188 C 67.453125 0.996094 67.230469 -0.00390625 66.410156 -0.00390625 Z M 66.410156 0.222656 C 67.46875 0.21875 67.46875 2.535156 67.46875 6.65625 L 67.46875 51.921875 C 67.46875 55.703125 67.160156 60 65.28125 60 C 65.074219 60 64.847656 59.949219 64.597656 59.835938 L 44.257812 37.632812 C 43.671875 37.152344 43.136719 35.523438 43.0625 33.992188 L 45.277344 10.808594 C 45.203125 9.277344 43.839844 8.703125 44.457031 8.058594 L 66.347656 0.226562 L 66.410156 0.222656 " fill-opacity="1" fill-rule="nonzero"/><path fill="#1e2433" d="M 65.660156 53.105469 C 65.660156 57.304688 65.1875 60.316406 64.597656 59.835938 L 42.449219 38.816406 C 41.863281 38.335938 41.328125 36.707031 41.257812 35.179688 L 43.472656 11.996094 C 43.398438 10.464844 43.839844 8.703125 44.457031 8.058594 L 64.542969 1.410156 C 65.660156 1.320312 65.660156 3.640625 65.660156 7.839844 L 65.660156 53.105469 " fill-opacity="1" fill-rule="nonzero"/><path fill="#ffffff" d="M 65.660156 53.105469 L 65.550781 53.105469 C 65.550781 55.054688 65.445312 56.746094 65.277344 57.945312 C 65.195312 58.542969 65.09375 59.023438 64.984375 59.339844 C 64.929688 59.5 64.875 59.617188 64.820312 59.691406 C 64.769531 59.765625 64.730469 59.777344 64.722656 59.773438 L 64.671875 59.75 L 64.597656 59.835938 L 64.675781 59.753906 L 42.523438 38.730469 C 42.261719 38.519531 41.980469 38.003906 41.769531 37.355469 C 41.554688 36.707031 41.40625 35.925781 41.371094 35.171875 L 41.257812 35.179688 L 41.367188 35.1875 L 43.582031 11.996094 L 43.582031 11.988281 C 43.578125 11.878906 43.574219 11.769531 43.574219 11.660156 C 43.574219 10.949219 43.679688 10.207031 43.855469 9.570312 C 44.027344 8.9375 44.273438 8.410156 44.539062 8.136719 L 44.457031 8.058594 L 44.492188 8.164062 L 64.578125 1.515625 L 64.542969 1.410156 L 64.550781 1.519531 L 64.605469 1.519531 C 64.714844 1.519531 64.804688 1.546875 64.886719 1.605469 C 65.03125 1.707031 65.160156 1.914062 65.253906 2.238281 C 65.546875 3.210938 65.550781 5.136719 65.550781 7.839844 L 65.550781 53.105469 L 65.773438 53.105469 L 65.773438 7.839844 C 65.773438 5.78125 65.777344 4.171875 65.640625 3.066406 C 65.574219 2.511719 65.476562 2.082031 65.316406 1.78125 C 65.234375 1.628906 65.136719 1.507812 65.015625 1.421875 C 64.898438 1.335938 64.753906 1.292969 64.605469 1.292969 L 64.53125 1.296875 L 64.519531 1.296875 L 44.394531 7.960938 L 44.375 7.980469 C 44.066406 8.304688 43.816406 8.855469 43.636719 9.511719 C 43.457031 10.167969 43.351562 10.925781 43.351562 11.660156 C 43.351562 11.773438 43.351562 11.886719 43.359375 12 L 43.472656 11.996094 L 43.359375 11.984375 L 41.144531 35.175781 L 41.144531 35.183594 C 41.179688 35.957031 41.335938 36.757812 41.554688 37.425781 C 41.777344 38.09375 42.054688 38.632812 42.378906 38.902344 L 42.449219 38.816406 L 42.375 38.898438 L 64.523438 59.921875 L 64.527344 59.921875 C 64.582031 59.96875 64.648438 60 64.722656 60 C 64.84375 59.996094 64.933594 59.921875 65.003906 59.820312 C 65.128906 59.644531 65.230469 59.359375 65.324219 58.96875 C 65.597656 57.796875 65.773438 55.675781 65.773438 53.105469 L 65.660156 53.105469 " fill-opacity="1" fill-rule="nonzero"/><path fill="#ffffff" d="M 64.191406 51.304688 C 64.191406 55.203125 63.761719 58.003906 63.226562 57.558594 L 43.15625 38.03125 C 42.625 37.582031 42.136719 36.070312 42.070312 34.652344 L 44.371094 12.785156 C 44.300781 11.363281 44.703125 9.726562 45.265625 9.128906 L 63.179688 3.683594 C 63.925781 3.898438 64.191406 5.757812 64.191406 9.660156 L 64.191406 51.304688 " fill-opacity="1" fill-rule="nonzero"/><path fill="#ffffff" d="M 37.53125 40.164062 C 37.382812 40.171875 37.238281 40.136719 37.207031 40.085938 L 36.640625 39.175781 C 36.605469 39.125 36.695312 39.074219 36.832031 39.074219 L 38.300781 39.011719 C 38.4375 39.003906 38.582031 39.042969 38.617188 39.089844 L 39.3125 40.003906 C 39.351562 40.054688 39.261719 40.101562 39.113281 40.105469 L 37.53125 40.164062 " fill-opacity="1" fill-rule="nonzero"/><path fill="#ffffff" d="M 38.378906 41.488281 C 38.21875 41.496094 38.058594 41.457031 38.027344 41.40625 L 37.464844 40.496094 C 37.429688 40.449219 37.527344 40.398438 37.675781 40.394531 L 39.285156 40.335938 C 39.4375 40.332031 39.589844 40.367188 39.628906 40.417969 L 40.320312 41.332031 C 40.359375 41.382812 40.261719 41.429688 40.101562 41.433594 L 38.378906 41.488281 " fill-opacity="1" fill-rule="nonzero"/><path fill="#ffffff" d="M 39.222656 42.8125 C 39.050781 42.820312 38.882812 42.78125 38.851562 42.730469 L 38.285156 41.820312 C 38.253906 41.769531 38.363281 41.722656 38.523438 41.71875 L 40.269531 41.664062 C 40.433594 41.65625 40.597656 41.695312 40.636719 41.746094 L 41.332031 42.660156 C 41.371094 42.710938 41.261719 42.757812 41.085938 42.761719 L 39.222656 42.8125 " fill-opacity="1" fill-rule="nonzero"/><path fill="#ffffff" d="M 40.070312 44.132812 C 39.886719 44.140625 39.707031 44.101562 39.675781 44.050781 L 39.109375 43.140625 C 39.078125 43.089844 39.195312 43.046875 39.371094 43.039062 L 41.257812 42.992188 C 41.433594 42.984375 41.605469 43.023438 41.644531 43.074219 L 42.339844 43.984375 C 42.375 44.039062 42.257812 44.082031 42.070312 44.089844 L 40.070312 44.132812 " fill-opacity="1" fill-rule="nonzero"/><path fill="#ffffff" d="M 40.917969 45.460938 C 40.71875 45.464844 40.53125 45.425781 40.5 45.371094 L 39.933594 44.464844 C 39.898438 44.410156 40.027344 44.367188 40.21875 44.363281 L 42.242188 44.316406 C 42.429688 44.3125 42.613281 44.351562 42.65625 44.402344 L 43.347656 45.316406 C 43.386719 45.367188 43.257812 45.410156 43.058594 45.414062 L 40.917969 45.460938 " fill-opacity="1" fill-rule="nonzero"/><path fill="#ffffff" d="M 41.765625 46.78125 C 41.554688 46.789062 41.351562 46.746094 41.320312 46.695312 L 40.757812 45.789062 C 40.722656 45.738281 40.863281 45.691406 41.0625 45.6875 L 43.226562 45.644531 C 43.429688 45.640625 43.625 45.679688 43.664062 45.730469 L 44.355469 46.640625 C 44.398438 46.691406 44.253906 46.738281 44.042969 46.742188 L 41.765625 46.78125 " fill-opacity="1" fill-rule="nonzero"/><path fill="#ffffff" d="M 42.609375 48.105469 C 42.386719 48.109375 42.179688 48.070312 42.144531 48.019531 L 41.578125 47.109375 C 41.546875 47.058594 41.699219 47.011719 41.910156 47.011719 L 44.210938 46.972656 C 44.429688 46.96875 44.632812 47.003906 44.671875 47.058594 L 45.367188 47.96875 C 45.402344 48.019531 45.253906 48.066406 45.027344 48.066406 L 42.609375 48.105469 " fill-opacity="1" fill-rule="nonzero"/><path fill="#ffffff" d="M 43.457031 49.429688 C 43.222656 49.429688 43 49.390625 42.96875 49.339844 L 42.402344 48.433594 C 42.371094 48.382812 42.53125 48.335938 42.757812 48.332031 L 45.199219 48.296875 C 45.425781 48.296875 45.640625 48.332031 45.679688 48.386719 L 46.375 49.296875 C 46.414062 49.347656 46.253906 49.390625 46.011719 49.398438 L 43.457031 49.429688 " fill-opacity="1" fill-rule="nonzero"/><path fill="#ffffff" d="M 44.304688 50.75 C 44.054688 50.753906 43.824219 50.714844 43.792969 50.664062 L 43.226562 49.753906 C 43.195312 49.703125 43.367188 49.660156 43.605469 49.65625 L 46.183594 49.625 C 46.425781 49.621094 46.652344 49.660156 46.691406 49.710938 L 47.382812 50.625 C 47.421875 50.675781 47.25 50.71875 47 50.722656 L 44.304688 50.75 " fill-opacity="1" fill-rule="nonzero"/><path fill="#ffffff" d="M 45.152344 52.074219 C 44.890625 52.078125 44.648438 52.035156 44.613281 51.988281 L 44.046875 51.078125 C 44.019531 51.027344 44.199219 50.984375 44.449219 50.980469 L 47.167969 50.949219 C 47.421875 50.949219 47.660156 50.988281 47.699219 51.039062 L 48.394531 51.953125 C 48.429688 52.003906 48.25 52.046875 47.984375 52.046875 L 45.152344 52.074219 " fill-opacity="1" fill-rule="nonzero"/><path fill="#ffffff" d="M 46 53.398438 C 45.722656 53.398438 45.472656 53.359375 45.4375 53.308594 L 44.871094 52.398438 C 44.839844 52.347656 45.035156 52.304688 45.296875 52.300781 L 48.152344 52.277344 C 48.421875 52.277344 48.667969 52.316406 48.707031 52.367188 L 49.402344 53.28125 C 49.441406 53.328125 49.246094 53.371094 48.96875 53.375 L 46 53.398438 " fill-opacity="1" fill-rule="nonzero"/><path fill="#ffffff" d="M 46.84375 54.71875 C 46.558594 54.722656 46.292969 54.683594 46.261719 54.628906 L 45.695312 53.722656 C 45.664062 53.671875 45.867188 53.628906 46.144531 53.625 L 49.140625 53.605469 C 49.421875 53.601562 49.675781 53.644531 49.71875 53.695312 L 50.410156 54.605469 C 50.449219 54.660156 50.246094 54.703125 49.953125 54.703125 L 46.84375 54.71875 " fill-opacity="1" fill-rule="nonzero"/><path fill="#ffffff" d="M 47.691406 56.042969 C 47.390625 56.042969 47.117188 56.007812 47.085938 55.953125 L 46.519531 55.042969 C 46.488281 54.996094 46.699219 54.949219 46.988281 54.949219 L 50.125 54.929688 C 50.417969 54.929688 50.6875 54.96875 50.726562 55.023438 L 51.417969 55.933594 C 51.457031 55.984375 51.246094 56.027344 50.941406 56.03125 L 47.691406 56.042969 " fill-opacity="1" fill-rule="nonzero"/><path fill="#ffffff" d="M 48.539062 57.367188 C 48.226562 57.367188 47.941406 57.328125 47.910156 57.273438 L 47.34375 56.367188 C 47.3125 56.316406 47.535156 56.273438 47.835938 56.269531 L 51.109375 56.257812 C 51.414062 56.257812 51.695312 56.296875 51.734375 56.347656 L 52.429688 57.261719 C 52.46875 57.3125 52.242188 57.355469 51.925781 57.355469 L 48.539062 57.367188 " fill-opacity="1" fill-rule="nonzero"/><path fill="#ffffff" d="M 49.386719 58.691406 C 49.058594 58.691406 48.765625 58.652344 48.730469 58.597656 L 48.167969 57.691406 C 48.132812 57.636719 48.367188 57.597656 48.683594 57.59375 L 52.097656 57.585938 C 52.414062 57.585938 52.703125 57.625 52.742188 57.675781 L 53.4375 58.585938 C 53.476562 58.640625 53.242188 58.683594 52.910156 58.683594 L 49.386719 58.691406 " fill-opacity="1" fill-rule="nonzero"/><path fill="#ffffff" d="M 50.234375 60.011719 C 49.894531 60.011719 49.589844 59.972656 49.554688 59.921875 L 48.988281 59.011719 C 48.957031 58.960938 49.203125 58.917969 49.53125 58.917969 L 53.082031 58.910156 C 53.414062 58.910156 53.714844 58.953125 53.75 59.003906 L 54.445312 59.917969 C 54.484375 59.96875 54.238281 60.011719 53.898438 60.011719 L 50.234375 60.011719 " fill-opacity="1" fill-rule="nonzero"/><path fill="#ffffff" d="M 40.511719 40.054688 C 40.363281 40.058594 40.210938 40.023438 40.167969 39.972656 L 39.421875 39.058594 C 39.382812 39.007812 39.460938 38.960938 39.597656 38.953125 L 40.09375 38.933594 C 40.230469 38.925781 40.378906 38.964844 40.425781 39.015625 L 41.234375 39.929688 C 41.28125 39.984375 41.199219 40.027344 41.050781 40.035156 L 40.511719 40.054688 " fill-opacity="1" fill-rule="nonzero"/><path fill="#ffffff" d="M 41.621094 41.386719 C 41.457031 41.390625 41.292969 41.351562 41.253906 41.300781 L 40.507812 40.386719 C 40.464844 40.335938 40.554688 40.289062 40.703125 40.285156 L 41.25 40.265625 C 41.398438 40.257812 41.558594 40.296875 41.601562 40.347656 L 42.414062 41.261719 C 42.457031 41.316406 42.363281 41.363281 42.203125 41.367188 L 41.621094 41.386719 " fill-opacity="1" fill-rule="nonzero"/><path fill="#ffffff" d="M 42.726562 42.714844 C 42.554688 42.71875 42.378906 42.683594 42.335938 42.628906 L 41.59375 41.71875 C 41.550781 41.664062 41.648438 41.621094 41.8125 41.613281 L 42.402344 41.59375 C 42.566406 41.589844 42.738281 41.628906 42.78125 41.679688 L 43.59375 42.597656 C 43.636719 42.648438 43.535156 42.691406 43.359375 42.699219 L 42.726562 42.714844 " fill-opacity="1" fill-rule="nonzero"/><path fill="#ffffff" d="M 43.835938 44.046875 C 43.648438 44.050781 43.460938 44.011719 43.421875 43.960938 L 42.675781 43.046875 C 42.632812 42.996094 42.742188 42.949219 42.917969 42.945312 L 43.558594 42.925781 C 43.734375 42.921875 43.914062 42.960938 43.960938 43.011719 L 44.769531 43.925781 C 44.816406 43.980469 44.699219 44.023438 44.515625 44.027344 L 43.835938 44.046875 " fill-opacity="1" fill-rule="nonzero"/><path fill="#ffffff" d="M 44.941406 45.375 C 44.742188 45.378906 44.546875 45.34375 44.503906 45.289062 L 43.757812 44.375 C 43.71875 44.324219 43.835938 44.277344 44.027344 44.273438 L 44.714844 44.257812 C 44.902344 44.253906 45.09375 44.292969 45.136719 44.34375 L 45.949219 45.261719 C 45.992188 45.3125 45.871094 45.355469 45.667969 45.359375 L 44.941406 45.375 " fill-opacity="1" fill-rule="nonzero"/><path fill="#ffffff" d="M 46.050781 46.703125 C 45.839844 46.710938 45.632812 46.671875 45.589844 46.621094 L 44.84375 45.707031 C 44.800781 45.65625 44.929688 45.609375 45.132812 45.605469 L 45.867188 45.589844 C 46.070312 45.585938 46.269531 45.625 46.316406 45.675781 L 47.125 46.59375 C 47.171875 46.644531 47.035156 46.6875 46.824219 46.691406 L 46.050781 46.703125 " fill-opacity="1" fill-rule="nonzero"/><path fill="#ffffff" d="M 47.160156 48.035156 C 46.933594 48.039062 46.71875 48 46.675781 47.949219 L 45.929688 47.035156 C 45.886719 46.984375 46.027344 46.9375 46.242188 46.9375 L 47.023438 46.921875 C 47.238281 46.917969 47.449219 46.957031 47.496094 47.007812 L 48.304688 47.921875 C 48.351562 47.976562 48.207031 48.019531 47.980469 48.023438 L 47.160156 48.035156 " fill-opacity="1" fill-rule="nonzero"/><path fill="#ffffff" d="M 48.265625 49.367188 C 48.027344 49.371094 47.800781 49.332031 47.757812 49.277344 L 47.015625 48.363281 C 46.972656 48.3125 47.121094 48.269531 47.351562 48.265625 L 48.179688 48.253906 C 48.40625 48.25 48.628906 48.289062 48.671875 48.339844 L 49.484375 49.257812 C 49.53125 49.308594 49.371094 49.351562 49.132812 49.355469 L 48.265625 49.367188 " fill-opacity="1" fill-rule="nonzero"/><path fill="#ffffff" d="M 49.375 50.695312 C 49.121094 50.699219 48.882812 50.660156 48.839844 50.609375 L 48.097656 49.695312 C 48.054688 49.644531 48.214844 49.597656 48.457031 49.59375 L 49.332031 49.585938 C 49.574219 49.582031 49.804688 49.621094 49.851562 49.671875 L 50.660156 50.585938 C 50.707031 50.640625 50.539062 50.683594 50.289062 50.6875 L 49.375 50.695312 " fill-opacity="1" fill-rule="nonzero"/><path fill="#ffffff" d="M 50.480469 52.027344 C 50.21875 52.03125 49.96875 51.988281 49.925781 51.9375 L 49.179688 51.023438 C 49.136719 50.972656 49.308594 50.929688 49.5625 50.925781 L 50.488281 50.917969 C 50.738281 50.914062 50.984375 50.953125 51.03125 51.003906 L 51.839844 51.921875 C 51.882812 51.972656 51.707031 52.015625 51.441406 52.019531 L 50.480469 52.027344 " fill-opacity="1" fill-rule="nonzero"/><path fill="#ffffff" d="M 51.589844 53.355469 C 51.308594 53.359375 51.054688 53.320312 51.011719 53.265625 L 50.265625 52.351562 C 50.222656 52.300781 50.40625 52.261719 50.671875 52.253906 L 51.640625 52.25 C 51.90625 52.242188 52.160156 52.285156 52.207031 52.335938 L 53.015625 53.253906 C 53.0625 53.304688 52.875 53.347656 52.597656 53.351562 L 51.589844 53.355469 " fill-opacity="1" fill-rule="nonzero"/><path fill="#ffffff" d="M 52.699219 54.6875 C 52.40625 54.6875 52.136719 54.648438 52.09375 54.597656 L 51.351562 53.683594 C 51.308594 53.632812 51.5 53.589844 51.78125 53.585938 L 52.796875 53.578125 C 53.074219 53.578125 53.339844 53.617188 53.386719 53.671875 L 54.195312 54.585938 C 54.242188 54.636719 54.042969 54.679688 53.75 54.679688 L 52.699219 54.6875 " fill-opacity="1" fill-rule="nonzero"/><path fill="#ffffff" d="M 53.804688 56.015625 C 53.5 56.019531 53.222656 55.976562 53.179688 55.925781 L 52.433594 55.015625 C 52.394531 54.960938 52.59375 54.917969 52.886719 54.917969 L 53.953125 54.910156 C 54.242188 54.910156 54.519531 54.949219 54.566406 55 L 55.375 55.917969 C 55.417969 55.96875 55.210938 56.011719 54.90625 56.011719 L 53.804688 56.015625 " fill-opacity="1" fill-rule="nonzero"/><path fill="#ffffff" d="M 54.914062 57.347656 C 54.59375 57.347656 54.304688 57.308594 54.261719 57.257812 L 53.515625 56.34375 C 53.476562 56.289062 53.691406 56.25 53.996094 56.246094 L 55.105469 56.242188 C 55.410156 56.238281 55.695312 56.28125 55.742188 56.332031 L 56.550781 57.25 C 56.597656 57.300781 56.378906 57.34375 56.0625 57.34375 L 54.914062 57.347656 " fill-opacity="1" fill-rule="nonzero"/><path fill="#ffffff" d="M 56.019531 58.675781 C 55.691406 58.675781 55.390625 58.636719 55.347656 58.585938 L 54.601562 57.671875 C 54.558594 57.621094 54.785156 57.574219 55.101562 57.574219 L 56.261719 57.574219 C 56.578125 57.570312 56.875 57.613281 56.921875 57.667969 L 57.730469 58.582031 C 57.777344 58.632812 57.546875 58.675781 57.21875 58.675781 L 56.019531 58.675781 " fill-opacity="1" fill-rule="nonzero"/><path fill="#ffffff" d="M 57.128906 60.007812 C 56.785156 60.007812 56.476562 59.964844 56.433594 59.914062 L 55.6875 59 C 55.644531 58.949219 55.878906 58.90625 56.210938 58.90625 L 57.417969 58.90625 C 57.746094 58.90625 58.050781 58.945312 58.097656 58.996094 L 58.910156 59.914062 C 58.957031 59.964844 58.714844 60.007812 58.371094 60.007812 L 57.128906 60.007812 " fill-opacity="1" fill-rule="nonzero"/><path fill="#ffffff" d="M 33.570312 40.488281 C 33.421875 40.496094 33.285156 40.457031 33.269531 40.40625 L 32.882812 39.335938 C 32.867188 39.28125 32.960938 39.234375 33.097656 39.230469 L 35.539062 39.128906 C 35.675781 39.121094 35.808594 39.15625 35.839844 39.210938 L 36.453125 40.289062 C 36.480469 40.339844 36.382812 40.386719 36.234375 40.390625 L 33.570312 40.488281 " fill-opacity="1" fill-rule="nonzero"/><path fill="#ffffff" d="M 34.003906 41.632812 C 33.839844 41.636719 33.695312 41.597656 33.679688 41.546875 L 33.414062 40.816406 C 33.398438 40.765625 33.503906 40.71875 33.65625 40.714844 L 36.355469 40.617188 C 36.507812 40.613281 36.65625 40.648438 36.6875 40.703125 L 37.101562 41.4375 C 37.128906 41.488281 37.023438 41.53125 36.863281 41.539062 L 34.003906 41.632812 " fill-opacity="1" fill-rule="nonzero"/><path fill="#ffffff" d="M 34.496094 42.945312 C 34.324219 42.949219 34.167969 42.910156 34.148438 42.863281 L 33.824219 41.957031 C 33.808594 41.910156 33.925781 41.863281 34.085938 41.855469 L 36.988281 41.765625 C 37.148438 41.761719 37.308594 41.796875 37.335938 41.847656 L 37.851562 42.757812 C 37.878906 42.808594 37.761719 42.851562 37.585938 42.859375 L 34.496094 42.945312 " fill-opacity="1" fill-rule="nonzero"/><path fill="#ffffff" d="M 34.992188 44.257812 C 34.804688 44.261719 34.636719 44.226562 34.621094 44.175781 L 34.296875 43.273438 C 34.277344 43.21875 34.40625 43.175781 34.582031 43.171875 L 37.714844 43.085938 C 37.886719 43.082031 38.054688 43.117188 38.085938 43.171875 L 38.597656 44.078125 C 38.628906 44.128906 38.5 44.171875 38.3125 44.175781 L 34.992188 44.257812 " fill-opacity="1" fill-rule="nonzero"/><path fill="#ffffff" d="M 35.488281 45.570312 C 35.289062 45.578125 35.109375 45.539062 35.09375 45.484375 L 34.769531 44.585938 C 34.75 44.535156 34.886719 44.488281 35.078125 44.484375 L 38.4375 44.40625 C 38.625 44.402344 38.804688 44.4375 38.832031 44.488281 L 39.347656 45.398438 C 39.375 45.449219 39.234375 45.496094 39.039062 45.496094 L 35.488281 45.570312 " fill-opacity="1" fill-rule="nonzero"/><path fill="#ffffff" d="M 35.980469 46.886719 C 35.769531 46.890625 35.582031 46.851562 35.5625 46.800781 L 35.238281 45.898438 C 35.222656 45.847656 35.371094 45.800781 35.574219 45.796875 L 39.164062 45.726562 C 39.363281 45.722656 39.550781 45.761719 39.582031 45.8125 L 40.09375 46.71875 C 40.125 46.769531 39.976562 46.8125 39.761719 46.816406 L 35.980469 46.886719 " fill-opacity="1" fill-rule="nonzero"/><path fill="#ffffff" d="M 36.476562 48.199219 C 36.25 48.199219 36.050781 48.164062 36.035156 48.113281 L 35.710938 47.210938 C 35.691406 47.160156 35.851562 47.113281 36.066406 47.113281 L 39.886719 47.046875 C 40.101562 47.042969 40.300781 47.082031 40.328125 47.128906 L 40.84375 48.039062 C 40.875 48.089844 40.710938 48.132812 40.488281 48.136719 L 36.476562 48.199219 " fill-opacity="1" fill-rule="nonzero"/><path fill="#ffffff" d="M 36.972656 49.511719 C 36.734375 49.515625 36.523438 49.476562 36.507812 49.425781 L 36.179688 48.523438 C 36.164062 48.472656 36.332031 48.429688 36.558594 48.425781 L 40.613281 48.363281 C 40.839844 48.363281 41.050781 48.398438 41.078125 48.449219 L 41.59375 49.359375 C 41.621094 49.410156 41.449219 49.453125 41.210938 49.457031 L 36.972656 49.511719 " fill-opacity="1" fill-rule="nonzero"/><path fill="#ffffff" d="M 37.464844 50.824219 C 37.214844 50.828125 36.996094 50.789062 36.976562 50.738281 L 36.652344 49.835938 C 36.632812 49.785156 36.816406 49.742188 37.054688 49.738281 L 41.335938 49.683594 C 41.578125 49.679688 41.796875 49.71875 41.828125 49.773438 L 42.339844 50.679688 C 42.371094 50.730469 42.1875 50.773438 41.9375 50.777344 L 37.464844 50.824219 " fill-opacity="1" fill-rule="nonzero"/><path fill="#ffffff" d="M 37.960938 52.140625 C 37.695312 52.140625 37.46875 52.101562 37.449219 52.050781 L 37.125 51.148438 C 37.105469 51.097656 37.296875 51.054688 37.550781 51.050781 L 42.0625 51.003906 C 42.316406 51.003906 42.546875 51.042969 42.574219 51.09375 L 43.089844 52 C 43.117188 52.050781 42.925781 52.09375 42.664062 52.097656 L 37.960938 52.140625 " fill-opacity="1" fill-rule="nonzero"/><path fill="#ffffff" d="M 38.453125 53.453125 C 38.179688 53.453125 37.9375 53.414062 37.917969 53.363281 L 37.597656 52.460938 C 37.578125 52.410156 37.777344 52.367188 38.046875 52.367188 L 42.789062 52.324219 C 43.050781 52.324219 43.292969 52.363281 43.324219 52.414062 L 43.839844 53.320312 C 43.867188 53.371094 43.664062 53.414062 43.386719 53.414062 L 38.453125 53.453125 " fill-opacity="1" fill-rule="nonzero"/><path fill="#ffffff" d="M 38.949219 54.765625 C 38.660156 54.769531 38.410156 54.726562 38.390625 54.675781 L 38.066406 53.773438 C 38.050781 53.722656 38.261719 53.679688 38.539062 53.679688 L 43.511719 53.644531 C 43.789062 53.644531 44.042969 53.679688 44.074219 53.734375 L 44.585938 54.640625 C 44.613281 54.691406 44.402344 54.734375 44.113281 54.734375 L 38.949219 54.765625 " fill-opacity="1" fill-rule="nonzero"/><path fill="#ffffff" d="M 39.445312 56.082031 C 39.140625 56.082031 38.878906 56.039062 38.863281 55.988281 L 38.539062 55.085938 C 38.519531 55.039062 38.742188 54.996094 39.035156 54.992188 L 44.238281 54.964844 C 44.527344 54.964844 44.789062 55 44.820312 55.054688 L 45.332031 55.960938 C 45.363281 56.011719 45.136719 56.054688 44.839844 56.054688 L 39.445312 56.082031 " fill-opacity="1" fill-rule="nonzero"/><path fill="#ffffff" d="M 39.9375 57.394531 C 39.625 57.394531 39.351562 57.355469 39.332031 57.300781 L 39.007812 56.398438 C 38.992188 56.347656 39.226562 56.308594 39.53125 56.304688 L 44.960938 56.28125 C 45.265625 56.28125 45.539062 56.324219 45.566406 56.375 L 46.082031 57.28125 C 46.113281 57.332031 45.875 57.375 45.5625 57.375 L 39.9375 57.394531 " fill-opacity="1" fill-rule="nonzero"/><path fill="#ffffff" d="M 40.433594 58.707031 C 40.105469 58.707031 39.824219 58.667969 39.804688 58.613281 L 39.480469 57.714844 C 39.460938 57.660156 39.707031 57.617188 40.023438 57.617188 L 45.6875 57.601562 C 46.003906 57.601562 46.285156 57.644531 46.316406 57.695312 L 46.832031 58.601562 C 46.859375 58.652344 46.613281 58.695312 46.285156 58.695312 L 40.433594 58.707031 " fill-opacity="1" fill-rule="nonzero"/><path fill="#ffffff" d="M 40.929688 60.019531 C 40.585938 60.019531 40.292969 59.980469 40.277344 59.929688 L 39.953125 59.023438 C 39.933594 58.976562 40.1875 58.933594 40.519531 58.933594 L 46.414062 58.925781 C 46.742188 58.921875 47.035156 58.964844 47.066406 59.011719 L 47.578125 59.921875 C 47.609375 59.976562 47.351562 60.015625 47.011719 60.015625 L 40.929688 60.019531 " fill-opacity="1" fill-rule="nonzero"/><path fill="#ffffff" d="M 29.835938 40.625 C 29.6875 40.632812 29.558594 40.597656 29.554688 40.542969 L 29.433594 39.476562 C 29.425781 39.425781 29.535156 39.382812 29.671875 39.378906 L 32.109375 39.273438 C 32.25 39.265625 32.375 39.304688 32.390625 39.355469 L 32.738281 40.425781 C 32.753906 40.476562 32.644531 40.523438 32.496094 40.527344 L 29.835938 40.625 " fill-opacity="1" fill-rule="nonzero"/><path fill="#ffffff" d="M 29.984375 41.761719 C 29.824219 41.765625 29.6875 41.730469 29.683594 41.679688 L 29.597656 40.953125 C 29.59375 40.898438 29.714844 40.855469 29.867188 40.851562 L 32.5625 40.753906 C 32.714844 40.746094 32.851562 40.785156 32.871094 40.835938 L 33.105469 41.566406 C 33.121094 41.617188 33.003906 41.664062 32.84375 41.667969 L 29.984375 41.761719 " fill-opacity="1" fill-rule="nonzero"/><path fill="#ffffff" d="M 30.15625 43.066406 C 29.980469 43.070312 29.835938 43.035156 29.828125 42.984375 L 29.730469 42.085938 C 29.722656 42.035156 29.851562 41.992188 30.015625 41.984375 L 32.914062 41.894531 C 33.078125 41.890625 33.222656 41.925781 33.238281 41.976562 L 33.53125 42.878906 C 33.546875 42.929688 33.417969 42.972656 33.246094 42.980469 L 30.15625 43.066406 " fill-opacity="1" fill-rule="nonzero"/><path fill="#ffffff" d="M 30.328125 44.371094 C 30.140625 44.375 29.984375 44.335938 29.976562 44.285156 L 29.875 43.390625 C 29.871094 43.339844 30.007812 43.292969 30.183594 43.289062 L 33.3125 43.203125 C 33.492188 43.203125 33.648438 43.238281 33.664062 43.289062 L 33.957031 44.1875 C 33.972656 44.242188 33.835938 44.285156 33.648438 44.289062 L 30.328125 44.371094 " fill-opacity="1" fill-rule="nonzero"/><path fill="#ffffff" d="M 30.5 45.675781 C 30.296875 45.679688 30.132812 45.640625 30.125 45.589844 L 30.023438 44.695312 C 30.019531 44.644531 30.167969 44.597656 30.355469 44.59375 L 33.714844 44.515625 C 33.90625 44.511719 34.074219 44.550781 34.089844 44.601562 L 34.382812 45.503906 C 34.398438 45.554688 34.25 45.597656 34.046875 45.601562 L 30.5 45.675781 " fill-opacity="1" fill-rule="nonzero"/><path fill="#ffffff" d="M 30.667969 46.980469 C 30.457031 46.984375 30.277344 46.945312 30.273438 46.894531 L 30.171875 46 C 30.164062 45.949219 30.328125 45.902344 30.527344 45.898438 L 34.117188 45.828125 C 34.320312 45.824219 34.5 45.859375 34.515625 45.910156 L 34.808594 46.8125 C 34.824219 46.863281 34.664062 46.90625 34.449219 46.914062 L 30.667969 46.980469 " fill-opacity="1" fill-rule="nonzero"/><path fill="#ffffff" d="M 30.839844 48.285156 C 30.617188 48.289062 30.425781 48.25 30.421875 48.199219 L 30.320312 47.304688 C 30.3125 47.253906 30.484375 47.207031 30.699219 47.203125 L 34.519531 47.136719 C 34.734375 47.136719 34.925781 47.171875 34.941406 47.222656 L 35.234375 48.125 C 35.25 48.175781 35.078125 48.21875 34.851562 48.222656 L 30.839844 48.285156 " fill-opacity="1" fill-rule="nonzero"/><path fill="#ffffff" d="M 31.011719 49.589844 C 30.773438 49.589844 30.574219 49.554688 30.570312 49.503906 L 30.46875 48.605469 C 30.460938 48.554688 30.640625 48.511719 30.871094 48.507812 L 34.921875 48.449219 C 35.148438 48.445312 35.347656 48.484375 35.367188 48.535156 L 35.660156 49.4375 C 35.671875 49.488281 35.492188 49.53125 35.253906 49.535156 L 31.011719 49.589844 " fill-opacity="1" fill-rule="nonzero"/><path fill="#ffffff" d="M 31.183594 50.894531 C 30.933594 50.894531 30.722656 50.859375 30.714844 50.808594 L 30.617188 49.910156 C 30.609375 49.859375 30.800781 49.816406 31.042969 49.8125 L 35.324219 49.757812 C 35.5625 49.757812 35.773438 49.796875 35.789062 49.847656 L 36.082031 50.75 C 36.097656 50.796875 35.90625 50.84375 35.65625 50.84375 L 31.183594 50.894531 " fill-opacity="1" fill-rule="nonzero"/><path fill="#ffffff" d="M 31.355469 52.199219 C 31.089844 52.199219 30.871094 52.160156 30.867188 52.109375 L 30.761719 51.214844 C 30.757812 51.164062 30.960938 51.121094 31.210938 51.117188 L 35.722656 51.070312 C 35.980469 51.066406 36.199219 51.105469 36.214844 51.160156 L 36.507812 52.058594 C 36.523438 52.109375 36.320312 52.152344 36.058594 52.15625 L 31.355469 52.199219 " fill-opacity="1" fill-rule="nonzero"/><path fill="#ffffff" d="M 31.527344 53.503906 C 31.25 53.503906 31.019531 53.464844 31.011719 53.414062 L 30.910156 52.519531 C 30.90625 52.46875 31.117188 52.425781 31.386719 52.421875 L 36.125 52.382812 C 36.394531 52.378906 36.625 52.417969 36.640625 52.46875 L 36.933594 53.371094 C 36.949219 53.421875 36.734375 53.464844 36.457031 53.46875 L 31.527344 53.503906 " fill-opacity="1" fill-rule="nonzero"/><path fill="#ffffff" d="M 31.699219 54.808594 C 31.410156 54.808594 31.164062 54.769531 31.160156 54.71875 L 31.058594 53.824219 C 31.050781 53.769531 31.277344 53.730469 31.554688 53.726562 L 36.527344 53.691406 C 36.808594 53.691406 37.046875 53.730469 37.066406 53.78125 L 37.355469 54.683594 C 37.375 54.734375 37.148438 54.777344 36.859375 54.777344 L 31.699219 54.808594 " fill-opacity="1" fill-rule="nonzero"/><path fill="#ffffff" d="M 31.871094 56.113281 C 31.566406 56.113281 31.3125 56.070312 31.308594 56.023438 L 31.207031 55.128906 C 31.199219 55.074219 31.433594 55.03125 31.726562 55.03125 L 36.929688 55.003906 C 37.222656 55 37.472656 55.042969 37.492188 55.09375 L 37.78125 55.996094 C 37.800781 56.042969 37.566406 56.085938 37.261719 56.089844 L 31.871094 56.113281 " fill-opacity="1" fill-rule="nonzero"/><path fill="#ffffff" d="M 32.042969 57.417969 C 31.722656 57.417969 31.460938 57.378906 31.457031 57.328125 L 31.355469 56.429688 C 31.351562 56.378906 31.59375 56.335938 31.898438 56.335938 L 37.332031 56.316406 C 37.636719 56.3125 37.898438 56.351562 37.917969 56.40625 L 38.207031 57.308594 C 38.222656 57.355469 37.980469 57.398438 37.664062 57.398438 L 32.042969 57.417969 " fill-opacity="1" fill-rule="nonzero"/><path fill="#ffffff" d="M 32.191406 58.550781 C 31.863281 58.550781 31.589844 58.511719 31.585938 58.460938 L 31.503906 57.734375 C 31.496094 57.683594 31.753906 57.644531 32.070312 57.640625 L 37.730469 57.625 C 38.050781 57.625 38.324219 57.667969 38.339844 57.714844 L 38.574219 58.449219 C 38.59375 58.496094 38.339844 58.539062 38.011719 58.539062 L 32.191406 58.550781 " fill-opacity="1" fill-rule="nonzero"/><path fill="#ffffff" d="M 30.078125 60.027344 C 29.734375 60.027344 29.453125 59.988281 29.449219 59.9375 L 29.402344 58.875 C 29.398438 58.820312 29.667969 58.78125 29.996094 58.78125 L 38.082031 58.765625 C 38.410156 58.765625 38.695312 58.804688 38.710938 58.855469 L 39.058594 59.929688 C 39.074219 59.980469 38.808594 60.023438 38.464844 60.023438 L 30.078125 60.027344 " fill-opacity="1" fill-rule="nonzero"/><path fill="#ffffff" d="M 26.097656 40.761719 C 25.949219 40.769531 25.832031 40.734375 25.839844 40.683594 L 25.984375 39.625 C 25.988281 39.574219 26.105469 39.527344 26.246094 39.519531 L 28.683594 39.417969 C 28.820312 39.414062 28.933594 39.449219 28.941406 39.5 L 29.023438 40.5625 C 29.027344 40.617188 28.90625 40.660156 28.757812 40.664062 L 26.097656 40.761719 " fill-opacity="1" fill-rule="nonzero"/><path fill="#ffffff" d="M 25.96875 41.890625 C 25.804688 41.894531 25.679688 41.859375 25.6875 41.808594 L 25.785156 41.085938 C 25.789062 41.039062 25.921875 40.992188 26.070312 40.984375 L 28.773438 40.890625 C 28.921875 40.882812 29.050781 40.921875 29.054688 40.96875 L 29.109375 41.699219 C 29.113281 41.746094 28.988281 41.792969 28.828125 41.796875 L 25.96875 41.890625 " fill-opacity="1" fill-rule="nonzero"/><path fill="#ffffff" d="M 25.816406 43.1875 C 25.640625 43.191406 25.503906 43.15625 25.511719 43.105469 L 25.632812 42.214844 C 25.636719 42.164062 25.777344 42.117188 25.941406 42.113281 L 28.839844 42.023438 C 29.003906 42.015625 29.140625 42.054688 29.144531 42.105469 L 29.214844 43 C 29.214844 43.050781 29.078125 43.09375 28.90625 43.101562 L 25.816406 43.1875 " fill-opacity="1" fill-rule="nonzero"/><path fill="#ffffff" d="M 25.660156 44.480469 C 25.476562 44.484375 25.328125 44.449219 25.335938 44.398438 L 25.457031 43.507812 C 25.464844 43.457031 25.609375 43.414062 25.789062 43.410156 L 28.917969 43.324219 C 29.09375 43.320312 29.242188 43.359375 29.246094 43.40625 L 29.316406 44.304688 C 29.320312 44.351562 29.171875 44.398438 28.984375 44.402344 L 25.660156 44.480469 " fill-opacity="1" fill-rule="nonzero"/><path fill="#ffffff" d="M 25.511719 45.777344 C 25.308594 45.78125 25.152344 45.746094 25.160156 45.695312 L 25.28125 44.804688 C 25.289062 44.753906 25.449219 44.710938 25.636719 44.707031 L 28.996094 44.628906 C 29.183594 44.621094 29.339844 44.660156 29.347656 44.710938 L 29.417969 45.605469 C 29.421875 45.65625 29.261719 45.699219 29.0625 45.703125 L 25.511719 45.777344 " fill-opacity="1" fill-rule="nonzero"/><path fill="#ffffff" d="M 25.359375 47.074219 C 25.144531 47.078125 24.976562 47.039062 24.984375 46.992188 L 25.105469 46.101562 C 25.113281 46.050781 25.28125 46.007812 25.484375 46.003906 L 29.074219 45.929688 C 29.277344 45.925781 29.445312 45.964844 29.449219 46.011719 L 29.519531 46.90625 C 29.523438 46.960938 29.351562 47.003906 29.140625 47.007812 L 25.359375 47.074219 " fill-opacity="1" fill-rule="nonzero"/><path fill="#ffffff" d="M 25.207031 48.371094 C 24.980469 48.375 24.800781 48.335938 24.808594 48.285156 L 24.929688 47.394531 C 24.9375 47.34375 25.117188 47.300781 25.332031 47.296875 L 29.152344 47.230469 C 29.367188 47.226562 29.546875 47.265625 29.550781 47.316406 L 29.621094 48.210938 C 29.625 48.261719 29.445312 48.304688 29.21875 48.308594 L 25.207031 48.371094 " fill-opacity="1" fill-rule="nonzero"/><path fill="#ffffff" d="M 25.054688 49.664062 C 24.816406 49.667969 24.628906 49.632812 24.632812 49.578125 L 24.753906 48.691406 C 24.761719 48.640625 24.953125 48.597656 25.179688 48.59375 L 29.230469 48.53125 C 29.460938 48.53125 29.648438 48.566406 29.652344 48.617188 L 29.722656 49.515625 C 29.726562 49.5625 29.535156 49.605469 29.296875 49.609375 L 25.054688 49.664062 " fill-opacity="1" fill-rule="nonzero"/><path fill="#ffffff" d="M 24.902344 50.960938 C 24.652344 50.964844 24.449219 50.925781 24.457031 50.875 L 24.578125 49.984375 C 24.585938 49.933594 24.785156 49.890625 25.027344 49.890625 L 29.308594 49.835938 C 29.550781 49.832031 29.75 49.871094 29.753906 49.921875 L 29.824219 50.816406 C 29.828125 50.867188 29.625 50.910156 29.375 50.914062 L 24.902344 50.960938 " fill-opacity="1" fill-rule="nonzero"/><path fill="#ffffff" d="M 24.75 52.257812 C 24.484375 52.261719 24.277344 52.222656 24.285156 52.171875 L 24.402344 51.28125 C 24.410156 51.230469 24.625 51.1875 24.875 51.183594 L 29.386719 51.136719 C 29.640625 51.136719 29.851562 51.171875 29.855469 51.222656 L 29.925781 52.121094 C 29.929688 52.167969 29.714844 52.210938 29.453125 52.214844 L 24.75 52.257812 " fill-opacity="1" fill-rule="nonzero"/><path fill="#ffffff" d="M 24.597656 53.554688 C 24.320312 53.554688 24.101562 53.515625 24.109375 53.464844 L 24.226562 52.574219 C 24.234375 52.527344 24.457031 52.484375 24.722656 52.480469 L 29.464844 52.441406 C 29.730469 52.4375 29.953125 52.476562 29.957031 52.527344 L 30.027344 53.421875 C 30.03125 53.472656 29.808594 53.515625 29.53125 53.515625 L 24.597656 53.554688 " fill-opacity="1" fill-rule="nonzero"/><path fill="#ffffff" d="M 24.445312 54.847656 C 24.15625 54.851562 23.925781 54.8125 23.929688 54.761719 L 24.054688 53.871094 C 24.058594 53.820312 24.292969 53.777344 24.570312 53.777344 L 29.542969 53.742188 C 29.824219 53.738281 30.054688 53.78125 30.058594 53.828125 L 30.128906 54.726562 C 30.132812 54.773438 29.898438 54.816406 29.609375 54.820312 L 24.445312 54.847656 " fill-opacity="1" fill-rule="nonzero"/><path fill="#ffffff" d="M 24.292969 56.144531 C 23.992188 56.144531 23.75 56.105469 23.757812 56.054688 L 23.875 55.164062 C 23.882812 55.117188 24.128906 55.074219 24.421875 55.074219 L 29.621094 55.042969 C 29.914062 55.042969 30.15625 55.082031 30.160156 55.132812 L 30.230469 56.027344 C 30.234375 56.078125 29.988281 56.121094 29.6875 56.121094 L 24.292969 56.144531 " fill-opacity="1" fill-rule="nonzero"/><path fill="#ffffff" d="M 24.144531 57.441406 C 23.824219 57.441406 23.574219 57.402344 23.582031 57.351562 L 23.703125 56.460938 C 23.707031 56.410156 23.964844 56.367188 24.269531 56.367188 L 29.699219 56.347656 C 30.007812 56.34375 30.257812 56.382812 30.261719 56.433594 L 30.332031 57.332031 C 30.335938 57.378906 30.082031 57.421875 29.765625 57.421875 L 24.144531 57.441406 " fill-opacity="1" fill-rule="nonzero"/><path fill="#ffffff" d="M 23.992188 58.738281 C 23.660156 58.738281 23.398438 58.699219 23.40625 58.644531 L 23.527344 57.757812 C 23.53125 57.707031 23.800781 57.667969 24.117188 57.664062 L 29.78125 57.648438 C 30.097656 57.648438 30.359375 57.6875 30.363281 57.738281 L 30.433594 58.632812 C 30.4375 58.683594 30.171875 58.726562 29.84375 58.726562 L 23.992188 58.738281 " fill-opacity="1" fill-rule="nonzero"/><path fill="#ffffff" d="M 23.835938 60.03125 C 23.496094 60.035156 23.222656 59.992188 23.230469 59.941406 L 23.417969 58.546875 C 23.425781 58.496094 23.699219 58.453125 24.023438 58.453125 L 29.828125 58.441406 C 30.152344 58.441406 30.421875 58.480469 30.425781 58.53125 L 30.535156 59.9375 C 30.539062 59.988281 30.265625 60.027344 29.921875 60.027344 L 23.835938 60.03125 " fill-opacity="1" fill-rule="nonzero"/><path fill="#ffffff" d="M 22.363281 40.898438 C 22.210938 40.90625 22.105469 40.871094 22.125 40.820312 L 22.53125 39.769531 C 22.554688 39.71875 22.679688 39.671875 22.816406 39.667969 L 25.257812 39.5625 C 25.394531 39.558594 25.5 39.59375 25.492188 39.644531 L 25.308594 40.703125 C 25.300781 40.75 25.171875 40.796875 25.023438 40.804688 L 22.363281 40.898438 " fill-opacity="1" fill-rule="nonzero"/><path fill="#ffffff" d="M 21.949219 42.019531 C 21.789062 42.027344 21.671875 41.988281 21.691406 41.941406 L 21.96875 41.222656 C 21.988281 41.171875 22.128906 41.128906 22.28125 41.121094 L 24.980469 41.023438 C 25.132812 41.019531 25.246094 41.054688 25.238281 41.105469 L 25.117188 41.824219 C 25.109375 41.878906 24.96875 41.921875 24.808594 41.929688 L 21.949219 42.019531 " fill-opacity="1" fill-rule="nonzero"/><path fill="#ffffff" d="M 21.472656 43.304688 C 21.300781 43.308594 21.171875 43.277344 21.191406 43.226562 L 21.535156 42.339844 C 21.554688 42.292969 21.703125 42.246094 21.867188 42.242188 L 24.765625 42.152344 C 24.929688 42.144531 25.054688 42.183594 25.046875 42.234375 L 24.894531 43.121094 C 24.886719 43.171875 24.738281 43.214844 24.5625 43.21875 L 21.472656 43.304688 " fill-opacity="1" fill-rule="nonzero"/><path fill="#ffffff" d="M 20.996094 44.59375 C 20.8125 44.597656 20.675781 44.5625 20.695312 44.511719 L 21.035156 43.628906 C 21.054688 43.578125 21.214844 43.535156 21.390625 43.527344 L 24.523438 43.445312 C 24.699219 43.4375 24.832031 43.476562 24.824219 43.527344 L 24.671875 44.417969 C 24.664062 44.464844 24.503906 44.507812 24.316406 44.515625 L 20.996094 44.59375 " fill-opacity="1" fill-rule="nonzero"/><path fill="#ffffff" d="M 20.523438 45.878906 C 20.324219 45.886719 20.175781 45.847656 20.195312 45.800781 L 20.539062 44.914062 C 20.554688 44.863281 20.726562 44.820312 20.914062 44.816406 L 24.277344 44.734375 C 24.464844 44.730469 24.613281 44.769531 24.605469 44.820312 L 24.449219 45.710938 C 24.441406 45.761719 24.273438 45.804688 24.074219 45.808594 L 20.523438 45.878906 " fill-opacity="1" fill-rule="nonzero"/><path fill="#ffffff" d="M 20.046875 47.167969 C 19.835938 47.171875 19.675781 47.136719 19.695312 47.085938 L 20.039062 46.199219 C 20.058594 46.152344 20.238281 46.109375 20.441406 46.105469 L 24.03125 46.027344 C 24.234375 46.027344 24.390625 46.066406 24.382812 46.113281 L 24.230469 47.003906 C 24.222656 47.050781 24.039062 47.097656 23.828125 47.101562 L 20.046875 47.167969 " fill-opacity="1" fill-rule="nonzero"/><path fill="#ffffff" d="M 19.574219 48.457031 C 19.34375 48.460938 19.175781 48.421875 19.195312 48.371094 L 19.539062 47.488281 C 19.558594 47.4375 19.75 47.394531 19.964844 47.390625 L 23.785156 47.324219 C 24 47.320312 24.167969 47.359375 24.160156 47.40625 L 24.007812 48.296875 C 24 48.347656 23.808594 48.390625 23.582031 48.394531 L 19.574219 48.457031 " fill-opacity="1" fill-rule="nonzero"/><path fill="#ffffff" d="M 19.097656 49.742188 C 18.859375 49.746094 18.679688 49.707031 18.699219 49.65625 L 19.042969 48.773438 C 19.0625 48.722656 19.261719 48.679688 19.488281 48.675781 L 23.539062 48.617188 C 23.769531 48.613281 23.945312 48.652344 23.9375 48.703125 L 23.785156 49.589844 C 23.777344 49.640625 23.574219 49.683594 23.335938 49.6875 L 19.097656 49.742188 " fill-opacity="1" fill-rule="nonzero"/><path fill="#ffffff" d="M 18.621094 51.03125 C 18.371094 51.03125 18.179688 50.992188 18.199219 50.941406 L 18.542969 50.058594 C 18.5625 50.011719 18.773438 49.964844 19.015625 49.964844 L 23.292969 49.910156 C 23.535156 49.90625 23.726562 49.945312 23.714844 49.996094 L 23.566406 50.882812 C 23.554688 50.933594 23.34375 50.976562 23.089844 50.980469 L 18.621094 51.03125 " fill-opacity="1" fill-rule="nonzero"/><path fill="#ffffff" d="M 18.148438 52.316406 C 17.882812 52.320312 17.679688 52.28125 17.703125 52.230469 L 18.042969 51.347656 C 18.0625 51.296875 18.285156 51.253906 18.539062 51.25 L 23.050781 51.203125 C 23.304688 51.199219 23.503906 51.238281 23.496094 51.289062 L 23.34375 52.179688 C 23.335938 52.230469 23.113281 52.273438 22.847656 52.273438 L 18.148438 52.316406 " fill-opacity="1" fill-rule="nonzero"/><path fill="#ffffff" d="M 17.671875 53.601562 C 17.394531 53.605469 17.183594 53.566406 17.203125 53.515625 L 17.542969 52.632812 C 17.5625 52.585938 17.796875 52.542969 18.0625 52.535156 L 22.804688 52.496094 C 23.070312 52.496094 23.28125 52.53125 23.273438 52.585938 L 23.121094 53.472656 C 23.113281 53.523438 22.878906 53.566406 22.601562 53.566406 L 17.671875 53.601562 " fill-opacity="1" fill-rule="nonzero"/><path fill="#ffffff" d="M 17.195312 54.890625 C 16.90625 54.894531 16.683594 54.851562 16.703125 54.804688 L 17.046875 53.921875 C 17.066406 53.871094 17.308594 53.828125 17.589844 53.824219 L 22.558594 53.789062 C 22.839844 53.785156 23.058594 53.828125 23.050781 53.878906 L 22.898438 54.765625 C 22.890625 54.816406 22.648438 54.859375 22.355469 54.863281 L 17.195312 54.890625 " fill-opacity="1" fill-rule="nonzero"/><path fill="#ffffff" d="M 16.722656 56.175781 C 16.417969 56.179688 16.183594 56.140625 16.203125 56.089844 L 16.546875 55.207031 C 16.566406 55.15625 16.820312 55.113281 17.113281 55.113281 L 22.316406 55.085938 C 22.605469 55.082031 22.839844 55.121094 22.832031 55.171875 L 22.679688 56.0625 C 22.667969 56.109375 22.414062 56.152344 22.113281 56.15625 L 16.722656 56.175781 " fill-opacity="1" fill-rule="nonzero"/><path fill="#ffffff" d="M 15.296875 60.039062 C 14.953125 60.039062 14.6875 60 14.707031 59.949219 L 15.992188 56.632812 C 16.011719 56.585938 16.28125 56.542969 16.585938 56.542969 L 22.042969 56.519531 C 22.347656 56.519531 22.59375 56.558594 22.585938 56.609375 L 22.011719 59.945312 C 22.003906 59.992188 21.71875 60.035156 21.378906 60.035156 L 15.296875 60.039062 " fill-opacity="1" fill-rule="nonzero"/><path fill="#ffffff" d="M 10.847656 53.484375 C 10.570312 53.488281 10.375 53.445312 10.40625 53.398438 L 15.792969 45.027344 C 15.824219 44.976562 16.003906 44.933594 16.195312 44.925781 L 19.554688 44.851562 C 19.742188 44.847656 19.878906 44.882812 19.859375 44.933594 L 16.285156 53.355469 C 16.265625 53.402344 16.023438 53.445312 15.75 53.445312 L 10.847656 53.484375 " fill-opacity="1" fill-rule="nonzero"/><path fill="#ffffff" d="M 18.519531 41.203125 C 18.367188 41.210938 18.273438 41.175781 18.304688 41.125 L 19.085938 39.914062 C 19.113281 39.867188 19.25 39.820312 19.390625 39.8125 L 21.828125 39.707031 C 21.96875 39.703125 22.058594 39.738281 22.039062 39.789062 L 21.523438 41.007812 C 21.5 41.054688 21.363281 41.101562 21.210938 41.105469 L 18.519531 41.203125 " fill-opacity="1" fill-rule="nonzero"/><path fill="#ffffff" d="M 17.515625 42.816406 C 17.34375 42.820312 17.234375 42.785156 17.265625 42.734375 L 18.046875 41.527344 C 18.078125 41.476562 18.226562 41.429688 18.382812 41.425781 L 21.113281 41.328125 C 21.265625 41.324219 21.371094 41.359375 21.351562 41.410156 L 20.835938 42.628906 C 20.8125 42.675781 20.660156 42.722656 20.496094 42.726562 L 17.515625 42.816406 " fill-opacity="1" fill-rule="nonzero"/><path fill="#ffffff" d="M 16.507812 44.425781 C 16.324219 44.433594 16.199219 44.394531 16.230469 44.34375 L 17.011719 43.132812 C 17.042969 43.085938 17.207031 43.039062 17.375 43.035156 L 20.394531 42.949219 C 20.566406 42.945312 20.6875 42.980469 20.664062 43.027344 L 20.148438 44.25 C 20.128906 44.296875 19.960938 44.34375 19.777344 44.347656 L 16.507812 44.425781 " fill-opacity="1" fill-rule="nonzero"/><path fill="#ffffff" d="M 9.769531 55.210938 C 9.476562 55.214844 9.261719 55.171875 9.296875 55.125 L 10.074219 53.914062 C 10.109375 53.863281 10.359375 53.820312 10.640625 53.820312 L 15.601562 53.785156 C 15.878906 53.78125 16.089844 53.820312 16.066406 53.871094 L 15.550781 55.089844 C 15.53125 55.136719 15.273438 55.179688 14.980469 55.183594 L 9.769531 55.210938 " fill-opacity="1" fill-rule="nonzero"/><path fill="#ffffff" d="M 8.761719 56.820312 C 8.453125 56.824219 8.226562 56.78125 8.257812 56.734375 L 9.039062 55.523438 C 9.070312 55.472656 9.335938 55.429688 9.632812 55.429688 L 14.882812 55.402344 C 15.179688 55.402344 15.402344 55.441406 15.378906 55.488281 L 14.863281 56.710938 C 14.84375 56.757812 14.574219 56.800781 14.265625 56.800781 L 8.761719 56.820312 " fill-opacity="1" fill-rule="nonzero"/><path fill="#ffffff" d="M 7.757812 58.433594 C 7.429688 58.433594 7.191406 58.394531 7.222656 58.347656 L 8 57.132812 C 8.035156 57.085938 8.3125 57.042969 8.625 57.042969 L 14.167969 57.023438 C 14.480469 57.023438 14.714844 57.0625 14.695312 57.113281 L 14.175781 58.332031 C 14.15625 58.378906 13.875 58.417969 13.550781 58.421875 L 7.757812 58.433594 " fill-opacity="1" fill-rule="nonzero"/><path fill="#ffffff" d="M 6.75 60.042969 C 6.40625 60.042969 6.15625 60.007812 6.1875 59.957031 L 6.964844 58.746094 C 6.996094 58.695312 7.289062 58.652344 7.617188 58.652344 L 13.449219 58.640625 C 13.78125 58.640625 14.027344 58.683594 14.007812 58.730469 L 13.488281 59.949219 C 13.46875 60 13.175781 60.039062 12.832031 60.039062 L 6.75 60.042969 " fill-opacity="1" fill-rule="nonzero"/><path fill="#ffffff" d="M 63.925781 61.683594 C 63.925781 62.359375 63.378906 62.90625 62.703125 62.90625 C 62.027344 62.90625 61.480469 62.359375 61.480469 61.683594 C 61.480469 61.007812 62.027344 60.460938 62.703125 60.460938 C 63.378906 60.460938 63.925781 61.007812 63.925781 61.683594 " fill-opacity="1" fill-rule="nonzero"/><path fill="#ffffff" d="M 56.296875 63.046875 L 53.132812 62.964844 L 53.132812 61.972656 L 56.296875 62.054688 L 56.296875 63.046875 " fill-opacity="1" fill-rule="nonzero"/><path fill="#ffffff" d="M 50.675781 62.964844 L 47.511719 62.878906 L 47.511719 61.886719 L 50.675781 61.972656 L 50.675781 62.964844 " fill-opacity="1" fill-rule="nonzero"/><path fill="#ffffff" d="M 45.875 62.800781 L 44.800781 62.714844 L 44.800781 61.722656 L 45.875 61.804688 L 45.875 62.800781 " fill-opacity="1" fill-rule="nonzero"/><path fill="#ffffff" d="M 39.347656 62.054688 C 39.347656 62.359375 39.097656 62.609375 38.792969 62.609375 C 38.484375 62.609375 38.238281 62.359375 38.238281 62.054688 C 38.238281 61.75 38.484375 61.5 38.792969 61.5 C 39.097656 61.5 39.347656 61.75 39.347656 62.054688 " fill-opacity="1" fill-rule="nonzero"/><path fill="#ffffff" d="M 19.03125 62.011719 C 19.03125 62.320312 18.78125 62.566406 18.476562 62.566406 C 18.167969 62.566406 17.921875 62.320312 17.921875 62.011719 C 17.921875 61.707031 18.167969 61.457031 18.476562 61.457031 C 18.78125 61.457031 19.03125 61.707031 19.03125 62.011719 " fill-opacity="1" fill-rule="nonzero"/><path fill="#ffffff" d="M 20.441406 62.230469 C 20.441406 62.4375 20.273438 62.609375 20.0625 62.609375 C 19.851562 62.609375 19.683594 62.4375 19.683594 62.230469 C 19.683594 62.019531 19.851562 61.847656 20.0625 61.847656 C 20.273438 61.847656 20.441406 62.019531 20.441406 62.230469 " fill-opacity="1" fill-rule="nonzero"/><g fill="#ffffff" fill-opacity="1"><g transform="translate(144.55716, 57.107175)"><g><path d="M 7.140625 -2.578125 C 7.140625 -2.003906 7.316406 -1.601562 7.671875 -1.375 C 8.023438 -1.144531 8.640625 -0.992188 9.515625 -0.921875 L 9.515625 0 C 6.628906 -0.113281 3.734375 -0.113281 0.828125 0 L 0.828125 -0.921875 C 1.734375 -0.992188 2.359375 -1.144531 2.703125 -1.375 C 3.054688 -1.601562 3.234375 -2.003906 3.234375 -2.578125 L 3.234375 -17.953125 C 3.234375 -18.523438 3.054688 -18.925781 2.703125 -19.15625 C 2.359375 -19.382812 1.734375 -19.535156 0.828125 -19.609375 L 0.828125 -20.53125 C 3.734375 -20.414062 6.628906 -20.414062 9.515625 -20.53125 L 9.515625 -19.609375 C 8.640625 -19.535156 8.023438 -19.382812 7.671875 -19.15625 C 7.316406 -18.925781 7.140625 -18.523438 7.140625 -17.953125 Z M 7.140625 -2.578125 "/></g></g></g><g fill="#ffffff" fill-opacity="1"><g transform="translate(154.906323, 57.107175)"><g><path d="M 16.5 -2.15625 C 16.5 -1.726562 16.695312 -1.429688 17.09375 -1.265625 C 17.488281 -1.109375 17.960938 -0.992188 18.515625 -0.921875 L 18.515625 0 C 15.929688 -0.0820312 13.34375 -0.0820312 10.75 0 L 10.75 -0.921875 C 11.320312 -0.960938 11.800781 -1.070312 12.1875 -1.25 C 12.570312 -1.425781 12.765625 -1.726562 12.765625 -2.15625 L 12.765625 -11.171875 C 12.765625 -12.390625 12.550781 -13.351562 12.125 -14.0625 C 11.707031 -14.78125 11.035156 -15.140625 10.109375 -15.140625 C 9.410156 -15.140625 8.789062 -14.941406 8.25 -14.546875 C 7.707031 -14.148438 7.265625 -13.6875 6.921875 -13.15625 C 6.585938 -12.625 6.363281 -12.140625 6.25 -11.703125 L 6.25 -2.15625 C 6.25 -1.726562 6.445312 -1.425781 6.84375 -1.25 C 7.238281 -1.070312 7.710938 -0.960938 8.265625 -0.921875 L 8.265625 0 C 5.679688 -0.113281 3.101562 -0.113281 0.53125 0 L 0.53125 -0.921875 C 1.082031 -0.992188 1.550781 -1.109375 1.9375 -1.265625 C 2.320312 -1.429688 2.515625 -1.726562 2.515625 -2.15625 L 2.515625 -12.734375 C 2.515625 -13.367188 2.335938 -13.78125 1.984375 -13.96875 C 1.628906 -14.15625 1.132812 -14.207031 0.5 -14.125 L 0.5 -15.046875 C 2.457031 -15.398438 4.128906 -16.023438 5.515625 -16.921875 C 5.847656 -16.816406 6.101562 -16.566406 6.28125 -16.171875 L 5.75 -13 L 5.921875 -13 C 6.046875 -13.28125 6.265625 -13.632812 6.578125 -14.0625 C 6.890625 -14.5 7.28125 -14.9375 7.75 -15.375 C 8.226562 -15.8125 8.800781 -16.175781 9.46875 -16.46875 C 10.144531 -16.769531 10.921875 -16.921875 11.796875 -16.921875 C 12.566406 -16.921875 13.3125 -16.757812 14.03125 -16.4375 C 14.75 -16.125 15.335938 -15.550781 15.796875 -14.71875 C 16.265625 -13.894531 16.5 -12.722656 16.5 -11.203125 Z M 16.5 -2.15625 "/></g></g></g><g fill="#ffffff" fill-opacity="1"><g transform="translate(173.918358, 57.107175)"><g><path d="M 12.921875 -4.4375 C 12.921875 -3.507812 12.664062 -2.679688 12.15625 -1.953125 C 11.65625 -1.222656 10.992188 -0.648438 10.171875 -0.234375 C 9.359375 0.179688 8.503906 0.390625 7.609375 0.390625 C 6.921875 0.390625 6.304688 0.289062 5.765625 0.09375 C 5.222656 -0.101562 4.742188 -0.296875 4.328125 -0.484375 C 3.910156 -0.671875 3.535156 -0.765625 3.203125 -0.765625 C 2.765625 -0.765625 2.515625 -0.507812 2.453125 0 L 1.390625 0 L 1.03125 -4.53125 L 1.953125 -4.53125 C 2.171875 -3.757812 2.582031 -3.082031 3.1875 -2.5 C 3.789062 -1.914062 4.460938 -1.460938 5.203125 -1.140625 C 5.941406 -0.816406 6.617188 -0.65625 7.234375 -0.65625 C 8.003906 -0.65625 8.601562 -0.875 9.03125 -1.3125 C 9.46875 -1.757812 9.6875 -2.347656 9.6875 -3.078125 C 9.6875 -3.984375 9.335938 -4.691406 8.640625 -5.203125 C 7.953125 -5.722656 7.035156 -6.269531 5.890625 -6.84375 C 5.117188 -7.238281 4.351562 -7.671875 3.59375 -8.140625 C 2.832031 -8.617188 2.207031 -9.191406 1.71875 -9.859375 C 1.226562 -10.535156 0.984375 -11.347656 0.984375 -12.296875 C 0.984375 -13.160156 1.203125 -13.929688 1.640625 -14.609375 C 2.085938 -15.296875 2.695312 -15.835938 3.46875 -16.234375 C 4.238281 -16.628906 5.109375 -16.828125 6.078125 -16.828125 C 6.785156 -16.828125 7.351562 -16.75 7.78125 -16.59375 C 8.21875 -16.4375 8.585938 -16.28125 8.890625 -16.125 C 9.203125 -15.976562 9.5 -15.90625 9.78125 -15.90625 C 10.226562 -15.90625 10.515625 -16.125 10.640625 -16.5625 L 11.609375 -16.5625 L 11.90625 -12.234375 L 11.046875 -12.234375 C 10.554688 -13.460938 9.875 -14.367188 9 -14.953125 C 8.132812 -15.546875 7.296875 -15.84375 6.484375 -15.84375 C 5.734375 -15.84375 5.140625 -15.625 4.703125 -15.1875 C 4.273438 -14.757812 4.0625 -14.203125 4.0625 -13.515625 C 4.0625 -12.765625 4.332031 -12.144531 4.875 -11.65625 C 5.414062 -11.175781 6.160156 -10.695312 7.109375 -10.21875 C 7.640625 -9.945312 8.234375 -9.648438 8.890625 -9.328125 C 9.554688 -9.015625 10.195312 -8.628906 10.8125 -8.171875 C 11.425781 -7.722656 11.929688 -7.195312 12.328125 -6.59375 C 12.722656 -5.988281 12.921875 -5.269531 12.921875 -4.4375 Z M 12.921875 -4.4375 "/></g></g></g><g fill="#ffffff" fill-opacity="1"><g transform="translate(187.673153, 57.107175)"><g><path d="M 4.4375 -19.5 C 3.882812 -19.5 3.414062 -19.691406 3.03125 -20.078125 C 2.644531 -20.460938 2.453125 -20.929688 2.453125 -21.484375 C 2.453125 -22.035156 2.644531 -22.503906 3.03125 -22.890625 C 3.414062 -23.273438 3.882812 -23.46875 4.4375 -23.46875 C 4.976562 -23.46875 5.441406 -23.273438 5.828125 -22.890625 C 6.222656 -22.503906 6.421875 -22.035156 6.421875 -21.484375 C 6.421875 -20.929688 6.222656 -20.460938 5.828125 -20.078125 C 5.441406 -19.691406 4.976562 -19.5 4.4375 -19.5 Z M 6.421875 -2.15625 C 6.421875 -1.726562 6.617188 -1.429688 7.015625 -1.265625 C 7.410156 -1.109375 7.882812 -0.992188 8.4375 -0.921875 L 8.4375 0 C 5.851562 -0.132812 3.257812 -0.132812 0.65625 0 L 0.65625 -0.921875 C 1.207031 -0.992188 1.675781 -1.109375 2.0625 -1.265625 C 2.445312 -1.429688 2.640625 -1.726562 2.640625 -2.15625 L 2.640625 -12.734375 C 2.640625 -13.367188 2.472656 -13.78125 2.140625 -13.96875 C 1.816406 -14.15625 1.347656 -14.207031 0.734375 -14.125 L 0.734375 -15.046875 C 1.648438 -15.222656 2.546875 -15.460938 3.421875 -15.765625 C 4.296875 -16.078125 5.109375 -16.460938 5.859375 -16.921875 C 6.179688 -16.796875 6.429688 -16.546875 6.609375 -16.171875 C 6.523438 -15.617188 6.472656 -14.992188 6.453125 -14.296875 C 6.429688 -13.609375 6.421875 -12.742188 6.421875 -11.703125 Z M 6.421875 -2.15625 "/></g></g></g><g fill="#ffffff" fill-opacity="1"><g transform="translate(196.765864, 57.107175)"><g><path d="M 15.609375 -16.796875 C 16.660156 -16.796875 17.1875 -16.289062 17.1875 -15.28125 C 17.1875 -14.90625 17.101562 -14.570312 16.9375 -14.28125 C 16.78125 -14 16.5 -13.859375 16.09375 -13.859375 C 15.8125 -13.859375 15.578125 -13.90625 15.390625 -14 C 15.203125 -14.101562 15 -14.15625 14.78125 -14.15625 C 14.507812 -14.15625 14.34375 -14.066406 14.28125 -13.890625 C 14.21875 -13.710938 14.226562 -13.523438 14.3125 -13.328125 C 14.425781 -12.992188 14.523438 -12.628906 14.609375 -12.234375 C 14.703125 -11.835938 14.75 -11.382812 14.75 -10.875 C 14.75 -9.726562 14.472656 -8.71875 13.921875 -7.84375 C 13.367188 -6.976562 12.609375 -6.300781 11.640625 -5.8125 C 10.671875 -5.332031 9.535156 -5.09375 8.234375 -5.09375 C 7.347656 -5.09375 6.644531 -5.175781 6.125 -5.34375 C 5.613281 -5.507812 5.132812 -5.59375 4.6875 -5.59375 C 4.269531 -5.59375 3.96875 -5.503906 3.78125 -5.328125 C 3.59375 -5.148438 3.5 -4.925781 3.5 -4.65625 C 3.5 -4.257812 3.695312 -3.957031 4.09375 -3.75 C 4.488281 -3.539062 5.140625 -3.367188 6.046875 -3.234375 L 10.1875 -2.609375 C 12.207031 -2.328125 13.722656 -1.878906 14.734375 -1.265625 C 15.753906 -0.660156 16.265625 0.253906 16.265625 1.484375 C 16.265625 2.648438 15.867188 3.65625 15.078125 4.5 C 14.285156 5.351562 13.242188 6.003906 11.953125 6.453125 C 10.660156 6.910156 9.242188 7.140625 7.703125 7.140625 C 6.378906 7.140625 5.1875 6.96875 4.125 6.625 C 3.070312 6.28125 2.226562 5.769531 1.59375 5.09375 C 0.96875 4.425781 0.65625 3.597656 0.65625 2.609375 C 0.65625 1.878906 0.835938 1.269531 1.203125 0.78125 C 1.566406 0.300781 2.101562 0.0625 2.8125 0.0625 C 3.269531 0.0625 3.65625 0.175781 3.96875 0.40625 C 4.28125 0.644531 4.4375 1.015625 4.4375 1.515625 C 4.4375 1.890625 4.378906 2.195312 4.265625 2.4375 C 4.148438 2.6875 4.09375 3.066406 4.09375 3.578125 C 4.09375 4.253906 4.425781 4.859375 5.09375 5.390625 C 5.769531 5.921875 6.785156 6.1875 8.140625 6.1875 C 9.546875 6.1875 10.726562 5.851562 11.6875 5.1875 C 12.644531 4.53125 13.125 3.628906 13.125 2.484375 C 13.125 1.773438 12.910156 1.253906 12.484375 0.921875 C 12.054688 0.597656 11.351562 0.359375 10.375 0.203125 L 4.6875 -0.796875 C 3.28125 -1.035156 2.300781 -1.425781 1.75 -1.96875 C 1.195312 -2.507812 0.921875 -3.097656 0.921875 -3.734375 C 0.921875 -4.503906 1.222656 -5.117188 1.828125 -5.578125 C 2.441406 -6.046875 3.273438 -6.269531 4.328125 -6.25 C 3.554688 -6.582031 2.882812 -7.160156 2.3125 -7.984375 C 1.738281 -8.804688 1.453125 -9.804688 1.453125 -10.984375 C 1.453125 -12.035156 1.71875 -13.003906 2.25 -13.890625 C 2.78125 -14.785156 3.535156 -15.503906 4.515625 -16.046875 C 5.492188 -16.585938 6.675781 -16.859375 8.0625 -16.859375 C 9.40625 -16.859375 10.460938 -16.625 11.234375 -16.15625 C 12.003906 -15.695312 12.632812 -15.21875 13.125 -14.71875 C 13.320312 -15.332031 13.609375 -15.832031 13.984375 -16.21875 C 14.359375 -16.601562 14.898438 -16.796875 15.609375 -16.796875 Z M 8.09375 -6.078125 C 8.863281 -6.078125 9.460938 -6.316406 9.890625 -6.796875 C 10.328125 -7.285156 10.632812 -7.910156 10.8125 -8.671875 C 10.988281 -9.429688 11.078125 -10.203125 11.078125 -10.984375 C 11.078125 -11.773438 10.988281 -12.535156 10.8125 -13.265625 C 10.632812 -14.003906 10.328125 -14.617188 9.890625 -15.109375 C 9.460938 -15.597656 8.863281 -15.84375 8.09375 -15.84375 C 7.34375 -15.84375 6.753906 -15.597656 6.328125 -15.109375 C 5.898438 -14.617188 5.59375 -14.003906 5.40625 -13.265625 C 5.21875 -12.535156 5.125 -11.773438 5.125 -10.984375 C 5.125 -10.203125 5.21875 -9.429688 5.40625 -8.671875 C 5.59375 -7.910156 5.898438 -7.285156 6.328125 -6.796875 C 6.753906 -6.316406 7.34375 -6.078125 8.09375 -6.078125 Z M 8.09375 -6.078125 "/></g></g></g><g fill="#ffffff" fill-opacity="1"><g transform="translate(214.620642, 57.107175)"><g><path d="M 16.65625 -2.15625 C 16.65625 -1.726562 16.851562 -1.429688 17.25 -1.265625 C 17.65625 -1.109375 18.132812 -0.992188 18.6875 -0.921875 L 18.6875 0 C 16.101562 -0.0820312 13.507812 -0.0820312 10.90625 0 L 10.90625 -0.921875 C 11.476562 -0.960938 11.957031 -1.070312 12.34375 -1.25 C 12.726562 -1.425781 12.921875 -1.726562 12.921875 -2.15625 L 12.921875 -11.171875 C 12.921875 -12.390625 12.707031 -13.351562 12.28125 -14.0625 C 11.851562 -14.78125 11.1875 -15.140625 10.28125 -15.140625 C 9.570312 -15.140625 8.941406 -14.941406 8.390625 -14.546875 C 7.847656 -14.148438 7.410156 -13.6875 7.078125 -13.15625 C 6.742188 -12.625 6.523438 -12.140625 6.421875 -11.703125 L 6.421875 -2.15625 C 6.421875 -1.726562 6.617188 -1.429688 7.015625 -1.265625 C 7.410156 -1.109375 7.882812 -0.992188 8.4375 -0.921875 L 8.4375 0 C 5.851562 -0.132812 3.257812 -0.132812 0.65625 0 L 0.65625 -0.921875 C 1.207031 -0.992188 1.675781 -1.109375 2.0625 -1.265625 C 2.445312 -1.429688 2.640625 -1.726562 2.640625 -2.15625 L 2.640625 -19.109375 C 2.640625 -19.722656 2.472656 -20.125 2.140625 -20.3125 C 1.816406 -20.5 1.347656 -20.550781 0.734375 -20.46875 L 0.734375 -21.390625 C 1.648438 -21.566406 2.546875 -21.804688 3.421875 -22.109375 C 4.296875 -22.421875 5.109375 -22.8125 5.859375 -23.28125 C 6.179688 -23.144531 6.429688 -22.890625 6.609375 -22.515625 C 6.523438 -21.960938 6.472656 -21.34375 6.453125 -20.65625 C 6.429688 -19.976562 6.421875 -19.117188 6.421875 -18.078125 L 6.421875 -15.046875 L 6.109375 -13 C 6.242188 -13.28125 6.457031 -13.632812 6.75 -14.0625 C 7.050781 -14.5 7.4375 -14.9375 7.90625 -15.375 C 8.382812 -15.8125 8.957031 -16.175781 9.625 -16.46875 C 10.300781 -16.769531 11.082031 -16.921875 11.96875 -16.921875 C 12.738281 -16.921875 13.484375 -16.757812 14.203125 -16.4375 C 14.921875 -16.125 15.507812 -15.550781 15.96875 -14.71875 C 16.425781 -13.894531 16.65625 -12.722656 16.65625 -11.203125 Z M 16.65625 -2.15625 "/></g></g></g><g fill="#ffffff" fill-opacity="1"><g transform="translate(233.798003, 57.107175)"><g><path d="M 9.953125 -0.953125 C 9.597656 -0.609375 9.128906 -0.320312 8.546875 -0.09375 C 7.960938 0.125 7.316406 0.234375 6.609375 0.234375 C 5.441406 0.234375 4.457031 -0.117188 3.65625 -0.828125 C 2.851562 -1.535156 2.453125 -2.703125 2.453125 -4.328125 L 2.453125 -15.4375 L 0.65625 -15.4375 L 0.65625 -16.5625 C 1.976562 -16.5625 2.960938 -16.925781 3.609375 -17.65625 C 4.265625 -18.382812 4.726562 -19.519531 5 -21.0625 L 6.1875 -21.0625 L 6.1875 -16.5625 L 9.953125 -16.5625 L 9.953125 -15.4375 L 6.1875 -15.4375 L 6.1875 -3.703125 C 6.1875 -3.015625 6.296875 -2.421875 6.515625 -1.921875 C 6.734375 -1.429688 7.1875 -1.1875 7.875 -1.1875 C 8.332031 -1.1875 8.742188 -1.289062 9.109375 -1.5 C 9.472656 -1.707031 9.753906 -1.898438 9.953125 -2.078125 Z M 9.953125 -0.953125 "/></g></g></g><g fill="#ffffff" fill-opacity="1"><g transform="translate(244.742323, 57.107175)"><g><path d="M 18.484375 -3.578125 C 18.703125 -3.023438 18.910156 -2.5625 19.109375 -2.1875 C 19.304688 -1.8125 19.597656 -1.523438 19.984375 -1.328125 C 20.367188 -1.128906 20.945312 -0.992188 21.71875 -0.921875 L 21.71875 0 C 18.71875 -0.113281 15.710938 -0.113281 12.703125 0 L 12.703125 -0.921875 C 13.796875 -1.015625 14.457031 -1.203125 14.6875 -1.484375 C 14.925781 -1.773438 14.925781 -2.25 14.6875 -2.90625 L 13.296875 -6.71875 L 6.34375 -6.71875 L 5.03125 -2.78125 C 4.800781 -2.15625 4.972656 -1.710938 5.546875 -1.453125 C 6.128906 -1.191406 6.957031 -1.015625 8.03125 -0.921875 L 8.03125 0 C 6.820312 -0.0390625 5.539062 -0.0625 4.1875 -0.0625 C 2.832031 -0.0625 1.546875 -0.0390625 0.328125 0 L 0.328125 -0.921875 C 1.429688 -1.015625 2.226562 -1.242188 2.71875 -1.609375 C 3.21875 -1.972656 3.601562 -2.523438 3.875 -3.265625 L 9.890625 -20.703125 L 12.171875 -20.703125 Z M 6.71875 -7.796875 L 12.890625 -7.796875 L 9.65625 -16.65625 Z M 6.71875 -7.796875 "/></g></g></g><g fill="#ffffff" fill-opacity="1"><g transform="translate(266.796281, 57.107175)"><g><path d="M 7.140625 -2.578125 C 7.140625 -2.003906 7.316406 -1.601562 7.671875 -1.375 C 8.023438 -1.144531 8.640625 -0.992188 9.515625 -0.921875 L 9.515625 0 C 6.628906 -0.113281 3.734375 -0.113281 0.828125 0 L 0.828125 -0.921875 C 1.734375 -0.992188 2.359375 -1.144531 2.703125 -1.375 C 3.054688 -1.601562 3.234375 -2.003906 3.234375 -2.578125 L 3.234375 -17.953125 C 3.234375 -18.523438 3.054688 -18.925781 2.703125 -19.15625 C 2.359375 -19.382812 1.734375 -19.535156 0.828125 -19.609375 L 0.828125 -20.53125 C 3.734375 -20.414062 6.628906 -20.414062 9.515625 -20.53125 L 9.515625 -19.609375 C 8.640625 -19.535156 8.023438 -19.382812 7.671875 -19.15625 C 7.316406 -18.925781 7.140625 -18.523438 7.140625 -17.953125 Z M 7.140625 -2.578125 "/></g></g></g></svg>