<?xml version="1.0" standalone="no"?>
<!DOCTYPE svg PUBLIC "-//W3C//DTD SVG 20010904//EN"
 "http://www.w3.org/TR/2001/REC-SVG-20010904/DTD/svg10.dtd">
<svg version="1.0" xmlns="http://www.w3.org/2000/svg"
 width="1026.000000pt" height="220.000000pt" viewBox="0 0 1026.000000 220.000000"
 preserveAspectRatio="xMidYMid meet">

<g transform="translate(0.000000,220.000000) scale(0.100000,-0.100000)"
fill="#000000" stroke="none">
<path d="M2016 2024 c-50 -18 -56 -24 -21 -21 17 1 29 -4 32 -13 4 -12 3 -13
-5 -1 -8 11 -16 11 -43 2 -18 -6 -35 -9 -37 -6 -3 3 1 5 8 5 7 0 11 2 8 5 -9
9 -68 -17 -62 -27 4 -6 -2 -8 -16 -3 -17 5 -21 4 -15 -6 6 -9 3 -11 -8 -6 -10
3 -17 2 -17 -4 0 -5 -6 -9 -12 -8 -7 1 -20 -1 -28 -4 -8 -4 -98 -36 -200 -70
l-185 -64 -12 -54 c-19 -87 -76 -726 -68 -767 5 -26 27 -57 83 -116 l77 -81
-72 69 c-71 69 -73 70 -134 74 -88 6 -598 -17 -637 -29 -25 -8 -83 -72 -272
-302 -157 -191 -239 -299 -238 -311 2 -11 21 -29 43 -40 34 -18 60 -21 185
-24 80 -1 438 -9 795 -17 770 -18 803 -18 829 4 18 15 19 15 13 -1 -8 -23 -33
-23 929 1 784 20 797 21 833 65 20 23 10 30 -94 61 -49 15 -93 32 -97 38 -10
17 -368 22 -470 8 -46 -7 -167 -32 -271 -57 -314 -75 -400 -87 -592 -87 -103
0 -181 4 -197 11 -23 9 -27 8 -31 -6 -3 -9 -5 -1 -6 18 -1 30 -12 45 -71 101
-38 37 -70 70 -70 75 0 5 31 -23 70 -61 47 -47 71 -64 74 -54 12 37 16 41 11
12 -10 -72 41 -18 55 57 13 70 14 1589 0 1624 -11 30 -11 30 -64 10z m21
-1246 c-1 -222 -2 -43 -2 397 0 440 1 621 2 403 2 -218 2 -578 0 -800z m-55
1140 c10 -18 13 -176 13 -748 0 -680 -4 -806 -25 -798 -4 2 -140 131 -301 287
-219 211 -298 293 -309 322 -13 35 -11 66 18 346 18 169 35 334 39 366 3 32
13 66 22 76 9 11 82 38 176 65 88 26 201 60 250 76 110 35 102 35 117 8z
m-647 -1045 c26 -32 26 -33 6 -33 -12 0 -25 8 -28 18 -4 9 -12 21 -20 25 -7 4
-13 15 -13 23 0 20 20 8 55 -33z m-265 17 c9 -18 7 -20 -17 -21 l-28 -2 28 -4
c29 -5 34 -11 40 -50 2 -12 6 -26 10 -29 16 -16 5 -23 -40 -27 l-48 -3 50 -2
50 -2 36 -110 36 -110 -84 0 c-79 0 -83 1 -84 23 -1 12 -4 45 -7 72 -3 28 -5
69 -6 93 -1 23 -4 42 -8 42 -5 0 -8 14 -8 30 0 26 4 30 28 31 l27 1 -30 7
c-24 5 -30 12 -32 38 -2 29 0 32 30 36 17 2 35 5 39 5 4 1 12 -7 18 -18z m100
16 c0 -2 3 -12 6 -21 6 -14 0 -16 -42 -13 -37 2 -50 7 -52 21 -3 14 4 17 42
17 25 0 46 -2 46 -4z m90 -11 c11 -13 7 -15 -23 -15 -22 0 -37 6 -41 15 -4 11
2 15 23 15 16 0 34 -7 41 -15z m-400 -15 c0 -17 -7 -20 -45 -20 -48 0 -59 15
-22 30 40 16 67 12 67 -10z m107 -25 c2 -22 6 -79 9 -127 l6 -88 -71 0 c-52 0
-70 3 -65 12 4 6 8 27 10 47 1 20 3 38 4 41 4 9 7 34 8 73 2 33 5 37 30 38
l27 2 -27 4 c-31 5 -31 5 -22 28 5 12 17 15 48 13 40 -3 41 -4 43 -43z m-207
31 c0 -25 -16 -36 -56 -36 -45 0 -53 7 -32 28 11 11 88 18 88 8z m530 -31 c11
-13 7 -15 -23 -15 -19 0 -40 7 -47 15 -11 13 -7 15 23 15 19 0 40 -7 47 -15z
m-90 -6 c0 -6 9 -23 19 -38 11 -15 21 -34 23 -42 2 -8 5 -16 8 -19 3 -3 18
-25 34 -49 22 -35 25 -45 14 -52 -10 -7 -9 -9 4 -9 9 0 23 -12 30 -27 8 -16
22 -40 32 -55 l18 -28 -86 0 c-78 0 -86 2 -86 19 0 11 -4 22 -9 25 -5 3 -14
28 -21 56 -7 28 -16 53 -21 56 -21 13 -6 23 39 27 l47 3 -52 2 c-39 2 -53 6
-53 16 0 11 14 16 48 19 l47 3 -53 2 c-56 2 -60 7 -78 77 -6 24 -4 25 45 25
30 0 51 -4 51 -11z m-343 -13 c-3 -8 -9 -31 -13 -50 -6 -36 -6 -36 -60 -36
-41 0 -54 4 -54 15 0 8 5 15 11 15 5 0 8 4 5 9 -3 4 0 20 7 35 11 23 18 26 61
26 38 0 47 -3 43 -14z m-117 0 c0 -23 -34 -75 -52 -80 -29 -7 -88 -8 -88 0 0
3 10 23 23 44 21 38 25 40 70 40 26 0 47 -2 47 -4z m583 -28 c8 -13 31 -41 50
-63 20 -22 37 -45 37 -51 0 -7 7 -14 15 -18 30 -11 14 -26 -29 -26 -36 0 -47
5 -60 25 -9 14 -16 28 -15 31 0 4 -3 10 -8 13 -5 3 -16 18 -26 34 -9 15 -24
38 -33 52 -16 25 -16 25 19 25 25 0 39 -6 50 -22z m73 -5 c10 -16 17 -31 16
-35 -1 -5 4 -8 10 -8 7 0 34 -24 59 -52 43 -48 45 -53 26 -56 -12 -2 -27 4
-36 16 -9 11 -27 35 -41 52 -14 18 -32 39 -40 48 -8 10 -24 27 -34 40 -19 22
-19 22 1 22 12 0 29 -12 39 -27z m454 -351 c0 -6 -265 245 -315 299 -22 24 40
-33 138 -126 97 -92 177 -170 177 -173z m-1152 280 c-1 -4 -25 -60 -52 -125
l-50 -117 -83 0 c-46 0 -83 3 -83 7 0 3 34 59 76 125 l76 118 60 0 c33 0 58
-3 56 -8z m137 -12 c-4 -11 -8 -32 -9 -48 -3 -26 -5 -27 -74 -30 l-71 -3 13
33 c7 18 16 41 19 51 5 14 18 17 67 17 57 0 61 -1 55 -20z m625 -88 c0 -5 16
-26 35 -48 19 -21 35 -45 35 -51 0 -7 4 -13 8 -13 4 0 25 -22 45 -50 l37 -50
-66 0 c-57 0 -67 3 -71 20 -3 11 -9 20 -14 20 -5 0 -9 6 -9 14 0 7 -7 19 -15
26 -8 7 -12 16 -9 21 3 5 1 9 -4 9 -5 0 -17 18 -28 40 -10 22 -22 40 -25 40
-4 0 -9 7 -13 15 -4 12 4 15 44 15 28 0 50 -4 50 -8z m98 -10 c3 -10 -4 -13
-24 -10 -15 2 -29 9 -32 16 -3 10 4 13 24 10 15 -2 29 -9 32 -16z m-743 -29
c-4 -21 -9 -45 -12 -53 -3 -8 -7 -28 -9 -45 -2 -16 -6 -39 -8 -50 -3 -11 -5
-23 -5 -27 -1 -12 -181 -10 -181 1 0 5 5 22 12 38 6 15 12 30 13 33 7 30 29
87 36 95 5 5 9 17 9 27 0 16 9 18 75 18 l76 0 -6 -37z m172 -13 l0 -50 -79 0
-80 0 7 28 c4 15 7 37 7 50 -2 21 2 22 72 22 l73 0 0 -50z m654 -52 c35 -40
69 -77 76 -81 21 -13 15 -27 -13 -27 -26 0 -74 40 -74 61 0 5 -4 9 -9 9 -5 0
-27 25 -50 55 -40 53 -41 55 -18 55 17 0 42 -21 88 -72z m-642 -65 c1 -32 3
-67 5 -78 3 -11 5 -26 5 -32 1 -7 9 -13 19 -13 17 0 18 5 11 58 -5 31 -11 72
-13 90 l-5 33 87 -3 c69 -2 87 -6 87 -18 0 -8 2 -17 6 -20 3 -3 14 -36 26 -75
11 -38 24 -78 28 -87 7 -17 -8 -18 -225 -18 l-233 0 8 48 c4 26 8 57 10 69 2
13 6 41 10 63 l7 40 83 0 82 0 2 -57z m398 40 c3 -10 15 -30 25 -45 11 -16 16
-32 13 -38 -3 -5 -2 -10 4 -10 5 0 16 -11 23 -24 7 -13 21 -38 31 -55 l18 -32
-107 3 -106 3 -33 88 c-18 48 -30 87 -27 87 3 0 1 5 -6 12 -23 23 -11 28 73
28 72 0 87 -3 92 -17z m-810 -30 c-5 -9 -39 -85 -42 -93 0 -3 -7 -22 -15 -42
l-14 -38 -109 0 c-117 0 -114 -2 -72 55 12 17 34 51 49 78 l28 47 90 0 c49 0
87 -3 85 -7z m1082 -118 l42 -55 -70 0 c-65 0 -71 2 -90 29 -12 16 -21 33 -21
37 0 4 -7 16 -17 26 -15 17 -13 18 49 18 l66 0 41 -55z m123 3 l48 -53 -32 -3
c-26 -3 -37 3 -60 30 -15 18 -38 43 -50 56 l-23 22 35 0 c30 0 42 -8 82 -52z
m-1017 5 c-4 -21 -8 -44 -10 -50 -3 -9 -34 -13 -110 -13 -58 0 -105 2 -105 4
0 2 9 25 20 50 l19 46 96 0 96 0 -6 -37z m-598 -79 c-3 -3 -12 -4 -19 -1 -8 3
-5 6 6 6 11 1 17 -2 13 -5z m1797 -7 c28 -21 12 -59 -22 -55 -41 5 -42 67 -1
68 3 0 13 -6 23 -13z m-576 -4 c-218 -2 -578 -2 -800 0 -222 1 -43 2 397 2
440 0 621 -1 403 -2z m-728 -28 c0 -8 -7 -15 -15 -15 -16 0 -20 12 -8 23 11
12 23 8 23 -8z m598 -3 c2 -7 -3 -12 -12 -12 -9 0 -16 7 -16 16 0 17 22 14 28
-4z m-553 -2 c3 -5 1 -10 -4 -10 -6 0 -11 5 -11 10 0 6 2 10 4 10 3 0 8 -4 11
-10z m745 -5 c0 -8 -7 -15 -15 -15 -8 0 -15 7 -15 15 0 8 7 15 15 15 8 0 15
-7 15 -15z m124 9 c9 -3 16 -13 16 -21 0 -10 -6 -13 -16 -9 -9 3 -29 6 -45 6
-19 0 -29 5 -29 15 0 16 43 21 74 9z m306 -19 c13 -14 21 -25 18 -25 -2 0 -15
11 -28 25 -13 14 -21 25 -18 25 2 0 15 -11 28 -25z m-127 0 c-4 -15 -86 -12
-91 3 -3 10 8 12 44 10 27 -2 48 -7 47 -13z"/>
<path d="M2618 1673 c7 -3 16 -2 19 1 4 3 -2 6 -13 5 -11 0 -14 -3 -6 -6z"/>
<path d="M2743 1663 c9 -2 25 -2 35 0 9 3 1 5 -18 5 -19 0 -27 -2 -17 -5z"/>
<path d="M2868 1653 c12 -2 30 -2 40 0 9 3 -1 5 -23 4 -22 0 -30 -2 -17 -4z"/>
<path d="M2501 1484 c0 -11 3 -14 6 -6 3 7 2 16 -1 19 -3 4 -6 -2 -5 -13z"/>
<path d="M2491 1434 c0 -11 3 -14 6 -6 3 7 2 16 -1 19 -3 4 -6 -2 -5 -13z"/>
<path d="M2838 1303 c7 -3 16 -2 19 1 4 3 -2 6 -13 5 -11 0 -14 -3 -6 -6z"/>
<path d="M3154 1108 l-19 -23 23 19 c21 18 27 26 19 26 -2 0 -12 -10 -23 -22z"/>
<path d="M3380 946 c0 -2 7 -7 16 -10 8 -3 12 -2 9 4 -6 10 -25 14 -25 6z"/>
<path d="M2924 878 l-19 -23 23 19 c21 18 27 26 19 26 -2 0 -12 -10 -23 -22z"/>
<path d="M3597 629 c7 -7 15 -10 18 -7 3 3 -2 9 -12 12 -14 6 -15 5 -6 -5z"/>
<path d="M3523 613 c9 -2 23 -2 30 0 6 3 -1 5 -18 5 -16 0 -22 -2 -12 -5z"/>
<path d="M2078 293 c7 -3 16 -2 19 1 4 3 -2 6 -13 5 -11 0 -14 -3 -6 -6z"/>
</g>
</svg>
